<?xml version="1.0" encoding="utf-8" standalone="no"?>
<!DOCTYPE svg PUBLIC "-//W3C//DTD SVG 1.1//EN"
  "http://www.w3.org/Graphics/SVG/1.1/DTD/svg11.dtd">
<svg xmlns:xlink="http://www.w3.org/1999/xlink" width="460.8pt" height="345.6pt" viewBox="0 0 460.8 345.6" xmlns="http://www.w3.org/2000/svg" version="1.1">
 <metadata>
  <rdf:RDF xmlns:dc="http://purl.org/dc/elements/1.1/" xmlns:cc="http://creativecommons.org/ns#" xmlns:rdf="http://www.w3.org/1999/02/22-rdf-syntax-ns#">
   <cc:Work>
    <dc:type rdf:resource="http://purl.org/dc/dcmitype/StillImage"/>
    <dc:date>2023-10-11T23:27:34.958163</dc:date>
    <dc:format>image/svg+xml</dc:format>
    <dc:creator>
     <cc:Agent>
      <dc:title>Matplotlib v3.7.3, https://matplotlib.org/</dc:title>
     </cc:Agent>
    </dc:creator>
   </cc:Work>
  </rdf:RDF>
 </metadata>
 <defs>
  <style type="text/css">*{stroke-linejoin: round; stroke-linecap: butt}</style>
 </defs>
 <g id="figure_1">
  <g id="patch_1">
   <path d="M 0 345.6 
L 460.8 345.6 
L 460.8 0 
L 0 0 
z
" style="fill: #ffffff"/>
  </g>
  <g id="axes_1">
   <g id="patch_2">
    <path d="M 57.6 307.584 
L 414.72 307.584 
L 414.72 41.472 
L 57.6 41.472 
z
" style="fill: #ffffff"/>
   </g>
   <g id="matplotlib.axis_1">
    <g id="xtick_1">
     <g id="line2d_1">
      <defs>
       <path id="m5c89f9f52c" d="M 0 0 
L 0 3.5 
" style="stroke: #000000; stroke-width: 0.8"/>
      </defs>
      <g>
       <use xlink:href="#m5c89f9f52c" x="57.6" y="307.584" style="stroke: #000000; stroke-width: 0.8"/>
      </g>
     </g>
     <g id="text_1">
      <!-- −0.5 -->
      <g transform="translate(45.458594 322.182437) scale(0.1 -0.1)">
       <defs>
        <path id="DejaVuSans-2212" d="M 678 2272 
L 4684 2272 
L 4684 1741 
L 678 1741 
L 678 2272 
z
" transform="scale(0.015625)"/>
        <path id="DejaVuSans-30" d="M 2034 4250 
Q 1547 4250 1301 3770 
Q 1056 3291 1056 2328 
Q 1056 1369 1301 889 
Q 1547 409 2034 409 
Q 2525 409 2770 889 
Q 3016 1369 3016 2328 
Q 3016 3291 2770 3770 
Q 2525 4250 2034 4250 
z
M 2034 4750 
Q 2819 4750 3233 4129 
Q 3647 3509 3647 2328 
Q 3647 1150 3233 529 
Q 2819 -91 2034 -91 
Q 1250 -91 836 529 
Q 422 1150 422 2328 
Q 422 3509 836 4129 
Q 1250 4750 2034 4750 
z
" transform="scale(0.015625)"/>
        <path id="DejaVuSans-2e" d="M 684 794 
L 1344 794 
L 1344 0 
L 684 0 
L 684 794 
z
" transform="scale(0.015625)"/>
        <path id="DejaVuSans-35" d="M 691 4666 
L 3169 4666 
L 3169 4134 
L 1269 4134 
L 1269 2991 
Q 1406 3038 1543 3061 
Q 1681 3084 1819 3084 
Q 2600 3084 3056 2656 
Q 3513 2228 3513 1497 
Q 3513 744 3044 326 
Q 2575 -91 1722 -91 
Q 1428 -91 1123 -41 
Q 819 9 494 109 
L 494 744 
Q 775 591 1075 516 
Q 1375 441 1709 441 
Q 2250 441 2565 725 
Q 2881 1009 2881 1497 
Q 2881 1984 2565 2268 
Q 2250 2553 1709 2553 
Q 1456 2553 1204 2497 
Q 953 2441 691 2322 
L 691 4666 
z
" transform="scale(0.015625)"/>
       </defs>
       <use xlink:href="#DejaVuSans-2212"/>
       <use xlink:href="#DejaVuSans-30" x="83.789062"/>
       <use xlink:href="#DejaVuSans-2e" x="147.412109"/>
       <use xlink:href="#DejaVuSans-35" x="179.199219"/>
      </g>
     </g>
    </g>
    <g id="xtick_2">
     <g id="line2d_2">
      <g>
       <use xlink:href="#m5c89f9f52c" x="136.936436" y="307.584" style="stroke: #000000; stroke-width: 0.8"/>
      </g>
     </g>
     <g id="text_2">
      <!-- 0.0 -->
      <g transform="translate(128.984874 322.182437) scale(0.1 -0.1)">
       <use xlink:href="#DejaVuSans-30"/>
       <use xlink:href="#DejaVuSans-2e" x="63.623047"/>
       <use xlink:href="#DejaVuSans-30" x="95.410156"/>
      </g>
     </g>
    </g>
    <g id="xtick_3">
     <g id="line2d_3">
      <g>
       <use xlink:href="#m5c89f9f52c" x="216.272873" y="307.584" style="stroke: #000000; stroke-width: 0.8"/>
      </g>
     </g>
     <g id="text_3">
      <!-- 0.5 -->
      <g transform="translate(208.32131 322.182437) scale(0.1 -0.1)">
       <use xlink:href="#DejaVuSans-30"/>
       <use xlink:href="#DejaVuSans-2e" x="63.623047"/>
       <use xlink:href="#DejaVuSans-35" x="95.410156"/>
      </g>
     </g>
    </g>
    <g id="xtick_4">
     <g id="line2d_4">
      <g>
       <use xlink:href="#m5c89f9f52c" x="295.609309" y="307.584" style="stroke: #000000; stroke-width: 0.8"/>
      </g>
     </g>
     <g id="text_4">
      <!-- 1.0 -->
      <g transform="translate(287.657746 322.182437) scale(0.1 -0.1)">
       <defs>
        <path id="DejaVuSans-31" d="M 794 531 
L 1825 531 
L 1825 4091 
L 703 3866 
L 703 4441 
L 1819 4666 
L 2450 4666 
L 2450 531 
L 3481 531 
L 3481 0 
L 794 0 
L 794 531 
z
" transform="scale(0.015625)"/>
       </defs>
       <use xlink:href="#DejaVuSans-31"/>
       <use xlink:href="#DejaVuSans-2e" x="63.623047"/>
       <use xlink:href="#DejaVuSans-30" x="95.410156"/>
      </g>
     </g>
    </g>
    <g id="xtick_5">
     <g id="line2d_5">
      <g>
       <use xlink:href="#m5c89f9f52c" x="374.945745" y="307.584" style="stroke: #000000; stroke-width: 0.8"/>
      </g>
     </g>
     <g id="text_5">
      <!-- 1.5 -->
      <g transform="translate(366.994183 322.182437) scale(0.1 -0.1)">
       <use xlink:href="#DejaVuSans-31"/>
       <use xlink:href="#DejaVuSans-2e" x="63.623047"/>
       <use xlink:href="#DejaVuSans-35" x="95.410156"/>
      </g>
     </g>
    </g>
    <g id="text_6">
     <!-- x1 -->
     <g transform="translate(230.019375 335.860562) scale(0.1 -0.1)">
      <defs>
       <path id="DejaVuSans-78" d="M 3513 3500 
L 2247 1797 
L 3578 0 
L 2900 0 
L 1881 1375 
L 863 0 
L 184 0 
L 1544 1831 
L 300 3500 
L 978 3500 
L 1906 2253 
L 2834 3500 
L 3513 3500 
z
" transform="scale(0.015625)"/>
      </defs>
      <use xlink:href="#DejaVuSans-78"/>
      <use xlink:href="#DejaVuSans-31" x="59.179688"/>
     </g>
    </g>
   </g>
   <g id="matplotlib.axis_2">
    <g id="ytick_1">
     <g id="line2d_6">
      <defs>
       <path id="m12767c86e4" d="M 0 0 
L -3.5 0 
" style="stroke: #000000; stroke-width: 0.8"/>
      </defs>
      <g>
       <use xlink:href="#m12767c86e4" x="57.6" y="307.584" style="stroke: #000000; stroke-width: 0.8"/>
      </g>
     </g>
     <g id="text_7">
      <!-- −0.50 -->
      <g transform="translate(19.954687 311.383219) scale(0.1 -0.1)">
       <use xlink:href="#DejaVuSans-2212"/>
       <use xlink:href="#DejaVuSans-30" x="83.789062"/>
       <use xlink:href="#DejaVuSans-2e" x="147.412109"/>
       <use xlink:href="#DejaVuSans-35" x="179.199219"/>
       <use xlink:href="#DejaVuSans-30" x="242.822266"/>
      </g>
     </g>
    </g>
    <g id="ytick_2">
     <g id="line2d_7">
      <g>
       <use xlink:href="#m12767c86e4" x="57.6" y="271.216832" style="stroke: #000000; stroke-width: 0.8"/>
      </g>
     </g>
     <g id="text_8">
      <!-- −0.25 -->
      <g transform="translate(19.954687 275.016051) scale(0.1 -0.1)">
       <defs>
        <path id="DejaVuSans-32" d="M 1228 531 
L 3431 531 
L 3431 0 
L 469 0 
L 469 531 
Q 828 903 1448 1529 
Q 2069 2156 2228 2338 
Q 2531 2678 2651 2914 
Q 2772 3150 2772 3378 
Q 2772 3750 2511 3984 
Q 2250 4219 1831 4219 
Q 1534 4219 1204 4116 
Q 875 4013 500 3803 
L 500 4441 
Q 881 4594 1212 4672 
Q 1544 4750 1819 4750 
Q 2544 4750 2975 4387 
Q 3406 4025 3406 3419 
Q 3406 3131 3298 2873 
Q 3191 2616 2906 2266 
Q 2828 2175 2409 1742 
Q 1991 1309 1228 531 
z
" transform="scale(0.015625)"/>
       </defs>
       <use xlink:href="#DejaVuSans-2212"/>
       <use xlink:href="#DejaVuSans-30" x="83.789062"/>
       <use xlink:href="#DejaVuSans-2e" x="147.412109"/>
       <use xlink:href="#DejaVuSans-32" x="179.199219"/>
       <use xlink:href="#DejaVuSans-35" x="242.822266"/>
      </g>
     </g>
    </g>
    <g id="ytick_3">
     <g id="line2d_8">
      <g>
       <use xlink:href="#m12767c86e4" x="57.6" y="234.849664" style="stroke: #000000; stroke-width: 0.8"/>
      </g>
     </g>
     <g id="text_9">
      <!-- 0.00 -->
      <g transform="translate(28.334375 238.648883) scale(0.1 -0.1)">
       <use xlink:href="#DejaVuSans-30"/>
       <use xlink:href="#DejaVuSans-2e" x="63.623047"/>
       <use xlink:href="#DejaVuSans-30" x="95.410156"/>
       <use xlink:href="#DejaVuSans-30" x="159.033203"/>
      </g>
     </g>
    </g>
    <g id="ytick_4">
     <g id="line2d_9">
      <g>
       <use xlink:href="#m12767c86e4" x="57.6" y="198.482496" style="stroke: #000000; stroke-width: 0.8"/>
      </g>
     </g>
     <g id="text_10">
      <!-- 0.25 -->
      <g transform="translate(28.334375 202.281715) scale(0.1 -0.1)">
       <use xlink:href="#DejaVuSans-30"/>
       <use xlink:href="#DejaVuSans-2e" x="63.623047"/>
       <use xlink:href="#DejaVuSans-32" x="95.410156"/>
       <use xlink:href="#DejaVuSans-35" x="159.033203"/>
      </g>
     </g>
    </g>
    <g id="ytick_5">
     <g id="line2d_10">
      <g>
       <use xlink:href="#m12767c86e4" x="57.6" y="162.115328" style="stroke: #000000; stroke-width: 0.8"/>
      </g>
     </g>
     <g id="text_11">
      <!-- 0.50 -->
      <g transform="translate(28.334375 165.914547) scale(0.1 -0.1)">
       <use xlink:href="#DejaVuSans-30"/>
       <use xlink:href="#DejaVuSans-2e" x="63.623047"/>
       <use xlink:href="#DejaVuSans-35" x="95.410156"/>
       <use xlink:href="#DejaVuSans-30" x="159.033203"/>
      </g>
     </g>
    </g>
    <g id="ytick_6">
     <g id="line2d_11">
      <g>
       <use xlink:href="#m12767c86e4" x="57.6" y="125.748161" style="stroke: #000000; stroke-width: 0.8"/>
      </g>
     </g>
     <g id="text_12">
      <!-- 0.75 -->
      <g transform="translate(28.334375 129.547379) scale(0.1 -0.1)">
       <defs>
        <path id="DejaVuSans-37" d="M 525 4666 
L 3525 4666 
L 3525 4397 
L 1831 0 
L 1172 0 
L 2766 4134 
L 525 4134 
L 525 4666 
z
" transform="scale(0.015625)"/>
       </defs>
       <use xlink:href="#DejaVuSans-30"/>
       <use xlink:href="#DejaVuSans-2e" x="63.623047"/>
       <use xlink:href="#DejaVuSans-37" x="95.410156"/>
       <use xlink:href="#DejaVuSans-35" x="159.033203"/>
      </g>
     </g>
    </g>
    <g id="ytick_7">
     <g id="line2d_12">
      <g>
       <use xlink:href="#m12767c86e4" x="57.6" y="89.380993" style="stroke: #000000; stroke-width: 0.8"/>
      </g>
     </g>
     <g id="text_13">
      <!-- 1.00 -->
      <g transform="translate(28.334375 93.180211) scale(0.1 -0.1)">
       <use xlink:href="#DejaVuSans-31"/>
       <use xlink:href="#DejaVuSans-2e" x="63.623047"/>
       <use xlink:href="#DejaVuSans-30" x="95.410156"/>
       <use xlink:href="#DejaVuSans-30" x="159.033203"/>
      </g>
     </g>
    </g>
    <g id="ytick_8">
     <g id="line2d_13">
      <g>
       <use xlink:href="#m12767c86e4" x="57.6" y="53.013825" style="stroke: #000000; stroke-width: 0.8"/>
      </g>
     </g>
     <g id="text_14">
      <!-- 1.25 -->
      <g transform="translate(28.334375 56.813044) scale(0.1 -0.1)">
       <use xlink:href="#DejaVuSans-31"/>
       <use xlink:href="#DejaVuSans-2e" x="63.623047"/>
       <use xlink:href="#DejaVuSans-32" x="95.410156"/>
       <use xlink:href="#DejaVuSans-35" x="159.033203"/>
      </g>
     </g>
    </g>
    <g id="text_15">
     <!-- x2 -->
     <g transform="translate(13.875 180.668625) rotate(-90) scale(0.1 -0.1)">
      <use xlink:href="#DejaVuSans-78"/>
      <use xlink:href="#DejaVuSans-32" x="59.179688"/>
     </g>
    </g>
   </g>
   <g id="PathCollection_1">
    <path d="M 329.64036 114.726054 
L 329.64036 114.726054 
L 329.64036 114.726054 
L 329.64036 114.726054 
L 329.64036 114.726054 
z
" clip-path="url(#pfe8bbecac9)" style="fill: none; stroke: #440154; stroke-width: 1.5"/>
   </g>
   <g id="PathCollection_2">
    <path d="M 390.323826 41.472 
L 391.483964 42.64932 
L 392.593442 44.135784 
L 393.49103 45.734054 
L 394.269594 47.598703 
L 394.899905 49.72973 
L 395.362626 52.127135 
L 395.640219 54.790919 
L 395.7203 57.721081 
L 395.589318 60.917622 
L 395.201189 64.646919 
L 394.549704 68.642595 
L 393.626246 72.904649 
L 392.340238 77.699459 
L 390.822886 82.49427 
L 388.981622 87.582319 
L 386.712655 93.149405 
L 384.179031 98.743351 
L 381.397959 104.337297 
L 378.257297 110.132721 
L 374.931859 115.791568 
L 371.385597 121.385514 
L 367.532973 127.029178 
L 363.459426 132.573405 
L 359.469374 137.634595 
L 355.378739 142.483095 
L 351.089009 147.229508 
L 346.702323 151.752649 
L 342.261317 156.014703 
L 337.862342 159.939414 
L 333.215135 163.779182 
L 328.567928 167.316348 
L 323.920721 170.560366 
L 319.273514 173.51765 
L 314.983784 175.996504 
L 310.378774 178.390486 
L 306.356229 180.255135 
L 302.114595 181.989924 
L 297.824865 183.49817 
L 293.892613 184.656633 
L 289.96036 185.592718 
L 286.028108 186.29461 
L 282.453333 186.717164 
L 278.878559 186.91867 
L 275.661261 186.893829 
L 272.401009 186.648216 
L 269.584144 186.23553 
L 266.661551 185.582703 
L 264.078907 184.783568 
L 261.71964 183.836631 
L 259.388988 182.652541 
L 257.291415 181.320649 
L 255.576554 179.988757 
L 253.855135 178.355134 
L 252.425225 176.680609 
L 251.214579 174.927568 
L 250.189958 173.062919 
L 249.296008 170.931892 
L 248.653078 168.800865 
L 248.226977 166.669838 
L 247.97536 164.272432 
L 247.937773 161.875027 
L 248.120214 159.211243 
L 248.51578 156.547459 
L 249.207928 153.487378 
L 250.132662 150.420757 
L 251.352793 147.14664 
L 252.84505 143.761297 
L 254.737275 140.032 
L 257.027984 136.036324 
L 259.745172 131.77427 
L 262.792072 127.412417 
L 266.366847 122.689777 
L 270.464473 117.656216 
L 275.095008 112.328649 
L 280.308468 106.677012 
L 286.028108 100.804716 
L 292.462703 94.525975 
L 297.512808 89.80241 
L 297.512808 89.80241 
" clip-path="url(#pfe8bbecac9)" style="fill: none; stroke: #470d60; stroke-width: 1.5"/>
    <path d="M 319.724574 70.78008 
L 326.93576 65.179676 
L 333.811789 60.118486 
L 340.007207 55.8154 
L 346.08829 51.860757 
L 351.446486 48.631163 
L 356.451171 45.867156 
L 361.098378 43.558437 
L 365.27091 41.738378 
L 365.939777 41.472 
L 365.939777 41.472 
" clip-path="url(#pfe8bbecac9)" style="fill: none; stroke: #470d60; stroke-width: 1.5"/>
   </g>
   <g id="PathCollection_3">
    <path d="M 414.72 63.892976 
L 412.730484 70.240865 
L 410.488297 76.633946 
L 408.018562 83.027027 
L 405.329571 89.420108 
L 402.174008 96.345946 
L 398.766798 103.271784 
L 395.251242 109.931243 
L 391.483964 116.609982 
L 387.322749 123.516541 
L 383.218701 129.909622 
L 378.855507 136.302703 
L 374.325045 142.547019 
L 369.677838 148.573339 
L 364.887658 154.416432 
L 360.249703 159.744 
L 355.378739 165.012308 
L 350.336568 170.132757 
L 345.299528 174.927568 
L 340.217042 179.456 
L 335.36 183.504835 
L 330.29356 187.447351 
L 325.13414 191.176649 
L 320.345946 194.386716 
L 315.204178 197.56973 
L 310.336577 200.336034 
L 305.331892 202.932576 
L 300.294457 205.294703 
L 295.206081 207.42573 
L 290.317838 209.23183 
L 285.313153 210.834496 
L 280.665946 212.097124 
L 276.018739 213.139183 
L 271.371532 213.955847 
L 266.724324 214.540706 
L 262.434595 214.867564 
L 258.144865 214.980843 
L 253.855135 214.8699 
L 249.922883 214.558774 
L 245.990631 214.03316 
L 242.058378 213.274867 
L 238.483604 212.363309 
L 234.908829 211.216051 
L 231.691532 209.955273 
L 228.474234 208.445336 
L 225.614414 206.857507 
L 222.807221 205.028324 
L 220.358652 203.163676 
L 218.107387 201.169614 
L 216.162131 199.168 
L 214.384386 197.036973 
L 212.745225 194.71654 
L 211.437349 192.508541 
L 210.242883 190.059866 
L 209.326548 187.71373 
L 208.532732 185.049946 
L 207.980073 182.386162 
L 207.650505 179.722378 
L 207.527991 176.792216 
L 207.640652 173.862054 
L 207.974182 170.931892 
L 208.57512 167.735351 
L 209.409289 164.538811 
L 210.463422 161.34227 
L 211.839386 157.879351 
L 213.576969 154.150054 
L 215.605045 150.346362 
L 217.947465 146.425081 
L 220.762234 142.163027 
L 224.034781 137.634595 
L 227.787902 132.839784 
L 232.049009 127.76739 
L 237.046235 122.184649 
L 242.855648 116.057946 
L 249.231472 109.664865 
L 256.731472 102.472649 
L 265.294414 94.584765 
L 268.212336 91.960209 
L 268.212336 91.960209 
" clip-path="url(#pfe8bbecac9)" style="fill: none; stroke: #481a6c; stroke-width: 1.5"/>
    <path d="M 290.418109 72.785734 
L 301.918447 63.315027 
L 313.264699 54.258162 
L 323.964353 46.000432 
L 330.010318 41.472 
L 330.010318 41.472 
" clip-path="url(#pfe8bbecac9)" style="fill: none; stroke: #481a6c; stroke-width: 1.5"/>
   </g>
   <g id="PathCollection_4">
    <path d="M 414.72 95.669745 
L 410.885295 103.538162 
L 407.009829 110.996757 
L 402.892909 118.455351 
L 398.362606 126.180324 
L 393.986306 133.219224 
L 389.149519 140.564757 
L 384.509118 147.224216 
L 379.687207 153.775523 
L 374.626547 160.276757 
L 369.580817 166.403459 
L 364.475476 172.263784 
L 359.310991 177.864919 
L 353.845391 183.451676 
L 348.586076 188.512865 
L 343.224505 193.3673 
L 337.647473 198.102486 
L 332.284103 202.364541 
L 326.905275 206.360216 
L 321.775856 209.917639 
L 316.413694 213.378369 
L 311.051532 216.580803 
L 305.689369 219.529575 
L 300.327207 222.228526 
L 294.827449 224.740324 
L 289.602883 226.888525 
L 284.240721 228.853296 
L 278.878559 230.576114 
L 273.516396 232.056668 
L 268.154234 233.294333 
L 263.14955 234.228466 
L 258.144865 234.946961 
L 253.14018 235.446429 
L 248.135495 235.722347 
L 243.130811 235.768925 
L 238.483604 235.600428 
L 233.836396 235.220224 
L 229.042942 234.596324 
L 224.541982 233.784879 
L 220.006479 232.731676 
L 215.962523 231.579036 
L 211.672793 230.117505 
L 207.740541 228.540663 
L 204.130693 226.871351 
L 200.590991 225.00242 
L 197.016216 222.847794 
L 193.798919 220.640249 
L 190.84598 218.347243 
L 188.079279 215.91629 
L 185.576937 213.424023 
L 183.335273 210.888649 
L 181.275181 208.224865 
L 179.489153 205.561081 
L 177.954929 202.897297 
L 176.537184 199.967135 
L 175.384529 197.036973 
L 174.482196 194.106811 
L 173.818447 191.176649 
L 173.383369 188.246486 
L 173.168727 185.316324 
L 173.167335 182.386162 
L 173.372875 179.456 
L 173.826358 176.259459 
L 174.512193 173.062919 
L 175.423583 169.866378 
L 176.64 166.448224 
L 178.016509 163.206919 
L 179.718562 159.744 
L 181.807749 156.014703 
L 184.149951 152.285405 
L 187.006847 148.177067 
L 190.166932 144.027676 
L 193.906916 139.499243 
L 198.167993 134.704432 
L 203.093333 129.512962 
L 208.582392 124.049297 
L 215.247568 117.744955 
L 222.405499 111.263135 
L 231.567058 103.271784 
L 242.927079 93.682162 
L 257.187062 81.961514 
L 275.061425 67.577081 
L 278.687955 64.689607 
L 278.687955 64.689607 
" clip-path="url(#pfe8bbecac9)" style="fill: none; stroke: #482576; stroke-width: 1.5"/>
    <path d="M 301.75043 46.552643 
L 301.757117 46.547445 
L 301.775454 46.533189 
L 302.114595 46.26965 
L 302.118249 46.266811 
L 302.461206 46.000432 
L 302.472072 45.991996 
L 302.804309 45.734054 
L 302.82955 45.714466 
L 303.147551 45.467676 
L 303.187027 45.437053 
L 303.490933 45.201297 
L 303.544505 45.159756 
L 303.834455 44.934919 
L 303.901982 44.882578 
L 304.17812 44.668541 
L 304.259459 44.60552 
L 304.521929 44.402162 
L 304.616937 44.328581 
L 304.865882 44.135784 
L 304.974414 44.051764 
L 305.209981 43.869405 
L 305.331892 43.775069 
L 305.554228 43.603027 
L 305.689369 43.498497 
L 305.898624 43.336649 
L 306.046847 43.22205 
L 306.243171 43.07027 
L 306.404324 42.945728 
L 306.587868 42.803892 
L 306.761802 42.669533 
L 306.93272 42.537514 
L 307.119279 42.393465 
L 307.277725 42.271135 
L 307.476757 42.117526 
L 307.622887 42.004757 
L 307.834234 41.841717 
L 307.968207 41.738378 
L 308.191712 41.566039 
L 308.313685 41.472 
" clip-path="url(#pfe8bbecac9)" style="fill: none; stroke: #482576; stroke-width: 1.5"/>
   </g>
   <g id="PathCollection_5">
    <path d="M 414.72 115.377372 
L 410.055189 123.782919 
L 405.19928 132.040649 
L 400.56686 139.499243 
L 395.684425 146.957838 
L 390.532761 154.416432 
L 385.487814 161.34227 
L 380.377872 168.00173 
L 374.988572 174.661189 
L 369.523798 181.05427 
L 364.235338 186.914595 
L 358.646779 192.774919 
L 353.233874 198.139451 
L 347.514234 203.488146 
L 341.794595 208.520561 
L 336.02671 213.286054 
L 330.355315 217.678601 
L 324.635676 221.822391 
L 318.916036 225.686076 
L 313.196396 229.276496 
L 307.476757 232.599108 
L 301.752055 235.661838 
L 296.037477 238.460945 
L 290.317838 241.008209 
L 284.598198 243.303865 
L 278.878559 245.350557 
L 273.158919 247.150168 
L 267.439279 248.703886 
L 262.077117 249.937644 
L 256.714955 250.955884 
L 251.352793 251.757922 
L 245.990631 252.342528 
L 240.580845 252.710054 
L 235.266306 252.850904 
L 229.904144 252.768351 
L 224.541982 252.455369 
L 219.220506 251.910919 
L 214.532613 251.232456 
L 209.527928 250.295438 
L 204.523243 249.1292 
L 199.518559 247.722347 
L 194.871351 246.187609 
L 190.224144 244.418 
L 185.576937 242.394564 
L 181.287207 240.28086 
L 177.259983 238.059243 
L 173.358143 235.661838 
L 169.466494 232.998054 
L 165.915676 230.292804 
L 162.506176 227.404108 
L 159.400511 224.473946 
L 156.611592 221.543784 
L 154.110392 218.613622 
L 151.683941 215.417081 
L 149.551332 212.220541 
L 147.684324 209.002643 
L 146.104598 205.827459 
L 144.767941 202.630919 
L 143.678634 199.434378 
L 142.831274 196.237838 
L 142.221953 193.041297 
L 141.847997 189.844757 
L 141.707559 186.648216 
L 141.799438 183.451676 
L 142.122781 180.255135 
L 142.67964 177.045613 
L 143.461029 173.862054 
L 144.474101 170.665514 
L 145.714564 167.468973 
L 147.180123 164.272432 
L 149.018166 160.809514 
L 151.111324 157.346595 
L 153.642803 153.617297 
L 156.45125 149.888 
L 159.752758 145.892324 
L 163.58705 141.63027 
L 167.986359 137.101838 
L 173.065225 132.221205 
L 178.784865 127.045387 
L 185.219459 121.512783 
L 192.814456 115.258811 
L 202.890312 107.267459 
L 216.391388 96.878703 
L 229.903177 86.660831 
L 229.903177 86.660831 
" clip-path="url(#pfe8bbecac9)" style="fill: none; stroke: #46307e; stroke-width: 1.5"/>
    <path d="M 253.499192 68.922219 
L 289.818376 41.472 
L 289.818376 41.472 
" clip-path="url(#pfe8bbecac9)" style="fill: none; stroke: #46307e; stroke-width: 1.5"/>
   </g>
   <g id="PathCollection_6">
    <path d="M 414.72 131.009593 
L 409.661592 139.499243 
L 404.472788 147.756973 
L 399.348468 155.501273 
L 393.981185 163.206919 
L 388.50844 170.665514 
L 383.159419 177.591351 
L 377.748965 184.250811 
L 372.18018 190.760836 
L 366.460541 197.100608 
L 360.683347 203.163676 
L 355.021261 208.787884 
L 349.092945 214.351568 
L 343.376948 219.412757 
L 337.634023 224.207568 
L 332.142703 228.528345 
L 326.423063 232.761582 
L 320.703423 236.729151 
L 314.952688 240.456649 
L 309.215747 243.919568 
L 303.508769 247.116108 
L 297.824865 250.058007 
L 292.105225 252.778755 
L 286.116454 255.373838 
L 280.665946 257.513222 
L 274.946306 259.532563 
L 269.226667 261.323258 
L 263.507027 262.887086 
L 257.787387 264.225417 
L 252.067748 265.339226 
L 246.348108 266.229081 
L 240.628468 266.894941 
L 234.908829 267.336355 
L 229.189189 267.552121 
L 223.46955 267.540624 
L 217.74991 267.299396 
L 212.03027 266.825173 
L 206.310631 266.113503 
L 200.948468 265.226164 
L 195.586306 264.119842 
L 190.224144 262.787894 
L 184.861982 261.221916 
L 179.49982 259.41143 
L 174.495135 257.489913 
L 169.49045 255.331298 
L 164.485766 252.919555 
L 159.61982 250.312649 
L 155.116402 247.648865 
L 150.613189 244.718703 
L 146.508317 241.788541 
L 142.420524 238.592 
L 138.689687 235.395459 
L 135.172613 232.09613 
L 131.906098 228.736 
L 128.738018 225.143942 
L 126.076449 221.810162 
L 123.580501 218.347243 
L 121.230991 214.693788 
L 119.365418 211.421405 
L 117.631438 207.958486 
L 116.140727 204.495568 
L 114.891327 201.032649 
L 113.883077 197.56973 
L 113.117222 194.106811 
L 112.627615 190.91027 
L 112.349624 187.71373 
L 112.28672 184.517189 
L 112.443072 181.320649 
L 112.823102 178.124108 
L 113.431569 174.927568 
L 114.273275 171.731027 
L 115.352773 168.534486 
L 116.674193 165.337946 
L 118.240906 162.141405 
L 120.055195 158.944865 
L 122.117943 155.748324 
L 124.631929 152.285405 
L 127.432697 148.822486 
L 130.525405 145.346651 
L 134.132199 141.63027 
L 138.337087 137.634595 
L 143.16676 133.372541 
L 148.756757 128.756122 
L 155.191351 123.741321 
L 162.698378 118.1706 
L 172.395314 111.263135 
L 185.056257 102.518259 
L 185.056257 102.518259 
" clip-path="url(#pfe8bbecac9)" style="fill: none; stroke: #443b84; stroke-width: 1.5"/>
    <path d="M 209.467978 85.920139 
L 229.978682 71.839135 
L 247.847968 59.319351 
L 265.343139 46.799568 
L 272.683908 41.472 
L 272.683908 41.472 
" clip-path="url(#pfe8bbecac9)" style="fill: none; stroke: #443b84; stroke-width: 1.5"/>
   </g>
   <g id="PathCollection_7">
    <path d="M 414.72 144.374058 
L 409.276043 153.084541 
L 403.845079 161.34227 
L 398.507286 169.067243 
L 393.097238 176.525838 
L 387.551712 183.806142 
L 381.832072 190.948066 
L 376.025788 197.836108 
L 370.353899 204.229189 
L 364.632662 210.355892 
L 358.866604 216.216216 
L 353.060429 221.810162 
L 347.219076 227.13773 
L 341.437117 232.123777 
L 335.36 237.065418 
L 329.282883 241.709427 
L 323.205766 246.063829 
L 317.128649 250.135699 
L 311.051532 253.931715 
L 304.974414 257.457798 
L 298.897297 260.719285 
L 292.82018 263.720973 
L 286.743063 266.46736 
L 280.665946 268.962397 
L 274.588829 271.209394 
L 268.480936 273.221189 
L 262.434595 274.971739 
L 256.357477 276.49199 
L 250.28036 277.774272 
L 244.203243 278.820005 
L 238.126126 279.630204 
L 232.049009 280.205457 
L 225.971892 280.545904 
L 219.894775 280.651201 
L 214.175135 280.534467 
L 208.455495 280.207273 
L 202.735856 279.66767 
L 197.016216 278.913173 
L 191.296577 277.940678 
L 185.576937 276.746163 
L 179.857297 275.32472 
L 174.137658 273.670186 
L 168.418018 271.775261 
L 163.019912 269.75827 
L 157.693694 267.541141 
L 152.331532 265.070418 
L 147.326847 262.536485 
L 142.093077 259.635892 
L 137.247722 256.70573 
L 132.312793 253.458954 
L 127.544601 250.04627 
L 123.018378 246.528445 
L 118.661377 242.854054 
L 114.585653 239.124757 
L 110.82665 235.395459 
L 107.12293 231.399784 
L 103.714595 227.383296 
L 100.635166 223.408432 
L 97.821238 219.412757 
L 95.28085 215.417081 
L 92.99027 211.387567 
L 91.00104 207.42573 
L 89.366464 203.696432 
L 87.964367 199.967135 
L 86.798245 196.237838 
L 85.873113 192.508541 
L 85.235918 189.045622 
L 84.819141 185.582703 
L 84.630846 182.119784 
L 84.667661 178.923243 
L 84.915007 175.726703 
L 85.381711 172.530162 
L 86.077348 169.333622 
L 87.012002 166.137081 
L 88.196144 162.940541 
L 89.50976 160.010378 
L 91.049786 157.080216 
L 92.823619 154.150054 
L 94.837799 151.219892 
L 97.315338 148.023351 
L 100.13982 144.77202 
L 103.161537 141.63027 
L 106.574414 138.392193 
L 110.506667 134.965879 
L 115.153874 131.229322 
L 120.516036 127.226531 
L 126.593153 122.977723 
L 133.841193 118.188973 
L 143.149363 112.328649 
L 155.342219 104.927357 
L 155.342219 104.927357 
" clip-path="url(#pfe8bbecac9)" style="fill: none; stroke: #404588; stroke-width: 1.5"/>
    <path d="M 180.536961 89.892078 
L 197.568578 79.564108 
L 212.117843 70.507243 
L 225.971892 61.639233 
L 240.270991 52.218675 
L 254.93985 42.271135 
L 256.100707 41.472 
L 256.100707 41.472 
" clip-path="url(#pfe8bbecac9)" style="fill: none; stroke: #404588; stroke-width: 1.5"/>
   </g>
   <g id="PathCollection_8">
    <path d="M 414.72 156.240709 
L 409.181986 164.805189 
L 403.761343 172.796541 
L 398.269475 180.521514 
L 392.507384 188.246486 
L 386.663156 195.705081 
L 380.964275 202.630919 
L 375.211042 209.290378 
L 369.32036 215.777381 
L 363.243243 222.131546 
L 357.116233 228.203243 
L 351.089009 233.859846 
L 345.011892 239.255887 
L 338.812288 244.452324 
L 332.742413 249.247135 
L 326.650641 253.775568 
L 320.543044 258.037622 
L 314.626306 261.907207 
L 308.549189 265.621624 
L 302.472072 269.078003 
L 296.394955 272.281324 
L 290.317838 275.23615 
L 284.077598 278.016 
L 278.163604 280.416683 
L 272.086486 282.649514 
L 265.921976 284.675459 
L 259.932252 286.416158 
L 253.855135 287.955157 
L 247.778018 289.267549 
L 241.700901 290.355126 
L 235.623784 291.219388 
L 229.475715 291.867676 
L 223.46955 292.282188 
L 217.392432 292.481934 
L 211.315315 292.460735 
L 205.238198 292.218163 
L 199.161081 291.753383 
L 193.083964 291.065101 
L 187.006847 290.15115 
L 180.92973 289.009198 
L 174.852613 287.635877 
L 168.775495 286.027027 
L 163.055856 284.293063 
L 157.162289 282.278054 
L 151.259099 280.020569 
L 145.539459 277.597175 
L 139.81982 274.932198 
L 134.365316 272.155676 
L 128.738018 269.038117 
L 123.29307 265.762595 
L 117.973444 262.299676 
L 112.672329 258.570378 
L 107.755347 254.841081 
L 102.99964 250.962443 
L 98.352432 246.885973 
L 94.062703 242.840769 
L 89.772973 238.486282 
L 85.840721 234.180308 
L 82.138171 229.801514 
L 78.607441 225.273081 
L 75.368043 220.744649 
L 72.411672 216.216216 
L 69.754234 211.724836 
L 67.599832 207.692108 
L 65.562184 203.430054 
L 63.773346 199.168 
L 62.327168 195.172324 
L 61.110964 191.176649 
L 60.133151 187.180973 
L 59.444946 183.451676 
L 58.98398 179.722378 
L 58.770204 176.259459 
L 58.77443 172.796541 
L 59.009777 169.333622 
L 59.445135 166.137081 
L 60.103259 162.940541 
L 60.99886 159.744 
L 62.041893 156.813838 
L 63.31964 153.865461 
L 64.820235 150.953514 
L 66.584162 148.023351 
L 68.617591 145.093189 
L 70.935001 142.163027 
L 73.549871 139.232865 
L 76.546306 136.233982 
L 79.763604 133.331105 
L 83.338378 130.395727 
L 87.532193 127.245838 
L 92.275315 123.970734 
L 97.637477 120.539832 
L 104.072072 116.698095 
L 111.579099 112.479025 
L 121.230991 107.318039 
L 122.527799 106.639696 
L 122.527799 106.639696 
" clip-path="url(#pfe8bbecac9)" style="fill: none; stroke: #3c4f8a; stroke-width: 1.5"/>
    <path d="M 148.556265 93.295205 
L 166.988108 83.733325 
L 181.287207 76.060835 
L 194.156396 68.905779 
L 206.668108 61.695189 
L 218.822342 54.437384 
L 231.334054 46.700806 
L 239.55485 41.472 
L 239.55485 41.472 
" clip-path="url(#pfe8bbecac9)" style="fill: none; stroke: #3c4f8a; stroke-width: 1.5"/>
   </g>
   <g id="PathCollection_9">
    <path d="M 400.929032 187.113678 
L 395.130065 194.905946 
L 389.52291 202.098162 
L 383.619459 209.323773 
L 377.47467 216.482595 
L 371.464798 223.142054 
L 365.388108 229.544269 
L 359.273945 235.661838 
L 353.098132 241.522162 
L 347.156757 246.867321 
L 340.920745 252.177297 
L 334.962372 256.972108 
L 328.925405 261.559246 
L 322.673952 266.028973 
L 316.72406 270.024649 
L 310.694054 273.822334 
L 304.467511 277.483243 
L 298.53982 280.727597 
L 292.334794 283.876324 
L 286.063373 286.806486 
L 280.308468 289.275593 
L 274.231351 291.658198 
L 268.154234 293.813127 
L 262.077117 295.743393 
L 255.962403 297.461622 
L 249.565405 299.021356 
L 243.488288 300.280083 
L 237.411171 301.323509 
L 231.334054 302.153224 
L 225.033541 302.789189 
L 219.17982 303.176554 
L 213.102703 303.372004 
L 207.025586 303.3573 
L 200.948468 303.132532 
L 194.871351 302.697512 
L 188.794234 302.051616 
L 182.698911 301.190919 
L 176.282523 300.052791 
L 170.205405 298.753373 
L 163.977322 297.195243 
L 158.051171 295.496771 
L 151.779958 293.465946 
L 145.888713 291.334919 
L 139.81982 288.90762 
L 133.742703 286.234352 
L 127.665586 283.309935 
L 121.588468 280.124397 
L 115.868829 276.876926 
L 110.149189 273.375507 
L 104.653218 269.75827 
L 99.067387 265.811681 
L 93.705225 261.748274 
L 88.476081 257.504865 
L 83.563517 253.242811 
L 78.680178 248.714378 
L 74.043964 244.114752 
L 69.595806 239.391135 
L 65.383262 234.596324 
L 61.45843 229.801514 
L 57.808133 225.006703 
L 57.6 224.722375 
L 57.6 224.722375 
" clip-path="url(#pfe8bbecac9)" style="fill: none; stroke: #38598c; stroke-width: 1.5"/>
    <path d="M 57.6 123.753086 
L 61.248179 121.119135 
L 65.464505 118.351894 
L 70.178182 115.525189 
L 75.831351 112.413053 
L 81.908468 109.314296 
L 89.553196 105.669189 
L 91.374543 104.831532 
L 91.374543 104.831532 
" clip-path="url(#pfe8bbecac9)" style="fill: none; stroke: #38598c; stroke-width: 1.5"/>
    <path d="M 118.269576 93.107785 
L 139.104865 84.096201 
L 153.761441 77.495955 
L 166.630631 71.436591 
L 178.427387 65.629374 
L 189.866667 59.747802 
L 201.305946 53.608643 
L 212.745225 47.206635 
L 222.613647 41.472 
L 222.613647 41.472 
" clip-path="url(#pfe8bbecac9)" style="fill: none; stroke: #38598c; stroke-width: 1.5"/>
   </g>
   <g id="PathCollection_10">
    <path d="M 160.146688 307.584 
L 153.761441 305.833267 
L 147.326847 303.833135 
L 140.892252 301.592035 
L 134.457658 299.1053 
L 128.380541 296.525774 
L 122.303423 293.716107 
L 115.970855 290.535784 
L 110.082176 287.339243 
L 104.072072 283.829672 
L 97.994955 280.015797 
L 92.247667 276.151351 
L 86.32169 271.889297 
L 80.773057 267.627243 
L 75.242258 263.098811 
L 71.440969 259.812864 
L 71.440969 259.812864 
" clip-path="url(#pfe8bbecac9)" style="fill: none; stroke: #33628d; stroke-width: 1.5"/>
    <path d="M 414.72 176.971991 
L 414.66249 177.058595 
L 414.485578 177.324973 
L 414.362523 177.510331 
L 414.308566 177.591351 
L 414.131145 177.85773 
L 414.005045 178.047133 
L 413.953637 178.124108 
L 413.775706 178.390486 
L 413.647568 178.582404 
L 413.597696 178.656865 
L 413.419256 178.923243 
L 413.29009 179.116148 
L 413.240739 179.189622 
L 413.061789 179.456 
L 412.932613 179.648371 
L 412.882762 179.722378 
L 412.703301 179.988757 
L 412.575135 180.179079 
L 412.523757 180.255135 
L 412.343786 180.521514 
L 412.217658 180.708276 
L 412.163722 180.787892 
L 411.983239 181.05427 
L 411.86018 181.235968 
L 411.802649 181.320649 
L 411.621656 181.587027 
L 411.502703 181.762161 
L 411.440535 181.853405 
L 411.25903 182.119784 
L 411.145225 182.28686 
L 411.077373 182.386162 
L 410.895357 182.652541 
L 410.787748 182.81007 
L 410.71316 182.918919 
L 410.530632 183.185297 
L 410.43027 183.331796 
L 410.347888 183.451676 
L 410.164848 183.718054 
L 410.072793 183.852045 
L 409.981554 183.984432 
L 409.798002 184.250811 
L 409.715315 184.37082 
L 409.614152 184.517189 
L 409.430087 184.783568 
L 409.357838 184.888129 
L 409.245677 185.049946 
L 409.061099 185.316324 
L 409.00036 185.403975 
L 408.876122 185.582703 
L 408.691032 185.849081 
L 408.642883 185.918365 
L 408.505484 186.115459 
L 408.31988 186.381838 
L 408.285405 186.431304 
L 408.133757 186.648216 
L 407.947639 186.914595 
L 407.927928 186.942796 
L 407.760935 187.180973 
L 407.574304 187.447351 
L 407.57045 187.452849 
L 407.387013 187.71373 
L 407.212973 187.961431 
L 407.199809 187.980108 
L 407.011986 188.246486 
L 406.855495 188.46857 
L 406.824186 188.512865 
L 406.635848 188.779243 
L 406.498018 188.974283 
L 406.447448 189.045622 
L 406.258593 189.312 
L 406.140541 189.478574 
L 406.069587 189.578378 
L 405.880217 189.844757 
L 405.783063 189.981449 
L 405.6906 190.111135 
L 405.500715 190.377514 
L 405.425586 190.482913 
L 405.310481 190.643892 
L 405.120079 190.91027 
L 405.068108 190.982971 
L 404.929224 191.176649 
L 404.738306 191.443027 
L 404.710631 191.48163 
L 404.546824 191.709405 
L 404.355389 191.975784 
L 404.353153 191.978893 
L 404.163274 192.242162 
L 403.995676 192.474705 
L 403.971213 192.508541 
L 403.778571 192.774919 
L 403.638198 192.969124 
L 403.585868 193.041297 
L 403.392707 193.307676 
L 403.280721 193.462162 
L 403.199357 193.574054 
L 403.005679 193.840432 
L 402.976832 193.880111 
" clip-path="url(#pfe8bbecac9)" style="fill: none; stroke: #33628d; stroke-width: 1.5"/>
    <path d="M 384.982679 216.933012 
L 378.96365 223.941189 
L 372.716109 230.867027 
L 366.654826 237.260108 
L 360.548417 243.386811 
L 354.400419 249.247135 
L 348.516656 254.574703 
L 342.313599 259.90227 
L 336.41957 264.697081 
L 330.1853 269.491892 
L 323.920721 274.030981 
L 317.486126 278.408435 
L 311.051532 282.504093 
L 304.616937 286.323955 
L 298.182342 289.873691 
L 291.747748 293.1586 
L 285.313153 296.18344 
L 278.878559 298.952712 
L 272.443964 301.470624 
L 266.009369 303.740826 
L 259.574775 305.766969 
L 253.14018 307.552152 
L 253.016696 307.584 
L 253.016696 307.584 
" clip-path="url(#pfe8bbecac9)" style="fill: none; stroke: #33628d; stroke-width: 1.5"/>
    <path d="M 57.6 101.987395 
L 64.048533 99.276108 
L 72.256577 96.075493 
L 83.168143 92.083892 
L 130.882883 74.963598 
L 143.037117 70.210714 
L 154.118919 65.645567 
L 165.200721 60.836621 
L 173.814563 56.920196 
L 173.814563 56.920196 
" clip-path="url(#pfe8bbecac9)" style="fill: none; stroke: #33628d; stroke-width: 1.5"/>
    <path d="M 200.04673 43.98661 
L 200.233514 43.88901 
L 200.270943 43.869405 
L 200.590991 43.702 
L 200.779726 43.603027 
L 200.948468 43.514656 
L 201.287503 43.336649 
L 201.305946 43.326978 
L 201.663423 43.139103 
L 201.794068 43.07027 
L 202.020901 42.950914 
L 202.299608 42.803892 
L 202.378378 42.762393 
L 202.735856 42.573611 
L 202.804049 42.537514 
L 203.093333 42.384579 
L 203.307381 42.271135 
L 203.450811 42.195216 
L 203.808288 42.005524 
L 203.80973 42.004757 
L 204.165766 41.81565 
L 204.310882 41.738378 
L 204.523243 41.625445 
L 204.811065 41.472 
" clip-path="url(#pfe8bbecac9)" style="fill: none; stroke: #33628d; stroke-width: 1.5"/>
   </g>
   <g id="PathCollection_11">
    <path d="M 127.275461 307.584 
L 120.873514 304.834438 
L 114.438919 301.826472 
L 108.004324 298.56681 
L 101.927207 295.249928 
L 95.697628 291.601297 
L 89.746777 287.872 
L 87.657394 286.504153 
L 87.657394 286.504153 
" clip-path="url(#pfe8bbecac9)" style="fill: none; stroke: #2f6b8e; stroke-width: 1.5"/>
    <path d="M 64.1483 268.828562 
L 64.034595 268.732076 
L 63.988339 268.692757 
L 63.677117 268.427736 
L 63.675526 268.426378 
L 63.363847 268.16 
L 63.31964 268.12215 
L 63.053184 267.893622 
L 62.962162 267.815416 
L 62.743525 267.627243 
L 62.604685 267.507534 
L 62.434864 267.360865 
L 62.247207 267.198501 
L 62.127193 267.094486 
L 61.88973 266.888313 
L 61.820506 266.828108 
L 61.532252 266.576965 
L 61.514795 266.56173 
L 61.210148 266.295351 
L 61.174775 266.264365 
L 60.906513 266.028973 
L 60.817297 265.95055 
L 60.603836 265.762595 
L 60.45982 265.63556 
L 60.302112 265.496216 
L 60.102342 265.319394 
L 60.001333 265.229838 
L 59.744865 265.002046 
L 59.701493 264.963459 
L 59.402626 264.697081 
L 59.387387 264.683472 
L 59.104803 264.430703 
L 59.02991 264.363592 
L 58.807902 264.164324 
L 58.672432 264.042515 
L 58.511916 263.897946 
L 58.314955 263.720238 
L 58.21684 263.631568 
L 57.957477 263.396757 
L 57.922667 263.365189 
L 57.629468 263.098811 
L 57.6 263.071987 
" clip-path="url(#pfe8bbecac9)" style="fill: none; stroke: #2f6b8e; stroke-width: 1.5"/>
    <path d="M 414.72 186.256319 
L 408.642883 195.047993 
L 402.565766 203.440363 
L 396.305652 211.687784 
L 391.092309 218.261913 
L 391.092309 218.261913 
" clip-path="url(#pfe8bbecac9)" style="fill: none; stroke: #2f6b8e; stroke-width: 1.5"/>
    <path d="M 371.76784 240.449556 
L 365.601974 246.84973 
L 359.39845 252.976432 
L 353.233874 258.763517 
L 346.799279 264.493092 
L 340.364685 269.914004 
L 333.863712 275.085838 
L 327.470636 279.880649 
L 321.05489 284.409081 
L 314.621997 288.671135 
L 308.178474 292.666811 
L 301.732153 296.396108 
L 295.292638 299.859027 
L 288.871965 303.055568 
L 282.453333 305.999849 
L 278.754492 307.584 
L 278.754492 307.584 
" clip-path="url(#pfe8bbecac9)" style="fill: none; stroke: #2f6b8e; stroke-width: 1.5"/>
    <path d="M 57.6 85.403441 
L 57.957477 85.296731 
L 58.314955 85.190155 
L 58.422669 85.158054 
L 58.672432 85.08393 
L 59.02991 84.977925 
L 59.321027 84.891676 
L 59.387387 84.872096 
L 59.744865 84.766636 
L 60.102342 84.661285 
L 60.22448 84.625297 
L 60.45982 84.55624 
L 60.817297 84.451399 
L 61.132867 84.358919 
L 61.174775 84.346687 
L 61.532252 84.242334 
L 61.88973 84.138064 
L 62.045821 84.092541 
L 62.247207 84.034043 
L 62.604685 83.930228 
L 62.915379 83.840059 
" clip-path="url(#pfe8bbecac9)" style="fill: none; stroke: #2f6b8e; stroke-width: 1.5"/>
    <path d="M 91.238896 75.84641 
L 106.931892 71.253963 
L 119.086126 67.469144 
L 130.525405 63.673135 
L 141.324655 59.852108 
L 151.616577 55.977767 
L 161.983423 51.832302 
L 171.992793 47.590224 
L 182.083045 43.07027 
L 185.524916 41.472 
L 185.524916 41.472 
" clip-path="url(#pfe8bbecac9)" style="fill: none; stroke: #2f6b8e; stroke-width: 1.5"/>
   </g>
   <g id="PathCollection_12">
    <path d="M 81.841795 294.877349 
L 75.775523 290.802162 
L 69.440441 286.27373 
L 63.478421 281.745297 
L 57.6 277.01386 
L 57.6 277.01386 
" clip-path="url(#pfe8bbecac9)" style="fill: none; stroke: #2c738e; stroke-width: 1.5"/>
    <path d="M 414.72 194.993435 
L 408.613733 203.696432 
L 402.351901 212.220541 
L 396.414424 219.945514 
L 390.202216 227.670486 
L 384.146614 234.862703 
L 378.041213 241.788541 
L 373.812056 246.400317 
L 373.812056 246.400317 
" clip-path="url(#pfe8bbecac9)" style="fill: none; stroke: #2c738e; stroke-width: 1.5"/>
    <path d="M 352.962715 267.031591 
L 346.799279 272.493432 
L 340.364685 277.900372 
L 333.847618 283.077189 
L 327.452023 287.872 
L 321.041982 292.400432 
L 314.624275 296.662486 
L 308.191712 300.66732 
L 301.757117 304.41138 
L 295.922442 307.584 
L 295.922442 307.584 
" clip-path="url(#pfe8bbecac9)" style="fill: none; stroke: #2c738e; stroke-width: 1.5"/>
    <path d="M 57.6 71.461597 
L 57.957477 71.384017 
L 58.314955 71.306426 
L 58.315173 71.306378 
L 58.672432 71.22902 
L 59.02991 71.151595 
L 59.387387 71.074148 
L 59.544867 71.04 
L 59.744865 70.996788 
L 60.102342 70.919485 
L 60.45982 70.842151 
L 60.776416 70.773622 
L 60.817297 70.764804 
L 61.174775 70.687593 
L 61.532252 70.610339 
L 61.88973 70.533041 
L 62.008881 70.507243 
L 62.247207 70.455824 
L 62.604685 70.378621 
L 62.962162 70.301364 
L 63.241827 70.240865 
L 63.31964 70.224091 
L 63.677117 70.146909 
L 64.034595 70.069663 
L 64.392072 69.992349 
L 64.474531 69.974486 
L 64.74955 69.915115 
L 65.107027 69.837852 
L 65.464505 69.760513 
L 65.706409 69.708108 
L 65.821982 69.683156 
L 66.179459 69.605849 
L 66.536937 69.528456 
L 66.894414 69.450976 
L 66.93699 69.44173 
L 67.251892 69.373574 
L 67.609369 69.296101 
L 67.966847 69.218532 
L 68.165512 69.175351 
L 68.324324 69.140948 
L 68.681802 69.063369 
L 69.039279 68.985686 
L 69.391798 68.908973 
L 69.396757 68.907897 
L 69.754234 68.830187 
L 70.111712 68.752364 
L 70.469189 68.674426 
L 70.614894 68.642595 
L 70.826667 68.596482 
L 71.184144 68.518495 
L 71.541622 68.440384 
L 71.834777 68.376216 
L 71.899099 68.362182 
L 72.256577 68.284008 
L 72.614054 68.205702 
L 72.971532 68.127263 
L 73.050759 68.109838 
L 73.329009 68.048836 
L 73.686486 67.970312 
L 74.043964 67.891647 
L 74.262479 67.843459 
L 74.401441 67.812912 
L 74.758919 67.734148 
L 75.116396 67.655235 
L 75.469761 67.577081 
L 75.473874 67.576174 
L 75.831351 67.497147 
L 76.188829 67.417965 
L 76.546306 67.338625 
L 76.671801 67.310703 
L 76.903784 67.259248 
L 77.261261 67.179775 
L 77.618739 67.100137 
L 77.868696 67.044324 
L 77.976216 67.02039 
L 78.333694 66.940606 
L 78.691171 66.860651 
L 79.048649 66.780522 
L 79.060107 66.777946 
L 79.406126 66.7004 
L 79.763604 66.620107 
L 80.121081 66.539634 
L 80.245419 66.511568 
L 80.478559 66.459101 
L 80.836036 66.378451 
L 81.193514 66.297614 
L 81.424751 66.245189 
L 81.550991 66.216655 
L 81.908468 66.135628 
L 82.265946 66.054408 
L 82.597867 65.978811 
L 82.623423 65.973008 
L 82.980901 65.891586 
L 83.338378 65.809965 
L 83.695856 65.728144 
L 83.764293 65.712432 
L 84.053333 65.646272 
L 84.410811 65.564233 
L 84.768288 65.481986 
L 84.924016 65.446054 
L 85.125766 65.399638 
L 85.483243 65.317162 
L 85.840721 65.234473 
L 86.076959 65.179676 
L 86.198198 65.151634 
L 86.555676 65.068705 
L 86.913153 64.985556 
L 87.22297 64.913297 
L 87.270631 64.902213 
L 87.628108 64.818813 
L 87.985586 64.735189 
L 88.343063 64.651338 
L 88.361843 64.646919 
L 88.394434 64.639271 
" clip-path="url(#pfe8bbecac9)" style="fill: none; stroke: #2c738e; stroke-width: 1.5"/>
    <path d="M 116.804713 57.322402 
L 126.950631 54.331897 
L 137.317477 51.038713 
L 146.969369 47.744694 
L 156.84975 44.135784 
L 163.744892 41.472 
L 163.744892 41.472 
" clip-path="url(#pfe8bbecac9)" style="fill: none; stroke: #2c738e; stroke-width: 1.5"/>
   </g>
   <g id="PathCollection_13">
    <path d="M 84.438195 307.584 
L 84.410811 307.567669 
L 84.053333 307.353958 
L 83.9927 307.317622 
L 83.695856 307.139458 
L 83.549225 307.051243 
L 83.338378 306.924201 
L 83.107668 306.784865 
L 82.980901 306.708187 
L 82.668012 306.518486 
L 82.623423 306.491412 
L 82.265946 306.273828 
L 82.230348 306.252108 
L 81.908468 306.055422 
L 81.794679 305.98573 
L 81.550991 305.836251 
L 81.360854 305.719351 
L 81.193514 305.616311 
L 80.928856 305.452973 
L 80.836036 305.395601 
L 80.498669 305.186595 
L 80.478559 305.174117 
L 80.121081 304.951791 
L 80.070429 304.920216 
L 79.763604 304.728663 
L 79.644023 304.653838 
L 79.406126 304.504756 
L 79.219374 304.387459 
L 79.048649 304.280068 
L 78.796467 304.121081 
L 78.691171 304.054598 
L 78.375287 303.854703 
L 78.333694 303.828342 
L 77.976216 303.601272 
L 77.95588 303.588324 
L 77.618739 303.373356 
L 77.53829 303.321946 
L 77.261261 303.14465 
L 77.122376 303.055568 
L 76.903784 302.915151 
L 76.735745 302.80697 
" clip-path="url(#pfe8bbecac9)" style="fill: none; stroke: #297b8e; stroke-width: 1.5"/>
    <path d="M 414.72 203.269992 
L 408.3532 212.220541 
L 402.409729 220.211892 
L 396.198807 228.203243 
L 390.054054 235.76173 
L 383.561005 243.386811 
L 377.136304 250.579027 
L 370.641906 257.504865 
L 364.315676 263.92944 
L 357.728694 270.291027 
L 354.978512 272.850728 
L 354.978512 272.850728 
" clip-path="url(#pfe8bbecac9)" style="fill: none; stroke: #297b8e; stroke-width: 1.5"/>
    <path d="M 332.52223 291.716916 
L 332.50018 291.733744 
L 332.324127 291.867676 
L 332.142703 292.005695 
L 331.973438 292.134054 
L 331.785225 292.276784 
L 331.621654 292.400432 
L 331.427748 292.547013 
L 331.268765 292.666811 
L 331.07027 292.816383 
L 330.914762 292.933189 
L 330.712793 293.084894 
L 330.559635 293.199568 
L 330.355315 293.352548 
L 330.203376 293.465946 
L 329.997838 293.619346 
L 329.845974 293.732324 
L 329.64036 293.885289 
L 329.487421 293.998703 
L 329.282883 294.150378 
L 329.127706 294.265081 
L 328.925405 294.414615 
L 328.766819 294.531459 
L 328.567928 294.677999 
L 328.404752 294.797838 
L 328.21045 294.940533 
L 328.041493 295.064216 
L 327.852973 295.202218 
L 327.677034 295.330595 
L 327.495495 295.463054 
L 327.311363 295.596973 
L 327.138018 295.723044 
L 326.944471 295.863351 
L 326.780541 295.982187 
L 326.576348 296.12973 
L 326.423063 296.240485 
L 326.206983 296.396108 
L 326.065586 296.49794 
L 325.836365 296.662486 
L 325.708108 296.754553 
L 325.464484 296.928865 
L 325.350631 297.010324 
L 325.09133 297.195243 
L 324.993153 297.265255 
L 324.716891 297.461622 
L 324.635676 297.519347 
L 324.341157 297.728 
L 324.278198 297.772602 
L 323.964118 297.994378 
L 323.920721 298.02502 
L 323.585761 298.260757 
L 323.563243 298.276603 
L 323.206075 298.527135 
L 323.205766 298.527352 
L 322.848288 298.777244 
L 322.824938 298.793514 
L 322.490811 299.026303 
L 322.442442 299.059892 
L 322.133333 299.274531 
L 322.058577 299.32627 
L 321.775856 299.521929 
L 321.67333 299.592649 
L 321.418378 299.768497 
L 321.286692 299.859027 
L 321.060901 300.014238 
L 320.898648 300.125405 
L 320.703423 300.259153 
L 320.509188 300.391784 
L 320.345946 300.503243 
L 320.1183 300.658162 
L 319.988468 300.746509 
L 319.72597 300.924541 
L 319.630991 300.988952 
L 319.332188 301.190919 
L 319.273514 301.230575 
L 318.93694 301.457297 
L 318.916036 301.471377 
L 318.558559 301.711343 
L 318.540124 301.723676 
L 318.201081 301.95047 
L 318.141707 301.990054 
L 317.843604 302.188779 
L 317.741779 302.256432 
L 317.486126 302.426273 
L 317.340326 302.522811 
L 317.128649 302.662953 
L 316.937336 302.789189 
L 316.771171 302.89882 
L 316.532794 303.055568 
L 316.413694 303.133875 
L 316.126688 303.321946 
L 316.056216 303.36812 
L 315.719005 303.588324 
L 315.698739 303.601557 
L 315.341261 303.834155 
L 315.309573 303.854703 
L 314.983784 304.065927 
L 314.898427 304.121081 
L 314.626306 304.296893 
L 314.485652 304.387459 
L 314.268829 304.527054 
L 314.071236 304.653838 
L 313.911351 304.756413 
L 313.655162 304.920216 
L 313.553874 304.98497 
L 313.237418 305.186595 
L 313.196396 305.212727 
L 312.838919 305.439666 
L 312.817883 305.452973 
L 312.481441 305.665768 
L 312.396433 305.719351 
L 312.123964 305.891072 
L 311.973257 305.98573 
L 311.766486 306.115582 
L 311.548342 306.252108 
L 311.409009 306.339297 
L 311.121671 306.518486 
L 311.051532 306.56222 
L 310.694054 306.784351 
L 310.693224 306.784865 
L 310.336577 307.005627 
L 310.262627 307.051243 
L 309.979099 307.226113 
L 309.830216 307.317622 
L 309.621622 307.445811 
L 309.395977 307.584 
" clip-path="url(#pfe8bbecac9)" style="fill: none; stroke: #297b8e; stroke-width: 1.5"/>
    <path d="M 57.6 59.197094 
L 74.297606 56.389189 
L 86.198198 54.179544 
L 97.498634 51.860757 
L 107.646847 49.564407 
L 114.285491 47.941682 
L 114.285491 47.941682 
" clip-path="url(#pfe8bbecac9)" style="fill: none; stroke: #297b8e; stroke-width: 1.5"/>
   </g>
   <g id="PathCollection_14">
    <path d="M 67.953786 307.584 
L 67.609369 307.354439 
L 67.55425 307.317622 
L 67.251892 307.115396 
L 67.156179 307.051243 
L 66.894414 306.875564 
L 66.759559 306.784865 
L 66.536937 306.634941 
L 66.364381 306.518486 
L 66.179459 306.393524 
L 65.970632 306.252108 
L 65.821982 306.151312 
L 65.578302 305.98573 
L 65.464505 305.908303 
L 65.187378 305.719351 
L 65.107027 305.664495 
L 64.797851 305.452973 
L 64.74955 305.419885 
L 64.409709 305.186595 
L 64.392072 305.174471 
L 64.034595 304.928236 
L 64.022976 304.920216 
L 63.677117 304.68117 
L 63.637655 304.653838 
L 63.31964 304.433296 
L 63.253682 304.387459 
L 62.962162 304.184612 
L 62.871049 304.121081 
L 62.604685 303.935116 
L 62.489744 303.854703 
L 62.247207 303.684806 
L 62.109758 303.588324 
L 61.88973 303.43368 
L 61.731081 303.321946 
L 61.532252 303.181736 
L 61.353702 303.055568 
L 61.174775 302.928972 
L 60.977612 302.789189 
L 60.817297 302.675386 
L 60.602801 302.522811 
L 60.45982 302.420976 
L 60.22926 302.256432 
L 60.102342 302.165741 
L 59.856978 301.990054 
L 59.744865 301.909677 
L 59.485947 301.723676 
L 59.387387 301.652783 
L 59.116158 301.457297 
L 59.02991 301.395057 
L 58.7476 301.190919 
L 58.672432 301.136497 
L 58.380265 300.924541 
L 58.314955 300.877101 
L 58.014144 300.658162 
L 57.957477 300.616867 
L 57.649228 300.391784 
L 57.6 300.355792 
" clip-path="url(#pfe8bbecac9)" style="fill: none; stroke: #25838e; stroke-width: 1.5"/>
    <path d="M 414.72 211.152011 
L 408.39546 219.945514 
L 402.208288 228.175889 
L 395.773694 236.360246 
L 389.331605 244.185946 
L 382.900188 251.644541 
L 376.398979 258.836757 
L 370.035315 265.549935 
L 363.46112 272.155676 
L 357.052657 278.282378 
L 350.606149 284.142703 
L 344.124879 289.736649 
L 337.862342 294.865252 
L 334.397283 297.588274 
L 334.397283 297.588274 
" clip-path="url(#pfe8bbecac9)" style="fill: none; stroke: #25838e; stroke-width: 1.5"/>
    <path d="M 76.73733 45.568284 
L 76.903784 45.543581 
L 77.261261 45.49028 
L 77.412104 45.467676 
L 77.618739 45.436791 
L 77.976216 45.383096 
L 78.333694 45.329149 
L 78.691171 45.274948 
L 79.048649 45.220492 
L 79.174012 45.201297 
L 79.406126 45.165849 
L 79.763604 45.110987 
L 80.121081 45.055865 
L 80.478559 45.000482 
L 80.836036 44.944838 
L 80.899429 44.934919 
L 81.193514 44.88902 
L 81.550991 44.832958 
L 81.908468 44.776629 
L 82.265946 44.720033 
L 82.589638 44.668541 
L 82.623423 44.663179 
L 82.980901 44.606156 
L 83.338378 44.548862 
L 83.695856 44.491296 
L 84.053333 44.433455 
L 84.245775 44.402162 
L 84.410811 44.375392 
L 84.768288 44.317113 
L 85.125766 44.258557 
L 85.483243 44.199722 
L 85.840721 44.140607 
L 85.869734 44.135784 
L 86.198198 44.081316 
L 86.555676 44.021751 
L 86.913153 43.961903 
L 87.270631 43.90177 
L 87.462075 43.869405 
L 87.628108 43.841405 
L 87.985586 43.780814 
L 88.343063 43.719935 
L 88.700541 43.658766 
L 89.024729 43.603027 
L 89.058018 43.597317 
L 89.415495 43.535683 
L 89.772973 43.473756 
L 90.13045 43.411533 
L 90.487928 43.349015 
L 90.558279 43.336649 
L 90.845405 43.286296 
L 91.202883 43.223303 
L 91.56036 43.160011 
L 91.917838 43.096418 
L 92.064087 43.07027 
L 92.275315 43.032595 
L 92.632793 42.968519 
L 92.99027 42.904139 
L 93.347748 42.839454 
L 93.543318 42.803892 
L 93.705225 42.774519 
L 94.062703 42.709345 
L 94.42018 42.643861 
L 94.777658 42.578069 
L 94.996939 42.537514 
L 95.135135 42.512014 
L 95.492613 42.445724 
L 95.85009 42.379121 
L 96.207568 42.312204 
L 96.425903 42.271135 
L 96.565045 42.245022 
L 96.922523 42.177601 
L 97.28 42.109863 
L 97.637477 42.041807 
L 97.831146 42.004757 
L 97.994955 41.97349 
L 98.352432 41.904923 
L 98.70991 41.836034 
L 99.067387 41.766822 
L 99.213586 41.738378 
L 99.424865 41.697364 
L 99.782342 41.627635 
L 100.13982 41.55758 
L 100.497297 41.487199 
L 100.574115 41.472 
" clip-path="url(#pfe8bbecac9)" style="fill: none; stroke: #25838e; stroke-width: 1.5"/>
   </g>
   <g id="PathCollection_15">
    <path d="M 404.12957 233.058734 
L 397.918559 241.006348 
L 391.402532 248.980757 
L 385.024248 256.439351 
L 378.585545 263.631568 
L 372.087786 270.557405 
L 365.532327 277.216865 
L 359.202534 283.343568 
L 352.84641 289.203892 
L 346.441802 294.820601 
L 339.744937 300.391784 
L 333.321294 305.452973 
L 330.508019 307.584 
L 330.508019 307.584 
" clip-path="url(#pfe8bbecac9)" style="fill: none; stroke: #228c8d; stroke-width: 1.5"/>
   </g>
   <g id="PathCollection_16">
    <path d="M 414.72 225.928088 
L 414.616472 226.072216 
L 414.425182 226.338595 
L 414.362523 226.425853 
L 414.233542 226.604973 
L 414.041807 226.871351 
L 414.005045 226.922418 
L 413.84962 227.13773 
L 413.657439 227.404108 
L 413.647568 227.417787 
L 413.464702 227.670486 
L 413.29009 227.911927 
L 413.272005 227.936865 
L 413.078782 228.203243 
L 412.932613 228.404856 
L 412.885527 228.469622 
L 412.691858 228.736 
L 412.575135 228.896597 
L 412.49804 229.002378 
L 412.303923 229.268757 
L 412.217658 229.387154 
L 412.109539 229.535135 
L 411.914973 229.801514 
L 411.86018 229.87653 
L 411.720019 230.067892 
L 411.525005 230.33427 
L 411.502703 230.364728 
L 411.329476 230.600649 
L 411.145225 230.851731 
L 411.133969 230.867027 
L 410.937905 231.133405 
L 410.787748 231.337519 
L 410.741816 231.399784 
L 410.545301 231.666162 
L 410.43027 231.822138 
L 410.348625 231.932541 
L 410.15166 232.198919 
L 410.072793 232.305593 
L 409.954393 232.465297 
L 409.756977 232.731676 
L 409.715315 232.787886 
L 409.559115 232.998054 
L 409.361248 233.264432 
L 409.357838 233.269021 
L 409.162786 233.530811 
L 409.00036 233.748935 
L 408.964328 233.797189 
L 408.765401 234.063568 
L 408.642883 234.227689 
L 408.566336 234.329946 
L 408.366956 234.596324 
L 408.285405 234.705294 
L 408.167279 234.862703 
L 407.967446 235.129081 
L 407.927928 235.181754 
L 407.767153 235.395459 
L 407.57045 235.657066 
L 407.566852 235.661838 
L 407.365952 235.928216 
L 407.212973 236.131164 
L 407.165027 236.194595 
L 406.963673 236.460973 
L 406.855495 236.604125 
L 406.762119 236.727351 
L 406.560309 236.99373 
L 406.498018 237.075954 
L 406.358122 237.260108 
L 406.155857 237.526486 
L 406.140541 237.546654 
L 405.953033 237.792865 
L 405.783063 238.016168 
L 405.750185 238.059243 
L 405.546845 238.325622 
L 405.425586 238.484531 
L 405.343352 238.592 
L 405.139554 238.858378 
L 405.068108 238.951773 
L 404.935411 239.124757 
L 404.731156 239.391135 
L 404.710631 239.417899 
L 404.526357 239.657514 
L 404.353153 239.882855 
L 404.321524 239.923892 
L 404.116187 240.19027 
L 403.995676 240.346663 
L 403.910689 240.456649 
L 403.704894 240.723027 
L 403.638198 240.809363 
L 403.498729 240.989405 
L 403.292474 241.255784 
L 403.280721 241.27096 
L 403.085636 241.522162 
L 402.923243 241.731378 
L 402.878751 241.788541 
L 402.671407 242.054919 
L 402.565766 242.190676 
L 402.46384 242.321297 
L 402.415757 242.382933 
" clip-path="url(#pfe8bbecac9)" style="fill: none; stroke: #1f948c; stroke-width: 1.5"/>
    <path d="M 383.718164 264.870097 
L 377.342096 271.889297 
L 371.011193 278.548757 
L 364.645865 284.941838 
L 357.96433 291.334919 
L 351.526824 297.195243 
L 345.065768 302.789189 
L 339.249505 307.584 
L 339.249505 307.584 
" clip-path="url(#pfe8bbecac9)" style="fill: none; stroke: #1f948c; stroke-width: 1.5"/>
   </g>
   <g id="PathCollection_17">
    <path d="M 414.72 232.897052 
L 408.14626 241.788541 
L 401.770267 250.04627 
L 395.327019 258.037622 
L 388.817527 265.762595 
L 382.482797 272.954811 
L 381.586246 273.947321 
L 381.586246 273.947321 
" clip-path="url(#pfe8bbecac9)" style="fill: none; stroke: #1e9d89; stroke-width: 1.5"/>
    <path d="M 361.056702 295.025037 
L 361.015505 295.064216 
L 360.740901 295.325424 
L 360.73545 295.330595 
L 360.454591 295.596973 
L 360.383423 295.664483 
L 360.173189 295.863351 
L 360.025946 296.002661 
L 359.89126 296.12973 
L 359.668468 296.339964 
L 359.608802 296.396108 
L 359.325749 296.662486 
L 359.310991 296.676374 
L 359.04192 296.928865 
L 358.953514 297.01184 
L 358.757549 297.195243 
L 358.596036 297.346433 
L 358.472632 297.461622 
L 358.238559 297.680154 
L 358.187164 297.728 
L 357.90106 297.994378 
L 357.881081 298.012979 
L 357.614192 298.260757 
L 357.523604 298.344873 
L 357.32676 298.527135 
L 357.166126 298.675897 
L 357.038762 298.793514 
L 356.808649 299.006052 
L 356.750191 299.059892 
L 356.461004 299.32627 
L 356.451171 299.335327 
L 356.171002 299.592649 
L 356.093694 299.663665 
L 355.880415 299.859027 
L 355.736216 299.991136 
L 355.58924 300.125405 
L 355.378739 300.31774 
L 355.29747 300.391784 
L 355.021261 300.643479 
L 355.005102 300.658162 
L 354.711935 300.924541 
L 354.663784 300.968296 
L 354.418096 301.190919 
L 354.306306 301.29223 
L 354.123645 301.457297 
L 353.948829 301.615301 
L 353.828578 301.723676 
L 353.591351 301.937508 
L 353.53289 301.990054 
L 353.236564 302.256432 
L 353.233874 302.258851 
L 352.939373 302.522811 
L 352.876396 302.579265 
L 352.641546 302.789189 
L 352.518919 302.898818 
L 352.343081 303.055568 
L 352.161441 303.217512 
L 352.04397 303.321946 
L 351.803964 303.535347 
L 351.74421 303.588324 
L 351.446486 303.852323 
L 351.443795 303.854703 
L 351.1425 304.121081 
L 351.089009 304.16838 
L 350.840532 304.387459 
L 350.731532 304.483577 
L 350.537894 304.653838 
L 350.374054 304.797918 
L 350.234583 304.920216 
L 350.016577 305.111404 
L 349.930592 305.186595 
L 349.659099 305.424035 
L 349.625916 305.452973 
L 349.320472 305.719351 
L 349.301622 305.735791 
L 349.0142 305.98573 
L 348.944144 306.046657 
L 348.707228 306.252108 
L 348.586667 306.356671 
L 348.399552 306.518486 
L 348.229189 306.665833 
L 348.091166 306.784865 
L 347.871712 306.974145 
L 347.782064 307.051243 
L 347.514234 307.281607 
L 347.472241 307.317622 
L 347.16167 307.584 
" clip-path="url(#pfe8bbecac9)" style="fill: none; stroke: #1e9d89; stroke-width: 1.5"/>
   </g>
   <g id="PathCollection_18">
    <path d="M 404.062163 253.747516 
L 397.656893 261.766919 
L 391.215548 269.491892 
L 384.954786 276.684108 
L 378.412847 283.876324 
L 371.822703 290.797652 
L 365.030631 297.600074 
L 358.189998 304.121081 
L 354.411738 307.584 
L 354.411738 307.584 
" clip-path="url(#pfe8bbecac9)" style="fill: none; stroke: #21a585; stroke-width: 1.5"/>
   </g>
   <g id="PathCollection_19">
    <path d="M 414.72 246.136979 
L 414.587731 246.316973 
L 414.392061 246.583351 
L 414.362523 246.623559 
L 414.195927 246.84973 
L 414.005045 247.109014 
L 413.999809 247.116108 
L 413.803137 247.382486 
L 413.647568 247.593305 
L 413.606459 247.648865 
L 413.409357 247.915243 
L 413.29009 248.076484 
L 413.212116 248.181622 
L 413.014584 248.448 
L 412.932613 248.558557 
L 412.816774 248.714378 
L 412.618811 248.980757 
L 412.575135 249.039525 
L 412.42043 249.247135 
L 412.222036 249.513514 
L 412.217658 249.519391 
L 412.023079 249.779892 
L 411.86018 249.998098 
L 411.824122 250.04627 
L 411.624717 250.312649 
L 411.502703 250.4757 
L 411.425177 250.579027 
L 411.225339 250.845405 
L 411.145225 250.952209 
L 411.025211 251.111784 
L 410.82494 251.378162 
L 410.787748 251.427628 
L 410.624222 251.644541 
L 410.43027 251.901947 
L 410.423493 251.910919 
L 410.222203 252.177297 
L 410.072793 252.375119 
L 410.020876 252.443676 
L 409.819152 252.710054 
L 409.753897 252.796246 
" clip-path="url(#pfe8bbecac9)" style="fill: none; stroke: #26ad81; stroke-width: 1.5"/>
    <path d="M 391.247865 275.789715 
L 384.691892 283.280376 
L 377.89982 290.696907 
L 371.107748 297.77379 
L 364.315676 304.520496 
L 361.119133 307.584 
L 361.119133 307.584 
" clip-path="url(#pfe8bbecac9)" style="fill: none; stroke: #26ad81; stroke-width: 1.5"/>
   </g>
   <g id="PathCollection_20">
    <path d="M 399.825256 271.683668 
L 393.271351 279.574902 
L 386.479279 287.400637 
L 379.687207 294.878756 
L 372.895135 302.019356 
L 367.371376 307.584 
L 367.371376 307.584 
" clip-path="url(#pfe8bbecac9)" style="fill: none; stroke: #31b57b; stroke-width: 1.5"/>
   </g>
   <g id="PathCollection_21">
    <path d="M 399.767173 277.78666 
L 393.271351 285.571009 
L 386.389041 293.465946 
L 379.585648 300.924541 
L 373.236163 307.584 
L 373.236163 307.584 
" clip-path="url(#pfe8bbecac9)" style="fill: none; stroke: #3fbc73; stroke-width: 1.5"/>
   </g>
   <g id="PathCollection_22">
    <path d="M 399.794381 283.627113 
L 393.271351 291.411951 
L 386.344911 299.32627 
L 379.687207 306.602067 
L 378.765573 307.584 
L 378.765573 307.584 
" clip-path="url(#pfe8bbecac9)" style="fill: none; stroke: #50c46a; stroke-width: 1.5"/>
   </g>
   <g id="PathCollection_23">
    <path d="M 399.703033 289.465744 
L 399.699297 289.47027 
L 399.479375 289.736649 
L 399.348468 289.895267 
L 399.259308 290.003027 
L 399.038949 290.269405 
L 398.990991 290.327381 
L 398.818156 290.535784 
L 398.633514 290.758512 
L 398.597235 290.802162 
L 398.375837 291.068541 
L 398.276036 291.188646 
L 398.154181 291.334919 
L 397.932346 291.601297 
L 397.918559 291.617851 
L 397.709951 291.867676 
L 397.561081 292.04603 
L 397.487421 292.134054 
L 397.264539 292.400432 
L 397.203604 292.473266 
L 397.041261 292.666811 
L 396.846126 292.899542 
L 396.817842 292.933189 
L 396.593911 293.199568 
L 396.488649 293.324816 
L 396.369736 293.465946 
L 396.145364 293.732324 
L 396.131171 293.749172 
L 395.920428 293.998703 
L 395.773694 294.17251 
L 395.695342 294.265081 
L 395.469915 294.531459 
L 395.416216 294.594917 
L 395.24406 294.797838 
L 395.058739 295.01636 
L 395.018049 295.064216 
L 394.791563 295.330595 
L 394.701261 295.436823 
L 394.564774 295.596973 
L 394.343784 295.856373 
L 394.337823 295.863351 
L 394.110273 296.12973 
L 393.986306 296.2749 
L 393.882537 296.396108 
L 393.654542 296.662486 
L 393.628829 296.692527 
L 393.426015 296.928865 
L 393.271351 297.109159 
L 393.197316 297.195243 
L 392.968252 297.461622 
L 392.913874 297.524861 
L 392.738753 297.728 
L 392.556396 297.939609 
L 392.509077 297.994378 
L 392.27894 298.260757 
L 392.198919 298.353395 
L 392.048456 298.527135 
L 391.841441 298.766261 
L 391.817788 298.793514 
L 391.586573 299.059892 
L 391.483964 299.178137 
L 391.355088 299.32627 
L 391.126486 299.589125 
L 391.123414 299.592649 
L 390.891117 299.859027 
L 390.769009 299.999098 
L 390.658616 300.125405 
L 390.42587 300.391784 
L 390.411532 300.408192 
L 390.192538 300.658162 
L 390.054054 300.816289 
L 389.959006 300.924541 
L 389.725172 301.190919 
L 389.696577 301.223493 
L 389.4908 301.457297 
L 389.339099 301.62972 
L 389.256222 301.723676 
L 389.021296 301.990054 
L 388.981622 302.035041 
L 388.785869 302.256432 
L 388.624144 302.439401 
L 388.55023 302.522811 
L 388.314208 302.789189 
L 388.266667 302.842847 
L 388.07771 303.055568 
L 387.909189 303.245345 
L 387.840993 303.321946 
L 387.603871 303.588324 
L 387.551712 303.646922 
L 387.366286 303.854703 
L 387.194234 304.04756 
L 387.128476 304.121081 
L 386.890249 304.387459 
L 386.836757 304.447277 
L 386.651562 304.653838 
L 386.479279 304.846059 
L 386.412642 304.920216 
L 386.173307 305.186595 
L 386.121802 305.243923 
L 385.933501 305.452973 
L 385.764324 305.640851 
L 385.693456 305.719351 
L 385.453007 305.98573 
L 385.406847 306.03687 
L 385.212066 306.252108 
L 385.049369 306.431949 
L 384.97088 306.518486 
L 384.729313 306.784865 
L 384.691892 306.82613 
L 384.48722 307.051243 
L 384.334414 307.219363 
L 384.244876 307.317622 
L 384.002187 307.584 
" clip-path="url(#pfe8bbecac9)" style="fill: none; stroke: #63cb5f; stroke-width: 1.5"/>
   </g>
   <g id="PathCollection_24">
    <path d="M 414.72 276.03984 
L 414.635797 276.151351 
L 414.434685 276.41773 
L 414.362523 276.513322 
L 414.233271 276.684108 
L 414.03175 276.950486 
L 414.005045 276.985782 
L 413.82977 277.216865 
L 413.647568 277.457195 
L 413.62777 277.483243 
L 413.425288 277.749622 
L 413.29009 277.927552 
L 413.222716 278.016 
L 413.019822 278.282378 
L 412.932613 278.396895 
L 412.816673 278.548757 
L 412.613367 278.815135 
L 412.575135 278.865225 
L 412.409638 279.081514 
L 412.217658 279.33253 
L 412.205879 279.347892 
L 412.001606 279.61427 
L 411.86018 279.798771 
L 411.79726 279.880649 
L 411.592573 280.147027 
L 411.502703 280.264006 
L 411.387637 280.413405 
L 411.182536 280.679784 
L 411.145225 280.72824 
L 410.977005 280.946162 
L 410.787748 281.19145 
L 410.771434 281.212541 
L 410.565359 281.478919 
L 410.43027 281.653607 
L 410.359187 281.745297 
L 410.152696 282.011676 
L 410.072793 282.114769 
L 409.945918 282.278054 
L 409.739012 282.544432 
L 409.715315 282.574937 
L 409.531624 282.810811 
L 409.357838 283.034067 
L 409.324187 283.077189 
L 409.1163 283.343568 
L 409.00036 283.492175 
L 408.908246 283.609946 
L 408.699942 283.876324 
L 408.642883 283.949295 
L 408.491268 284.142703 
L 408.285405 284.405428 
L 408.282536 284.409081 
L 408.073247 284.675459 
L 407.927928 284.860498 
L 407.863887 284.941838 
L 407.654178 285.208216 
L 407.57045 285.314588 
L 407.444187 285.474595 
L 407.234059 285.740973 
L 407.212973 285.767701 
L 407.023432 286.007351 
L 406.855495 286.219779 
L 406.812737 286.27373 
L 406.601617 286.540108 
L 406.498018 286.670856 
L 406.390279 286.806486 
L 406.178737 287.072865 
L 406.140541 287.120962 
L 405.966753 287.339243 
L 405.783063 287.570061 
L 405.754692 287.605622 
L 405.542153 287.872 
L 405.425586 288.018142 
L 405.329438 288.138378 
L 405.116477 288.404757 
L 405.068108 288.465258 
L 404.903103 288.671135 
L 404.710631 288.911386 
L 404.689646 288.937514 
L 404.475682 289.203892 
L 404.353153 289.356487 
L 404.261559 289.47027 
L 404.04717 289.736649 
L 403.995676 289.800633 
L 403.832377 290.003027 
L 403.638198 290.243796 
L 403.617492 290.269405 
L 403.402096 290.535784 
L 403.280721 290.685936 
L 403.186533 290.802162 
L 402.97071 291.068541 
L 402.923243 291.127127 
L 402.754466 291.334919 
L 402.565766 291.567334 
L 402.538121 291.601297 
L 402.321285 291.867676 
L 402.208288 292.006531 
L 402.104251 292.134054 
L 402.022175 292.234684 
" clip-path="url(#pfe8bbecac9)" style="fill: none; stroke: #77d153; stroke-width: 1.5"/>
   </g>
   <g id="PathCollection_25">
    <path d="M 414.72 281.580749 
L 407.792391 290.535784 
L 401.13272 298.793514 
L 394.185675 307.051243 
L 393.726968 307.584 
L 393.726968 307.584 
" clip-path="url(#pfe8bbecac9)" style="fill: none; stroke: #8bd646; stroke-width: 1.5"/>
   </g>
   <g id="PathCollection_26">
    <path d="M 414.72 286.998516 
L 414.663381 287.072865 
L 414.460533 287.339243 
L 414.362523 287.467979 
L 414.257472 287.605622 
L 414.05422 287.872 
L 414.005045 287.936449 
L 413.850591 288.138378 
L 413.647568 288.403928 
L 413.646932 288.404757 
L 413.442733 288.671135 
L 413.29009 288.870348 
L 413.238499 288.937514 
L 413.033894 289.203892 
L 412.932613 289.335782 
L 412.829082 289.47027 
L 412.62407 289.736649 
L 412.575135 289.800232 
L 412.418675 290.003027 
L 412.217658 290.263693 
L 412.213242 290.269405 
L 412.007276 290.535784 
L 411.86018 290.726107 
L 411.801254 290.802162 
L 411.59488 291.068541 
L 411.502703 291.187542 
L 411.388265 291.334919 
L 411.181482 291.601297 
L 411.145225 291.648002 
L 410.97427 291.867676 
L 410.787748 292.10746 
L 410.76701 292.134054 
L 410.559267 292.400432 
L 410.43027 292.565897 
L 410.351403 292.666811 
L 410.14325 292.933189 
L 410.072793 293.023365 
L 409.934779 293.199568 
L 409.726216 293.465946 
L 409.715315 293.479866 
L 409.517134 293.732324 
L 409.357838 293.935336 
L 409.307993 293.998703 
L 409.098463 294.265081 
L 409.00036 294.389828 
L 408.888704 294.531459 
L 408.678762 294.797838 
L 408.642883 294.84336 
L 408.468381 295.064216 
L 408.285405 295.295897 
L 408.257934 295.330595 
L 408.04702 295.596973 
L 407.927928 295.747429 
L 407.835944 295.863351 
L 407.624616 296.12973 
L 407.57045 296.198008 
L 407.412908 296.396108 
L 407.212973 296.64762 
L 407.201126 296.662486 
L 406.98882 296.928865 
L 406.855495 297.096209 
L 406.776398 297.195243 
L 406.563678 297.461622 
L 406.498018 297.543851 
L 406.350612 297.728 
L 406.140541 297.990544 
L 406.137465 297.994378 
L 405.923762 298.260757 
L 405.783063 298.436206 
L 405.709964 298.527135 
L 405.495843 298.793514 
L 405.425586 298.880928 
L 405.28139 299.059892 
L 405.068108 299.32471 
L 405.066848 299.32627 
L 404.85174 299.592649 
L 404.710631 299.767462 
L 404.636536 299.859027 
L 404.421009 300.125405 
L 404.353153 300.20928 
L 404.205138 300.391784 
L 403.995676 300.650158 
L 403.98917 300.658162 
L 403.772651 300.924541 
L 403.638198 301.090016 
L 403.556009 301.190919 
L 403.339069 301.457297 
L 403.280721 301.528948 
L 403.12175 301.723676 
L 402.923243 301.966929 
L 402.904325 301.990054 
L 402.686387 302.256432 
L 402.565766 302.403911 
L 402.468278 302.522811 
L 402.249917 302.789189 
L 402.208288 302.839973 
L 402.031118 303.055568 
L 401.850811 303.275066 
L 401.812205 303.321946 
L 401.592842 303.588324 
L 401.493333 303.709188 
L 401.373232 303.854703 
L 401.153445 304.121081 
L 401.135856 304.142396 
L 400.933133 304.387459 
L 400.778378 304.574609 
L 400.712701 304.653838 
L 400.491905 304.920216 
L 400.420901 305.005889 
L 400.270763 305.186595 
L 400.063423 305.436243 
L 400.049495 305.452973 
L 399.827686 305.719351 
L 399.705946 305.865601 
L 399.605701 305.98573 
L 399.383466 306.252108 
L 399.348468 306.294056 
L 399.160759 306.518486 
L 398.990991 306.721543 
L 398.937918 306.784865 
L 398.714665 307.051243 
L 398.633514 307.148086 
L 398.491094 307.317622 
L 398.276036 307.573721 
L 398.267383 307.584 
" clip-path="url(#pfe8bbecac9)" style="fill: none; stroke: #a2da37; stroke-width: 1.5"/>
   </g>
   <g id="PathCollection_27">
    <path d="M 414.72 292.300991 
L 414.643977 292.400432 
L 414.440355 292.666811 
L 414.362523 292.768645 
L 414.236453 292.933189 
L 414.032429 293.199568 
L 414.005045 293.235318 
L 413.827957 293.465946 
L 413.647568 293.700981 
L 413.623452 293.732324 
L 413.418487 293.998703 
L 413.29009 294.165629 
L 413.213406 294.265081 
L 413.008037 294.531459 
L 412.932613 294.629303 
L 412.802376 294.797838 
L 412.596604 295.064216 
L 412.575135 295.092006 
L 412.39036 295.330595 
L 412.217658 295.553693 
L 412.184072 295.596973 
L 411.977352 295.863351 
L 411.86018 296.014384 
L 411.770475 296.12973 
L 411.563349 296.396108 
L 411.502703 296.474109 
L 411.355878 296.662486 
L 411.148346 296.928865 
L 411.145225 296.93287 
L 410.940278 297.195243 
L 410.787748 297.390597 
L 410.732156 297.461622 
L 410.523671 297.728 
L 410.43027 297.84736 
L 410.314945 297.994378 
L 410.106052 298.260757 
L 410.072793 298.303166 
L 409.896718 298.527135 
L 409.715315 298.75798 
L 409.687324 298.793514 
L 409.477471 299.059892 
L 409.357838 299.211797 
L 409.267463 299.32627 
L 409.057201 299.592649 
L 409.00036 299.664663 
L 408.846574 299.859027 
L 408.642883 300.116572 
L 408.635879 300.125405 
L 408.424653 300.391784 
L 408.285405 300.567458 
L 408.213333 300.658162 
L 408.001696 300.924541 
L 407.927928 301.0174 
L 407.789746 301.190919 
L 407.577698 301.457297 
L 407.57045 301.4664 
L 407.365115 301.723676 
L 407.212973 301.914381 
L 407.152454 301.990054 
L 406.939435 302.256432 
L 406.855495 302.361415 
L 406.726134 302.522811 
L 406.512702 302.789189 
L 406.498018 302.807513 
L 406.298757 303.055568 
L 406.140541 303.252606 
L 406.084726 303.321946 
L 405.870318 303.588324 
L 405.783063 303.696748 
L 405.655636 303.854703 
L 405.440813 304.121081 
L 405.425586 304.13996 
L 405.225475 304.387459 
L 405.068108 304.582171 
L 405.010044 304.653838 
L 404.79424 304.920216 
L 404.710631 305.023437 
L 404.578147 305.186595 
L 404.361927 305.452973 
L 404.353153 305.46378 
L 404.145167 305.719351 
L 403.995676 305.903117 
L 403.928306 305.98573 
L 403.711099 306.252108 
L 403.638198 306.341524 
L 403.493564 306.518486 
L 403.280721 306.779008 
L 403.275924 306.784865 
L 403.057727 307.051243 
L 402.923243 307.215484 
L 402.839405 307.317622 
L 402.620788 307.584 
" clip-path="url(#pfe8bbecac9)" style="fill: none; stroke: #bade28; stroke-width: 1.5"/>
   </g>
   <g id="PathCollection_28">
    <path d="M 414.72 297.495266 
L 414.541405 297.728 
L 414.362523 297.961213 
L 414.337022 297.994378 
L 414.132187 298.260757 
L 414.005045 298.426156 
L 413.927234 298.527135 
L 413.722 298.793514 
L 413.647568 298.890133 
L 413.516473 299.059892 
L 413.310838 299.32627 
L 413.29009 299.353144 
L 413.104734 299.592649 
L 412.932613 299.815149 
L 412.898587 299.859027 
L 412.692014 300.125405 
L 412.575135 300.276166 
L 412.485283 300.391784 
L 412.278307 300.658162 
L 412.217658 300.736224 
L 412.07099 300.924541 
L 411.863611 301.190919 
L 411.86018 301.195326 
L 411.655703 301.457297 
L 411.502703 301.653402 
L 411.447742 301.723676 
L 411.239418 301.990054 
L 411.145225 302.110521 
L 411.03086 302.256432 
L 410.822132 302.522811 
L 410.787748 302.56669 
L 410.612972 302.789189 
L 410.43027 303.021877 
L 410.403753 303.055568 
L 410.194075 303.321946 
L 410.072793 303.476073 
L 409.984248 303.588324 
L 409.774164 303.854703 
L 409.715315 303.929325 
L 409.563725 304.121081 
L 409.357838 304.381629 
L 409.353219 304.387459 
L 409.14218 304.653838 
L 409.00036 304.832917 
L 408.931056 304.920216 
L 408.719609 305.186595 
L 408.642883 305.283267 
L 408.507863 305.452973 
L 408.296008 305.719351 
L 408.285405 305.732681 
L 408.083635 305.98573 
L 407.927928 306.18109 
L 407.871186 306.252108 
L 407.658369 306.518486 
L 407.57045 306.628553 
L 407.445287 306.784865 
L 407.232061 307.051243 
L 407.212973 307.075087 
L 407.018341 307.317622 
L 406.855495 307.520629 
L 406.804538 307.584 
" clip-path="url(#pfe8bbecac9)" style="fill: none; stroke: #d2e21b; stroke-width: 1.5"/>
   </g>
   <g id="PathCollection_29">
    <path d="M 414.72 302.58766 
L 414.564819 302.789189 
L 414.362523 303.052021 
L 414.359786 303.055568 
L 414.154231 303.321946 
L 414.005045 303.515358 
L 413.948627 303.588324 
L 413.742675 303.854703 
L 413.647568 303.977739 
L 413.536497 304.121081 
L 413.330146 304.387459 
L 413.29009 304.439167 
L 413.12339 304.653838 
L 412.932613 304.899622 
L 412.916589 304.920216 
L 412.709304 305.186595 
L 412.575135 305.359075 
L 412.501918 305.452973 
L 412.294233 305.719351 
L 412.217658 305.817581 
L 412.08626 305.98573 
L 411.878174 306.252108 
L 411.86018 306.275141 
L 411.669609 306.518486 
L 411.502703 306.731704 
L 411.460988 306.784865 
L 411.251963 307.051243 
L 411.145225 307.187303 
L 411.042744 307.317622 
L 410.833317 307.584 
" clip-path="url(#pfe8bbecac9)" style="fill: none; stroke: #eae51a; stroke-width: 1.5"/>
   </g>
   <g id="PathCollection_30"/>
   <g id="line2d_14">
    <path d="M 136.936436 234.849664 
L 237.915234 142.273969 
L 297.938765 138.316763 
L 312.44352 132.214389 
L 335.383564 114.206336 
L 327.964823 116.282661 
L 329.325956 115.15884 
L 329.478546 114.965749 
L 329.471817 114.965732 
L 329.47195 114.965642 
" clip-path="url(#pfe8bbecac9)" style="fill: none; stroke: #1f77b4; stroke-width: 1.5; stroke-linecap: square"/>
    <defs>
     <path id="mad74f6b369" d="M 0 3 
C 0.795609 3 1.55874 2.683901 2.12132 2.12132 
C 2.683901 1.55874 3 0.795609 3 0 
C 3 -0.795609 2.683901 -1.55874 2.12132 -2.12132 
C 1.55874 -2.683901 0.795609 -3 0 -3 
C -0.795609 -3 -1.55874 -2.683901 -2.12132 -2.12132 
C -2.683901 -1.55874 -3 -0.795609 -3 0 
C -3 0.795609 -2.683901 1.55874 -2.12132 2.12132 
C -1.55874 2.683901 -0.795609 3 0 3 
z
" style="stroke: #1f77b4"/>
    </defs>
    <g clip-path="url(#pfe8bbecac9)">
     <use xlink:href="#mad74f6b369" x="136.936436" y="234.849664" style="fill: #1f77b4; stroke: #1f77b4"/>
     <use xlink:href="#mad74f6b369" x="237.915234" y="142.273969" style="fill: #1f77b4; stroke: #1f77b4"/>
     <use xlink:href="#mad74f6b369" x="297.938765" y="138.316763" style="fill: #1f77b4; stroke: #1f77b4"/>
     <use xlink:href="#mad74f6b369" x="312.44352" y="132.214389" style="fill: #1f77b4; stroke: #1f77b4"/>
     <use xlink:href="#mad74f6b369" x="335.383564" y="114.206336" style="fill: #1f77b4; stroke: #1f77b4"/>
     <use xlink:href="#mad74f6b369" x="327.964823" y="116.282661" style="fill: #1f77b4; stroke: #1f77b4"/>
     <use xlink:href="#mad74f6b369" x="329.325956" y="115.15884" style="fill: #1f77b4; stroke: #1f77b4"/>
     <use xlink:href="#mad74f6b369" x="329.478546" y="114.965749" style="fill: #1f77b4; stroke: #1f77b4"/>
     <use xlink:href="#mad74f6b369" x="329.471817" y="114.965732" style="fill: #1f77b4; stroke: #1f77b4"/>
     <use xlink:href="#mad74f6b369" x="329.47195" y="114.965642" style="fill: #1f77b4; stroke: #1f77b4"/>
    </g>
   </g>
   <g id="patch_3">
    <path d="M 57.6 307.584 
L 57.6 41.472 
" style="fill: none; stroke: #000000; stroke-width: 0.8; stroke-linejoin: miter; stroke-linecap: square"/>
   </g>
   <g id="patch_4">
    <path d="M 414.72 307.584 
L 414.72 41.472 
" style="fill: none; stroke: #000000; stroke-width: 0.8; stroke-linejoin: miter; stroke-linecap: square"/>
   </g>
   <g id="patch_5">
    <path d="M 57.6 307.584 
L 414.72 307.584 
" style="fill: none; stroke: #000000; stroke-width: 0.8; stroke-linejoin: miter; stroke-linecap: square"/>
   </g>
   <g id="patch_6">
    <path d="M 57.6 41.472 
L 414.72 41.472 
" style="fill: none; stroke: #000000; stroke-width: 0.8; stroke-linejoin: miter; stroke-linecap: square"/>
   </g>
   <g id="text_16">
    <!-- func_bean -->
    <g transform="translate(205.163437 35.472) scale(0.12 -0.12)">
     <defs>
      <path id="DejaVuSans-66" d="M 2375 4863 
L 2375 4384 
L 1825 4384 
Q 1516 4384 1395 4259 
Q 1275 4134 1275 3809 
L 1275 3500 
L 2222 3500 
L 2222 3053 
L 1275 3053 
L 1275 0 
L 697 0 
L 697 3053 
L 147 3053 
L 147 3500 
L 697 3500 
L 697 3744 
Q 697 4328 969 4595 
Q 1241 4863 1831 4863 
L 2375 4863 
z
" transform="scale(0.015625)"/>
      <path id="DejaVuSans-75" d="M 544 1381 
L 544 3500 
L 1119 3500 
L 1119 1403 
Q 1119 906 1312 657 
Q 1506 409 1894 409 
Q 2359 409 2629 706 
Q 2900 1003 2900 1516 
L 2900 3500 
L 3475 3500 
L 3475 0 
L 2900 0 
L 2900 538 
Q 2691 219 2414 64 
Q 2138 -91 1772 -91 
Q 1169 -91 856 284 
Q 544 659 544 1381 
z
M 1991 3584 
L 1991 3584 
z
" transform="scale(0.015625)"/>
      <path id="DejaVuSans-6e" d="M 3513 2113 
L 3513 0 
L 2938 0 
L 2938 2094 
Q 2938 2591 2744 2837 
Q 2550 3084 2163 3084 
Q 1697 3084 1428 2787 
Q 1159 2491 1159 1978 
L 1159 0 
L 581 0 
L 581 3500 
L 1159 3500 
L 1159 2956 
Q 1366 3272 1645 3428 
Q 1925 3584 2291 3584 
Q 2894 3584 3203 3211 
Q 3513 2838 3513 2113 
z
" transform="scale(0.015625)"/>
      <path id="DejaVuSans-63" d="M 3122 3366 
L 3122 2828 
Q 2878 2963 2633 3030 
Q 2388 3097 2138 3097 
Q 1578 3097 1268 2742 
Q 959 2388 959 1747 
Q 959 1106 1268 751 
Q 1578 397 2138 397 
Q 2388 397 2633 464 
Q 2878 531 3122 666 
L 3122 134 
Q 2881 22 2623 -34 
Q 2366 -91 2075 -91 
Q 1284 -91 818 406 
Q 353 903 353 1747 
Q 353 2603 823 3093 
Q 1294 3584 2113 3584 
Q 2378 3584 2631 3529 
Q 2884 3475 3122 3366 
z
" transform="scale(0.015625)"/>
      <path id="DejaVuSans-5f" d="M 3263 -1063 
L 3263 -1509 
L -63 -1509 
L -63 -1063 
L 3263 -1063 
z
" transform="scale(0.015625)"/>
      <path id="DejaVuSans-62" d="M 3116 1747 
Q 3116 2381 2855 2742 
Q 2594 3103 2138 3103 
Q 1681 3103 1420 2742 
Q 1159 2381 1159 1747 
Q 1159 1113 1420 752 
Q 1681 391 2138 391 
Q 2594 391 2855 752 
Q 3116 1113 3116 1747 
z
M 1159 2969 
Q 1341 3281 1617 3432 
Q 1894 3584 2278 3584 
Q 2916 3584 3314 3078 
Q 3713 2572 3713 1747 
Q 3713 922 3314 415 
Q 2916 -91 2278 -91 
Q 1894 -91 1617 61 
Q 1341 213 1159 525 
L 1159 0 
L 581 0 
L 581 4863 
L 1159 4863 
L 1159 2969 
z
" transform="scale(0.015625)"/>
      <path id="DejaVuSans-65" d="M 3597 1894 
L 3597 1613 
L 953 1613 
Q 991 1019 1311 708 
Q 1631 397 2203 397 
Q 2534 397 2845 478 
Q 3156 559 3463 722 
L 3463 178 
Q 3153 47 2828 -22 
Q 2503 -91 2169 -91 
Q 1331 -91 842 396 
Q 353 884 353 1716 
Q 353 2575 817 3079 
Q 1281 3584 2069 3584 
Q 2775 3584 3186 3129 
Q 3597 2675 3597 1894 
z
M 3022 2063 
Q 3016 2534 2758 2815 
Q 2500 3097 2075 3097 
Q 1594 3097 1305 2825 
Q 1016 2553 972 2059 
L 3022 2063 
z
" transform="scale(0.015625)"/>
      <path id="DejaVuSans-61" d="M 2194 1759 
Q 1497 1759 1228 1600 
Q 959 1441 959 1056 
Q 959 750 1161 570 
Q 1363 391 1709 391 
Q 2188 391 2477 730 
Q 2766 1069 2766 1631 
L 2766 1759 
L 2194 1759 
z
M 3341 1997 
L 3341 0 
L 2766 0 
L 2766 531 
Q 2569 213 2275 61 
Q 1981 -91 1556 -91 
Q 1019 -91 701 211 
Q 384 513 384 1019 
Q 384 1609 779 1909 
Q 1175 2209 1959 2209 
L 2766 2209 
L 2766 2266 
Q 2766 2663 2505 2880 
Q 2244 3097 1772 3097 
Q 1472 3097 1187 3025 
Q 903 2953 641 2809 
L 641 3341 
Q 956 3463 1253 3523 
Q 1550 3584 1831 3584 
Q 2591 3584 2966 3190 
Q 3341 2797 3341 1997 
z
" transform="scale(0.015625)"/>
     </defs>
     <use xlink:href="#DejaVuSans-66"/>
     <use xlink:href="#DejaVuSans-75" x="35.205078"/>
     <use xlink:href="#DejaVuSans-6e" x="98.583984"/>
     <use xlink:href="#DejaVuSans-63" x="161.962891"/>
     <use xlink:href="#DejaVuSans-5f" x="216.943359"/>
     <use xlink:href="#DejaVuSans-62" x="266.943359"/>
     <use xlink:href="#DejaVuSans-65" x="330.419922"/>
     <use xlink:href="#DejaVuSans-61" x="391.943359"/>
     <use xlink:href="#DejaVuSans-6e" x="453.222656"/>
    </g>
   </g>
   <g id="text_17">
    <g clip-path="url(#pfe8bbecac9)">
     <!-- 0.47 -->
     <g style="fill: #470d60" transform="translate(301.791928 89.43463) rotate(-40.580236) scale(0.1 -0.1)">
      <defs>
       <path id="DejaVuSans-34" d="M 2419 4116 
L 825 1625 
L 2419 1625 
L 2419 4116 
z
M 2253 4666 
L 3047 4666 
L 3047 1625 
L 3713 1625 
L 3713 1100 
L 3047 1100 
L 3047 0 
L 2419 0 
L 2419 1100 
L 313 1100 
L 313 1709 
L 2253 4666 
z
" transform="scale(0.015625)"/>
      </defs>
      <use xlink:href="#DejaVuSans-30"/>
      <use xlink:href="#DejaVuSans-2e" x="63.623047"/>
      <use xlink:href="#DejaVuSans-34" x="95.410156"/>
      <use xlink:href="#DejaVuSans-37" x="159.033203"/>
     </g>
    </g>
   </g>
   <g id="text_18">
    <g clip-path="url(#pfe8bbecac9)">
     <!-- 0.85 -->
     <g style="fill: #481a6c" transform="translate(272.611592 91.644553) rotate(-40.800045) scale(0.1 -0.1)">
      <defs>
       <path id="DejaVuSans-38" d="M 2034 2216 
Q 1584 2216 1326 1975 
Q 1069 1734 1069 1313 
Q 1069 891 1326 650 
Q 1584 409 2034 409 
Q 2484 409 2743 651 
Q 3003 894 3003 1313 
Q 3003 1734 2745 1975 
Q 2488 2216 2034 2216 
z
M 1403 2484 
Q 997 2584 770 2862 
Q 544 3141 544 3541 
Q 544 4100 942 4425 
Q 1341 4750 2034 4750 
Q 2731 4750 3128 4425 
Q 3525 4100 3525 3541 
Q 3525 3141 3298 2862 
Q 3072 2584 2669 2484 
Q 3125 2378 3379 2068 
Q 3634 1759 3634 1313 
Q 3634 634 3220 271 
Q 2806 -91 2034 -91 
Q 1263 -91 848 271 
Q 434 634 434 1313 
Q 434 1759 690 2068 
Q 947 2378 1403 2484 
z
M 1172 3481 
Q 1172 3119 1398 2916 
Q 1625 2713 2034 2713 
Q 2441 2713 2670 2916 
Q 2900 3119 2900 3481 
Q 2900 3844 2670 4047 
Q 2441 4250 2034 4250 
Q 1625 4250 1398 4047 
Q 1172 3844 1172 3481 
z
" transform="scale(0.015625)"/>
      </defs>
      <use xlink:href="#DejaVuSans-30"/>
      <use xlink:href="#DejaVuSans-2e" x="63.623047"/>
      <use xlink:href="#DejaVuSans-38" x="95.410156"/>
      <use xlink:href="#DejaVuSans-35" x="159.033203"/>
     </g>
    </g>
   </g>
   <g id="text_19">
    <g clip-path="url(#pfe8bbecac9)">
     <!-- 1.23 -->
     <g style="fill: #482576" transform="translate(283.150066 64.641349) rotate(-38.185329) scale(0.1 -0.1)">
      <defs>
       <path id="DejaVuSans-33" d="M 2597 2516 
Q 3050 2419 3304 2112 
Q 3559 1806 3559 1356 
Q 3559 666 3084 287 
Q 2609 -91 1734 -91 
Q 1441 -91 1130 -33 
Q 819 25 488 141 
L 488 750 
Q 750 597 1062 519 
Q 1375 441 1716 441 
Q 2309 441 2620 675 
Q 2931 909 2931 1356 
Q 2931 1769 2642 2001 
Q 2353 2234 1838 2234 
L 1294 2234 
L 1294 2753 
L 1863 2753 
Q 2328 2753 2575 2939 
Q 2822 3125 2822 3475 
Q 2822 3834 2567 4026 
Q 2313 4219 1838 4219 
Q 1578 4219 1281 4162 
Q 984 4106 628 3988 
L 628 4550 
Q 988 4650 1302 4700 
Q 1616 4750 1894 4750 
Q 2613 4750 3031 4423 
Q 3450 4097 3450 3541 
Q 3450 3153 3228 2886 
Q 3006 2619 2597 2516 
z
" transform="scale(0.015625)"/>
      </defs>
      <use xlink:href="#DejaVuSans-31"/>
      <use xlink:href="#DejaVuSans-2e" x="63.623047"/>
      <use xlink:href="#DejaVuSans-32" x="95.410156"/>
      <use xlink:href="#DejaVuSans-33" x="159.033203"/>
     </g>
    </g>
   </g>
   <g id="text_20">
    <g clip-path="url(#pfe8bbecac9)">
     <!-- 1.61 -->
     <g style="fill: #46307e" transform="translate(234.459192 86.685603) rotate(-36.927358) scale(0.1 -0.1)">
      <defs>
       <path id="DejaVuSans-36" d="M 2113 2584 
Q 1688 2584 1439 2293 
Q 1191 2003 1191 1497 
Q 1191 994 1439 701 
Q 1688 409 2113 409 
Q 2538 409 2786 701 
Q 3034 994 3034 1497 
Q 3034 2003 2786 2293 
Q 2538 2584 2113 2584 
z
M 3366 4563 
L 3366 3988 
Q 3128 4100 2886 4159 
Q 2644 4219 2406 4219 
Q 1781 4219 1451 3797 
Q 1122 3375 1075 2522 
Q 1259 2794 1537 2939 
Q 1816 3084 2150 3084 
Q 2853 3084 3261 2657 
Q 3669 2231 3669 1497 
Q 3669 778 3244 343 
Q 2819 -91 2113 -91 
Q 1303 -91 875 529 
Q 447 1150 447 2328 
Q 447 3434 972 4092 
Q 1497 4750 2381 4750 
Q 2619 4750 2861 4703 
Q 3103 4656 3366 4563 
z
" transform="scale(0.015625)"/>
      </defs>
      <use xlink:href="#DejaVuSans-31"/>
      <use xlink:href="#DejaVuSans-2e" x="63.623047"/>
      <use xlink:href="#DejaVuSans-36" x="95.410156"/>
      <use xlink:href="#DejaVuSans-31" x="159.033203"/>
     </g>
    </g>
   </g>
   <g id="text_21">
    <g clip-path="url(#pfe8bbecac9)">
     <!-- 1.99 -->
     <g style="fill: #443b84" transform="translate(189.601502 102.753845) rotate(-34.193504) scale(0.1 -0.1)">
      <defs>
       <path id="DejaVuSans-39" d="M 703 97 
L 703 672 
Q 941 559 1184 500 
Q 1428 441 1663 441 
Q 2288 441 2617 861 
Q 2947 1281 2994 2138 
Q 2813 1869 2534 1725 
Q 2256 1581 1919 1581 
Q 1219 1581 811 2004 
Q 403 2428 403 3163 
Q 403 3881 828 4315 
Q 1253 4750 1959 4750 
Q 2769 4750 3195 4129 
Q 3622 3509 3622 2328 
Q 3622 1225 3098 567 
Q 2575 -91 1691 -91 
Q 1453 -91 1209 -44 
Q 966 3 703 97 
z
M 1959 2075 
Q 2384 2075 2632 2365 
Q 2881 2656 2881 3163 
Q 2881 3666 2632 3958 
Q 2384 4250 1959 4250 
Q 1534 4250 1286 3958 
Q 1038 3666 1038 3163 
Q 1038 2656 1286 2365 
Q 1534 2075 1959 2075 
z
" transform="scale(0.015625)"/>
      </defs>
      <use xlink:href="#DejaVuSans-31"/>
      <use xlink:href="#DejaVuSans-2e" x="63.623047"/>
      <use xlink:href="#DejaVuSans-39" x="95.410156"/>
      <use xlink:href="#DejaVuSans-39" x="159.033203"/>
     </g>
    </g>
   </g>
   <g id="text_22">
    <g clip-path="url(#pfe8bbecac9)">
     <!-- 2.36 -->
     <g style="fill: #404588" transform="translate(159.791014 105.482235) rotate(-30.800747) scale(0.1 -0.1)">
      <use xlink:href="#DejaVuSans-32"/>
      <use xlink:href="#DejaVuSans-2e" x="63.623047"/>
      <use xlink:href="#DejaVuSans-33" x="95.410156"/>
      <use xlink:href="#DejaVuSans-36" x="159.033203"/>
     </g>
    </g>
   </g>
   <g id="text_23">
    <g clip-path="url(#pfe8bbecac9)">
     <!-- 2.74 -->
     <g style="fill: #3c4f8a" transform="translate(126.876744 107.472378) rotate(-27.101578) scale(0.1 -0.1)">
      <use xlink:href="#DejaVuSans-32"/>
      <use xlink:href="#DejaVuSans-2e" x="63.623047"/>
      <use xlink:href="#DejaVuSans-37" x="95.410156"/>
      <use xlink:href="#DejaVuSans-34" x="159.033203"/>
     </g>
    </g>
   </g>
   <g id="text_24">
    <g clip-path="url(#pfe8bbecac9)">
     <!-- 3.12 -->
     <g style="fill: #38598c" transform="translate(405.37512 185.863638) rotate(-55.76072) scale(0.1 -0.1)">
      <use xlink:href="#DejaVuSans-33"/>
      <use xlink:href="#DejaVuSans-2e" x="63.623047"/>
      <use xlink:href="#DejaVuSans-31" x="95.410156"/>
      <use xlink:href="#DejaVuSans-32" x="159.033203"/>
     </g>
    </g>
   </g>
   <g id="text_25">
    <g clip-path="url(#pfe8bbecac9)">
     <!-- 3.12 -->
     <g style="fill: #38598c" transform="translate(95.676373 105.857352) rotate(-23.487716) scale(0.1 -0.1)">
      <use xlink:href="#DejaVuSans-33"/>
      <use xlink:href="#DejaVuSans-2e" x="63.623047"/>
      <use xlink:href="#DejaVuSans-31" x="95.410156"/>
      <use xlink:href="#DejaVuSans-32" x="159.033203"/>
     </g>
    </g>
   </g>
   <g id="text_26">
    <g clip-path="url(#pfe8bbecac9)">
     <!-- 3.50 -->
     <g style="fill: #33628d" transform="translate(50.915629 243.967555) rotate(-315.631214) scale(0.1 -0.1)">
      <use xlink:href="#DejaVuSans-33"/>
      <use xlink:href="#DejaVuSans-2e" x="63.623047"/>
      <use xlink:href="#DejaVuSans-35" x="95.410156"/>
      <use xlink:href="#DejaVuSans-30" x="159.033203"/>
     </g>
    </g>
   </g>
   <g id="text_27">
    <g clip-path="url(#pfe8bbecac9)">
     <!-- 3.50 -->
     <g style="fill: #33628d" transform="translate(389.504394 216.035547) rotate(-52.034905) scale(0.1 -0.1)">
      <use xlink:href="#DejaVuSans-33"/>
      <use xlink:href="#DejaVuSans-2e" x="63.623047"/>
      <use xlink:href="#DejaVuSans-35" x="95.410156"/>
      <use xlink:href="#DejaVuSans-30" x="159.033203"/>
     </g>
    </g>
   </g>
   <g id="text_28">
    <g clip-path="url(#pfe8bbecac9)">
     <!-- 3.50 -->
     <g style="fill: #33628d" transform="translate(178.242211 58.006268) rotate(-26.247213) scale(0.1 -0.1)">
      <use xlink:href="#DejaVuSans-33"/>
      <use xlink:href="#DejaVuSans-2e" x="63.623047"/>
      <use xlink:href="#DejaVuSans-35" x="95.410156"/>
      <use xlink:href="#DejaVuSans-30" x="159.033203"/>
     </g>
    </g>
   </g>
   <g id="text_29">
    <g clip-path="url(#pfe8bbecac9)">
     <!-- 3.88 -->
     <g style="fill: #2f6b8e" transform="translate(65.083814 273.530436) rotate(-323.05752) scale(0.1 -0.1)">
      <use xlink:href="#DejaVuSans-33"/>
      <use xlink:href="#DejaVuSans-2e" x="63.623047"/>
      <use xlink:href="#DejaVuSans-38" x="95.410156"/>
      <use xlink:href="#DejaVuSans-38" x="159.033203"/>
     </g>
    </g>
   </g>
   <g id="text_30">
    <g clip-path="url(#pfe8bbecac9)">
     <!-- 3.88 -->
     <g style="fill: #2f6b8e" transform="translate(376.406901 239.743492) rotate(-48.956175) scale(0.1 -0.1)">
      <use xlink:href="#DejaVuSans-33"/>
      <use xlink:href="#DejaVuSans-2e" x="63.623047"/>
      <use xlink:href="#DejaVuSans-38" x="95.410156"/>
      <use xlink:href="#DejaVuSans-38" x="159.033203"/>
     </g>
    </g>
   </g>
   <g id="text_31">
    <g clip-path="url(#pfe8bbecac9)">
     <!-- 3.88 -->
     <g style="fill: #2f6b8e" transform="translate(67.103046 85.499995) rotate(-15.703083) scale(0.1 -0.1)">
      <use xlink:href="#DejaVuSans-33"/>
      <use xlink:href="#DejaVuSans-2e" x="63.623047"/>
      <use xlink:href="#DejaVuSans-38" x="95.410156"/>
      <use xlink:href="#DejaVuSans-38" x="159.033203"/>
     </g>
    </g>
   </g>
   <g id="text_32">
    <g clip-path="url(#pfe8bbecac9)">
     <!-- 4.26 -->
     <g style="fill: #2c738e" transform="translate(83.326194 299.389395) rotate(-330.224989) scale(0.1 -0.1)">
      <use xlink:href="#DejaVuSans-34"/>
      <use xlink:href="#DejaVuSans-2e" x="63.623047"/>
      <use xlink:href="#DejaVuSans-32" x="95.410156"/>
      <use xlink:href="#DejaVuSans-36" x="159.033203"/>
     </g>
    </g>
   </g>
   <g id="text_33">
    <g clip-path="url(#pfe8bbecac9)">
     <!-- 4.26 -->
     <g style="fill: #2c738e" transform="translate(357.630332 266.72492) rotate(-44.710991) scale(0.1 -0.1)">
      <use xlink:href="#DejaVuSans-34"/>
      <use xlink:href="#DejaVuSans-2e" x="63.623047"/>
      <use xlink:href="#DejaVuSans-32" x="95.410156"/>
      <use xlink:href="#DejaVuSans-36" x="159.033203"/>
     </g>
    </g>
   </g>
   <g id="text_34">
    <g clip-path="url(#pfe8bbecac9)">
     <!-- 4.26 -->
     <g style="fill: #2c738e" transform="translate(92.547576 66.591403) rotate(-14.423581) scale(0.1 -0.1)">
      <use xlink:href="#DejaVuSans-34"/>
      <use xlink:href="#DejaVuSans-2e" x="63.623047"/>
      <use xlink:href="#DejaVuSans-32" x="95.410156"/>
      <use xlink:href="#DejaVuSans-36" x="159.033203"/>
     </g>
    </g>
   </g>
   <g id="text_35">
    <g clip-path="url(#pfe8bbecac9)">
     <!-- 4.64 -->
     <g style="fill: #297b8e" transform="translate(53.96933 290.287362) rotate(-324.361928) scale(0.1 -0.1)">
      <use xlink:href="#DejaVuSans-34"/>
      <use xlink:href="#DejaVuSans-2e" x="63.623047"/>
      <use xlink:href="#DejaVuSans-36" x="95.410156"/>
      <use xlink:href="#DejaVuSans-34" x="159.033203"/>
     </g>
    </g>
   </g>
   <g id="text_36">
    <g clip-path="url(#pfe8bbecac9)">
     <!-- 4.64 -->
     <g style="fill: #297b8e" transform="translate(337.22251 291.819987) rotate(-40.048524) scale(0.1 -0.1)">
      <use xlink:href="#DejaVuSans-34"/>
      <use xlink:href="#DejaVuSans-2e" x="63.623047"/>
      <use xlink:href="#DejaVuSans-36" x="95.410156"/>
      <use xlink:href="#DejaVuSans-34" x="159.033203"/>
     </g>
    </g>
   </g>
   <g id="text_37">
    <g clip-path="url(#pfe8bbecac9)">
     <!-- 4.64 -->
     <g style="fill: #297b8e" transform="translate(118.496303 49.830206) rotate(-15.846358) scale(0.1 -0.1)">
      <use xlink:href="#DejaVuSans-34"/>
      <use xlink:href="#DejaVuSans-2e" x="63.623047"/>
      <use xlink:href="#DejaVuSans-36" x="95.410156"/>
      <use xlink:href="#DejaVuSans-34" x="159.033203"/>
     </g>
    </g>
   </g>
   <g id="text_38">
    <g clip-path="url(#pfe8bbecac9)">
     <!-- 5.02 -->
     <g style="fill: #25838e" transform="translate(315.193208 314.995479) rotate(-35.746851) scale(0.1 -0.1)">
      <use xlink:href="#DejaVuSans-35"/>
      <use xlink:href="#DejaVuSans-2e" x="63.623047"/>
      <use xlink:href="#DejaVuSans-30" x="95.410156"/>
      <use xlink:href="#DejaVuSans-32" x="159.033203"/>
     </g>
    </g>
   </g>
   <g id="text_39">
    <g clip-path="url(#pfe8bbecac9)">
     <!-- 5.02 -->
     <g style="fill: #25838e" transform="translate(51.565385 51.725342) rotate(-7.439411) scale(0.1 -0.1)">
      <use xlink:href="#DejaVuSans-35"/>
      <use xlink:href="#DejaVuSans-2e" x="63.623047"/>
      <use xlink:href="#DejaVuSans-30" x="95.410156"/>
      <use xlink:href="#DejaVuSans-32" x="159.033203"/>
     </g>
    </g>
   </g>
   <g id="text_40">
    <g clip-path="url(#pfe8bbecac9)">
     <!-- 5.39 -->
     <g style="fill: #228c8d" transform="translate(408.523448 231.891626) rotate(-53.810278) scale(0.1 -0.1)">
      <use xlink:href="#DejaVuSans-35"/>
      <use xlink:href="#DejaVuSans-2e" x="63.623047"/>
      <use xlink:href="#DejaVuSans-33" x="95.410156"/>
      <use xlink:href="#DejaVuSans-39" x="159.033203"/>
     </g>
    </g>
   </g>
   <g id="text_41">
    <g clip-path="url(#pfe8bbecac9)">
     <!-- 5.77 -->
     <g style="fill: #1f948c" transform="translate(388.251787 264.100775) rotate(-50.265868) scale(0.1 -0.1)">
      <use xlink:href="#DejaVuSans-35"/>
      <use xlink:href="#DejaVuSans-2e" x="63.623047"/>
      <use xlink:href="#DejaVuSans-37" x="95.410156"/>
      <use xlink:href="#DejaVuSans-37" x="159.033203"/>
     </g>
    </g>
   </g>
   <g id="text_42">
    <g clip-path="url(#pfe8bbecac9)">
     <!-- 6.15 -->
     <g style="fill: #1e9d89" transform="translate(365.726546 294.576926) rotate(-45.7653) scale(0.1 -0.1)">
      <use xlink:href="#DejaVuSans-36"/>
      <use xlink:href="#DejaVuSans-2e" x="63.623047"/>
      <use xlink:href="#DejaVuSans-31" x="95.410156"/>
      <use xlink:href="#DejaVuSans-35" x="159.033203"/>
     </g>
    </g>
   </g>
   <g id="text_43">
    <g clip-path="url(#pfe8bbecac9)">
     <!-- 6.53 -->
     <g style="fill: #21a585" transform="translate(408.465283 252.627708) rotate(-53.156452) scale(0.1 -0.1)">
      <use xlink:href="#DejaVuSans-36"/>
      <use xlink:href="#DejaVuSans-2e" x="63.623047"/>
      <use xlink:href="#DejaVuSans-35" x="95.410156"/>
      <use xlink:href="#DejaVuSans-33" x="159.033203"/>
     </g>
    </g>
   </g>
   <g id="text_44">
    <g clip-path="url(#pfe8bbecac9)">
     <!-- 6.91 -->
     <g style="fill: #26ad81" transform="translate(395.842798 274.834213) rotate(-51.179257) scale(0.1 -0.1)">
      <use xlink:href="#DejaVuSans-36"/>
      <use xlink:href="#DejaVuSans-2e" x="63.623047"/>
      <use xlink:href="#DejaVuSans-39" x="95.410156"/>
      <use xlink:href="#DejaVuSans-31" x="159.033203"/>
     </g>
    </g>
   </g>
   <g id="text_45">
    <g clip-path="url(#pfe8bbecac9)">
     <!-- 7.29 -->
     <g style="fill: #31b57b" transform="translate(404.315182 270.676168) rotate(-52.443421) scale(0.1 -0.1)">
      <use xlink:href="#DejaVuSans-37"/>
      <use xlink:href="#DejaVuSans-2e" x="63.623047"/>
      <use xlink:href="#DejaVuSans-32" x="95.410156"/>
      <use xlink:href="#DejaVuSans-39" x="159.033203"/>
     </g>
    </g>
   </g>
   <g id="text_46">
    <g clip-path="url(#pfe8bbecac9)">
     <!-- 7.67 -->
     <g style="fill: #3fbc73" transform="translate(404.25893 276.79051) rotate(-52.289881) scale(0.1 -0.1)">
      <use xlink:href="#DejaVuSans-37"/>
      <use xlink:href="#DejaVuSans-2e" x="63.623047"/>
      <use xlink:href="#DejaVuSans-36" x="95.410156"/>
      <use xlink:href="#DejaVuSans-37" x="159.033203"/>
     </g>
    </g>
   </g>
   <g id="text_47">
    <g clip-path="url(#pfe8bbecac9)">
     <!-- 8.05 -->
     <g style="fill: #50c46a" transform="translate(404.286347 282.639872) rotate(-52.154489) scale(0.1 -0.1)">
      <use xlink:href="#DejaVuSans-38"/>
      <use xlink:href="#DejaVuSans-2e" x="63.623047"/>
      <use xlink:href="#DejaVuSans-30" x="95.410156"/>
      <use xlink:href="#DejaVuSans-35" x="159.033203"/>
     </g>
    </g>
   </g>
   <g id="text_48">
    <g clip-path="url(#pfe8bbecac9)">
     <!-- 8.42 -->
     <g style="fill: #63cb5f" transform="translate(404.197256 288.489112) rotate(-52.018318) scale(0.1 -0.1)">
      <use xlink:href="#DejaVuSans-38"/>
      <use xlink:href="#DejaVuSans-2e" x="63.623047"/>
      <use xlink:href="#DejaVuSans-34" x="95.410156"/>
      <use xlink:href="#DejaVuSans-32" x="159.033203"/>
     </g>
    </g>
   </g>
   <g id="text_49">
    <g clip-path="url(#pfe8bbecac9)">
     <!-- 8.80 -->
     <g style="fill: #77d153" transform="translate(387.413542 313.752384) rotate(-49.439009) scale(0.1 -0.1)">
      <use xlink:href="#DejaVuSans-38"/>
      <use xlink:href="#DejaVuSans-2e" x="63.623047"/>
      <use xlink:href="#DejaVuSans-38" x="95.410156"/>
      <use xlink:href="#DejaVuSans-30" x="159.033203"/>
     </g>
    </g>
   </g>
  </g>
 </g>
 <defs>
  <clipPath id="pfe8bbecac9">
   <rect x="57.6" y="41.472" width="357.12" height="266.112"/>
  </clipPath>
 </defs>
</svg>
