<?xml version="1.0" encoding="utf-8" standalone="no"?>
<!DOCTYPE svg PUBLIC "-//W3C//DTD SVG 1.1//EN"
  "http://www.w3.org/Graphics/SVG/1.1/DTD/svg11.dtd">
<svg xmlns:xlink="http://www.w3.org/1999/xlink" width="460.8pt" height="345.6pt" viewBox="0 0 460.8 345.6" xmlns="http://www.w3.org/2000/svg" version="1.1">
 <metadata>
  <rdf:RDF xmlns:dc="http://purl.org/dc/elements/1.1/" xmlns:cc="http://creativecommons.org/ns#" xmlns:rdf="http://www.w3.org/1999/02/22-rdf-syntax-ns#">
   <cc:Work>
    <dc:type rdf:resource="http://purl.org/dc/dcmitype/StillImage"/>
    <dc:date>2023-10-11T23:27:19.535678</dc:date>
    <dc:format>image/svg+xml</dc:format>
    <dc:creator>
     <cc:Agent>
      <dc:title>Matplotlib v3.7.3, https://matplotlib.org/</dc:title>
     </cc:Agent>
    </dc:creator>
   </cc:Work>
  </rdf:RDF>
 </metadata>
 <defs>
  <style type="text/css">*{stroke-linejoin: round; stroke-linecap: butt}</style>
 </defs>
 <g id="figure_1">
  <g id="patch_1">
   <path d="M 0 345.6 
L 460.8 345.6 
L 460.8 0 
L 0 0 
z
" style="fill: #ffffff"/>
  </g>
  <g id="axes_1">
   <g id="patch_2">
    <path d="M 57.6 307.584 
L 414.72 307.584 
L 414.72 41.472 
L 57.6 41.472 
z
" style="fill: #ffffff"/>
   </g>
   <g id="matplotlib.axis_1">
    <g id="xtick_1">
     <g id="line2d_1">
      <defs>
       <path id="mcefd4e3fee" d="M 0 0 
L 0 3.5 
" style="stroke: #000000; stroke-width: 0.8"/>
      </defs>
      <g>
       <use xlink:href="#mcefd4e3fee" x="57.6" y="307.584" style="stroke: #000000; stroke-width: 0.8"/>
      </g>
     </g>
     <g id="text_1">
      <!-- −0.50 -->
      <g transform="translate(42.277344 322.182437) scale(0.1 -0.1)">
       <defs>
        <path id="DejaVuSans-2212" d="M 678 2272 
L 4684 2272 
L 4684 1741 
L 678 1741 
L 678 2272 
z
" transform="scale(0.015625)"/>
        <path id="DejaVuSans-30" d="M 2034 4250 
Q 1547 4250 1301 3770 
Q 1056 3291 1056 2328 
Q 1056 1369 1301 889 
Q 1547 409 2034 409 
Q 2525 409 2770 889 
Q 3016 1369 3016 2328 
Q 3016 3291 2770 3770 
Q 2525 4250 2034 4250 
z
M 2034 4750 
Q 2819 4750 3233 4129 
Q 3647 3509 3647 2328 
Q 3647 1150 3233 529 
Q 2819 -91 2034 -91 
Q 1250 -91 836 529 
Q 422 1150 422 2328 
Q 422 3509 836 4129 
Q 1250 4750 2034 4750 
z
" transform="scale(0.015625)"/>
        <path id="DejaVuSans-2e" d="M 684 794 
L 1344 794 
L 1344 0 
L 684 0 
L 684 794 
z
" transform="scale(0.015625)"/>
        <path id="DejaVuSans-35" d="M 691 4666 
L 3169 4666 
L 3169 4134 
L 1269 4134 
L 1269 2991 
Q 1406 3038 1543 3061 
Q 1681 3084 1819 3084 
Q 2600 3084 3056 2656 
Q 3513 2228 3513 1497 
Q 3513 744 3044 326 
Q 2575 -91 1722 -91 
Q 1428 -91 1123 -41 
Q 819 9 494 109 
L 494 744 
Q 775 591 1075 516 
Q 1375 441 1709 441 
Q 2250 441 2565 725 
Q 2881 1009 2881 1497 
Q 2881 1984 2565 2268 
Q 2250 2553 1709 2553 
Q 1456 2553 1204 2497 
Q 953 2441 691 2322 
L 691 4666 
z
" transform="scale(0.015625)"/>
       </defs>
       <use xlink:href="#DejaVuSans-2212"/>
       <use xlink:href="#DejaVuSans-30" x="83.789062"/>
       <use xlink:href="#DejaVuSans-2e" x="147.412109"/>
       <use xlink:href="#DejaVuSans-35" x="179.199219"/>
       <use xlink:href="#DejaVuSans-30" x="242.822266"/>
      </g>
     </g>
    </g>
    <g id="xtick_2">
     <g id="line2d_2">
      <g>
       <use xlink:href="#mcefd4e3fee" x="97.312067" y="307.584" style="stroke: #000000; stroke-width: 0.8"/>
      </g>
     </g>
     <g id="text_2">
      <!-- −0.25 -->
      <g transform="translate(81.989411 322.182437) scale(0.1 -0.1)">
       <defs>
        <path id="DejaVuSans-32" d="M 1228 531 
L 3431 531 
L 3431 0 
L 469 0 
L 469 531 
Q 828 903 1448 1529 
Q 2069 2156 2228 2338 
Q 2531 2678 2651 2914 
Q 2772 3150 2772 3378 
Q 2772 3750 2511 3984 
Q 2250 4219 1831 4219 
Q 1534 4219 1204 4116 
Q 875 4013 500 3803 
L 500 4441 
Q 881 4594 1212 4672 
Q 1544 4750 1819 4750 
Q 2544 4750 2975 4387 
Q 3406 4025 3406 3419 
Q 3406 3131 3298 2873 
Q 3191 2616 2906 2266 
Q 2828 2175 2409 1742 
Q 1991 1309 1228 531 
z
" transform="scale(0.015625)"/>
       </defs>
       <use xlink:href="#DejaVuSans-2212"/>
       <use xlink:href="#DejaVuSans-30" x="83.789062"/>
       <use xlink:href="#DejaVuSans-2e" x="147.412109"/>
       <use xlink:href="#DejaVuSans-32" x="179.199219"/>
       <use xlink:href="#DejaVuSans-35" x="242.822266"/>
      </g>
     </g>
    </g>
    <g id="xtick_3">
     <g id="line2d_3">
      <g>
       <use xlink:href="#mcefd4e3fee" x="137.024134" y="307.584" style="stroke: #000000; stroke-width: 0.8"/>
      </g>
     </g>
     <g id="text_3">
      <!-- 0.00 -->
      <g transform="translate(125.891321 322.182437) scale(0.1 -0.1)">
       <use xlink:href="#DejaVuSans-30"/>
       <use xlink:href="#DejaVuSans-2e" x="63.623047"/>
       <use xlink:href="#DejaVuSans-30" x="95.410156"/>
       <use xlink:href="#DejaVuSans-30" x="159.033203"/>
      </g>
     </g>
    </g>
    <g id="xtick_4">
     <g id="line2d_4">
      <g>
       <use xlink:href="#mcefd4e3fee" x="176.736201" y="307.584" style="stroke: #000000; stroke-width: 0.8"/>
      </g>
     </g>
     <g id="text_4">
      <!-- 0.25 -->
      <g transform="translate(165.603388 322.182437) scale(0.1 -0.1)">
       <use xlink:href="#DejaVuSans-30"/>
       <use xlink:href="#DejaVuSans-2e" x="63.623047"/>
       <use xlink:href="#DejaVuSans-32" x="95.410156"/>
       <use xlink:href="#DejaVuSans-35" x="159.033203"/>
      </g>
     </g>
    </g>
    <g id="xtick_5">
     <g id="line2d_5">
      <g>
       <use xlink:href="#mcefd4e3fee" x="216.448268" y="307.584" style="stroke: #000000; stroke-width: 0.8"/>
      </g>
     </g>
     <g id="text_5">
      <!-- 0.50 -->
      <g transform="translate(205.315455 322.182437) scale(0.1 -0.1)">
       <use xlink:href="#DejaVuSans-30"/>
       <use xlink:href="#DejaVuSans-2e" x="63.623047"/>
       <use xlink:href="#DejaVuSans-35" x="95.410156"/>
       <use xlink:href="#DejaVuSans-30" x="159.033203"/>
      </g>
     </g>
    </g>
    <g id="xtick_6">
     <g id="line2d_6">
      <g>
       <use xlink:href="#mcefd4e3fee" x="256.160334" y="307.584" style="stroke: #000000; stroke-width: 0.8"/>
      </g>
     </g>
     <g id="text_6">
      <!-- 0.75 -->
      <g transform="translate(245.027522 322.182437) scale(0.1 -0.1)">
       <defs>
        <path id="DejaVuSans-37" d="M 525 4666 
L 3525 4666 
L 3525 4397 
L 1831 0 
L 1172 0 
L 2766 4134 
L 525 4134 
L 525 4666 
z
" transform="scale(0.015625)"/>
       </defs>
       <use xlink:href="#DejaVuSans-30"/>
       <use xlink:href="#DejaVuSans-2e" x="63.623047"/>
       <use xlink:href="#DejaVuSans-37" x="95.410156"/>
       <use xlink:href="#DejaVuSans-35" x="159.033203"/>
      </g>
     </g>
    </g>
    <g id="xtick_7">
     <g id="line2d_7">
      <g>
       <use xlink:href="#mcefd4e3fee" x="295.872401" y="307.584" style="stroke: #000000; stroke-width: 0.8"/>
      </g>
     </g>
     <g id="text_7">
      <!-- 1.00 -->
      <g transform="translate(284.739589 322.182437) scale(0.1 -0.1)">
       <defs>
        <path id="DejaVuSans-31" d="M 794 531 
L 1825 531 
L 1825 4091 
L 703 3866 
L 703 4441 
L 1819 4666 
L 2450 4666 
L 2450 531 
L 3481 531 
L 3481 0 
L 794 0 
L 794 531 
z
" transform="scale(0.015625)"/>
       </defs>
       <use xlink:href="#DejaVuSans-31"/>
       <use xlink:href="#DejaVuSans-2e" x="63.623047"/>
       <use xlink:href="#DejaVuSans-30" x="95.410156"/>
       <use xlink:href="#DejaVuSans-30" x="159.033203"/>
      </g>
     </g>
    </g>
    <g id="xtick_8">
     <g id="line2d_8">
      <g>
       <use xlink:href="#mcefd4e3fee" x="335.584468" y="307.584" style="stroke: #000000; stroke-width: 0.8"/>
      </g>
     </g>
     <g id="text_8">
      <!-- 1.25 -->
      <g transform="translate(324.451656 322.182437) scale(0.1 -0.1)">
       <use xlink:href="#DejaVuSans-31"/>
       <use xlink:href="#DejaVuSans-2e" x="63.623047"/>
       <use xlink:href="#DejaVuSans-32" x="95.410156"/>
       <use xlink:href="#DejaVuSans-35" x="159.033203"/>
      </g>
     </g>
    </g>
    <g id="xtick_9">
     <g id="line2d_9">
      <g>
       <use xlink:href="#mcefd4e3fee" x="375.296535" y="307.584" style="stroke: #000000; stroke-width: 0.8"/>
      </g>
     </g>
     <g id="text_9">
      <!-- 1.50 -->
      <g transform="translate(364.163723 322.182437) scale(0.1 -0.1)">
       <use xlink:href="#DejaVuSans-31"/>
       <use xlink:href="#DejaVuSans-2e" x="63.623047"/>
       <use xlink:href="#DejaVuSans-35" x="95.410156"/>
       <use xlink:href="#DejaVuSans-30" x="159.033203"/>
      </g>
     </g>
    </g>
    <g id="text_10">
     <!-- x1 -->
     <g transform="translate(230.019375 335.860562) scale(0.1 -0.1)">
      <defs>
       <path id="DejaVuSans-78" d="M 3513 3500 
L 2247 1797 
L 3578 0 
L 2900 0 
L 1881 1375 
L 863 0 
L 184 0 
L 1544 1831 
L 300 3500 
L 978 3500 
L 1906 2253 
L 2834 3500 
L 3513 3500 
z
" transform="scale(0.015625)"/>
      </defs>
      <use xlink:href="#DejaVuSans-78"/>
      <use xlink:href="#DejaVuSans-31" x="59.179688"/>
     </g>
    </g>
   </g>
   <g id="matplotlib.axis_2">
    <g id="ytick_1">
     <g id="line2d_10">
      <defs>
       <path id="maee2dba495" d="M 0 0 
L -3.5 0 
" style="stroke: #000000; stroke-width: 0.8"/>
      </defs>
      <g>
       <use xlink:href="#maee2dba495" x="57.6" y="307.584" style="stroke: #000000; stroke-width: 0.8"/>
      </g>
     </g>
     <g id="text_11">
      <!-- −0.5 -->
      <g transform="translate(26.317187 311.383219) scale(0.1 -0.1)">
       <use xlink:href="#DejaVuSans-2212"/>
       <use xlink:href="#DejaVuSans-30" x="83.789062"/>
       <use xlink:href="#DejaVuSans-2e" x="147.412109"/>
       <use xlink:href="#DejaVuSans-35" x="179.199219"/>
      </g>
     </g>
    </g>
    <g id="ytick_2">
     <g id="line2d_11">
      <g>
       <use xlink:href="#maee2dba495" x="57.6" y="274.32" style="stroke: #000000; stroke-width: 0.8"/>
      </g>
     </g>
     <g id="text_12">
      <!-- 0.0 -->
      <g transform="translate(34.696875 278.119219) scale(0.1 -0.1)">
       <use xlink:href="#DejaVuSans-30"/>
       <use xlink:href="#DejaVuSans-2e" x="63.623047"/>
       <use xlink:href="#DejaVuSans-30" x="95.410156"/>
      </g>
     </g>
    </g>
    <g id="ytick_3">
     <g id="line2d_12">
      <g>
       <use xlink:href="#maee2dba495" x="57.6" y="241.056" style="stroke: #000000; stroke-width: 0.8"/>
      </g>
     </g>
     <g id="text_13">
      <!-- 0.5 -->
      <g transform="translate(34.696875 244.855219) scale(0.1 -0.1)">
       <use xlink:href="#DejaVuSans-30"/>
       <use xlink:href="#DejaVuSans-2e" x="63.623047"/>
       <use xlink:href="#DejaVuSans-35" x="95.410156"/>
      </g>
     </g>
    </g>
    <g id="ytick_4">
     <g id="line2d_13">
      <g>
       <use xlink:href="#maee2dba495" x="57.6" y="207.792" style="stroke: #000000; stroke-width: 0.8"/>
      </g>
     </g>
     <g id="text_14">
      <!-- 1.0 -->
      <g transform="translate(34.696875 211.591219) scale(0.1 -0.1)">
       <use xlink:href="#DejaVuSans-31"/>
       <use xlink:href="#DejaVuSans-2e" x="63.623047"/>
       <use xlink:href="#DejaVuSans-30" x="95.410156"/>
      </g>
     </g>
    </g>
    <g id="ytick_5">
     <g id="line2d_14">
      <g>
       <use xlink:href="#maee2dba495" x="57.6" y="174.528" style="stroke: #000000; stroke-width: 0.8"/>
      </g>
     </g>
     <g id="text_15">
      <!-- 1.5 -->
      <g transform="translate(34.696875 178.327219) scale(0.1 -0.1)">
       <use xlink:href="#DejaVuSans-31"/>
       <use xlink:href="#DejaVuSans-2e" x="63.623047"/>
       <use xlink:href="#DejaVuSans-35" x="95.410156"/>
      </g>
     </g>
    </g>
    <g id="ytick_6">
     <g id="line2d_15">
      <g>
       <use xlink:href="#maee2dba495" x="57.6" y="141.264" style="stroke: #000000; stroke-width: 0.8"/>
      </g>
     </g>
     <g id="text_16">
      <!-- 2.0 -->
      <g transform="translate(34.696875 145.063219) scale(0.1 -0.1)">
       <use xlink:href="#DejaVuSans-32"/>
       <use xlink:href="#DejaVuSans-2e" x="63.623047"/>
       <use xlink:href="#DejaVuSans-30" x="95.410156"/>
      </g>
     </g>
    </g>
    <g id="ytick_7">
     <g id="line2d_16">
      <g>
       <use xlink:href="#maee2dba495" x="57.6" y="108" style="stroke: #000000; stroke-width: 0.8"/>
      </g>
     </g>
     <g id="text_17">
      <!-- 2.5 -->
      <g transform="translate(34.696875 111.799219) scale(0.1 -0.1)">
       <use xlink:href="#DejaVuSans-32"/>
       <use xlink:href="#DejaVuSans-2e" x="63.623047"/>
       <use xlink:href="#DejaVuSans-35" x="95.410156"/>
      </g>
     </g>
    </g>
    <g id="ytick_8">
     <g id="line2d_17">
      <g>
       <use xlink:href="#maee2dba495" x="57.6" y="74.736" style="stroke: #000000; stroke-width: 0.8"/>
      </g>
     </g>
     <g id="text_18">
      <!-- 3.0 -->
      <g transform="translate(34.696875 78.535219) scale(0.1 -0.1)">
       <defs>
        <path id="DejaVuSans-33" d="M 2597 2516 
Q 3050 2419 3304 2112 
Q 3559 1806 3559 1356 
Q 3559 666 3084 287 
Q 2609 -91 1734 -91 
Q 1441 -91 1130 -33 
Q 819 25 488 141 
L 488 750 
Q 750 597 1062 519 
Q 1375 441 1716 441 
Q 2309 441 2620 675 
Q 2931 909 2931 1356 
Q 2931 1769 2642 2001 
Q 2353 2234 1838 2234 
L 1294 2234 
L 1294 2753 
L 1863 2753 
Q 2328 2753 2575 2939 
Q 2822 3125 2822 3475 
Q 2822 3834 2567 4026 
Q 2313 4219 1838 4219 
Q 1578 4219 1281 4162 
Q 984 4106 628 3988 
L 628 4550 
Q 988 4650 1302 4700 
Q 1616 4750 1894 4750 
Q 2613 4750 3031 4423 
Q 3450 4097 3450 3541 
Q 3450 3153 3228 2886 
Q 3006 2619 2597 2516 
z
" transform="scale(0.015625)"/>
       </defs>
       <use xlink:href="#DejaVuSans-33"/>
       <use xlink:href="#DejaVuSans-2e" x="63.623047"/>
       <use xlink:href="#DejaVuSans-30" x="95.410156"/>
      </g>
     </g>
    </g>
    <g id="ytick_9">
     <g id="line2d_18">
      <g>
       <use xlink:href="#maee2dba495" x="57.6" y="41.472" style="stroke: #000000; stroke-width: 0.8"/>
      </g>
     </g>
     <g id="text_19">
      <!-- 3.5 -->
      <g transform="translate(34.696875 45.271219) scale(0.1 -0.1)">
       <use xlink:href="#DejaVuSans-33"/>
       <use xlink:href="#DejaVuSans-2e" x="63.623047"/>
       <use xlink:href="#DejaVuSans-35" x="95.410156"/>
      </g>
     </g>
    </g>
    <g id="text_20">
     <!-- x2 -->
     <g transform="translate(20.2375 180.668625) rotate(-90) scale(0.1 -0.1)">
      <use xlink:href="#DejaVuSans-78"/>
      <use xlink:href="#DejaVuSans-32" x="59.179688"/>
     </g>
    </g>
   </g>
   <g id="PathCollection_1">
    <path d="M 136.96 274.286703 
L 136.96 274.286703 
L 136.96 274.286703 
L 136.96 274.286703 
L 136.96 274.286703 
z
" clip-path="url(#p7461dda31b)" style="fill: none; stroke: #440154; stroke-width: 1.5"/>
   </g>
   <g id="PathCollection_2">
    <path d="M 57.6 256.556534 
L 67.966847 251.938936 
L 78.333694 247.544426 
L 89.415495 243.074508 
L 96.074358 240.495681 
L 96.074358 240.495681 
" clip-path="url(#p7461dda31b)" style="fill: none; stroke: #470d60; stroke-width: 1.5"/>
    <path d="M 123.609035 230.632271 
L 135.172613 226.858773 
L 147.684324 223.01696 
L 159.481081 219.62502 
L 171.277838 216.461357 
L 183.074595 213.534042 
L 194.513874 210.932631 
L 205.238198 208.719848 
L 215.605045 206.805854 
L 225.614414 205.188009 
L 234.908829 203.911151 
L 243.488288 202.95024 
L 251.352793 202.279304 
L 258.85982 201.855795 
L 265.651892 201.687905 
L 272.086486 201.754355 
L 277.806126 202.037975 
L 282.810811 202.500917 
L 287.501318 203.163676 
L 291.539056 203.962811 
L 294.965045 204.858174 
L 297.878632 205.827459 
L 300.684685 207.009718 
L 302.967029 208.224865 
L 304.949751 209.556757 
L 306.513228 210.888649 
L 307.834234 212.336829 
L 308.692151 213.552432 
L 309.407454 214.884324 
L 309.999519 216.482595 
L 310.339806 218.080865 
L 310.460222 219.679135 
L 310.35663 221.543784 
L 310.019272 223.408432 
L 309.379317 225.539459 
L 308.496312 227.670486 
L 307.241292 230.067892 
L 305.689369 232.532642 
L 303.79401 235.129081 
L 301.360437 238.059243 
L 298.53982 241.090972 
L 295.322523 244.228007 
L 291.490809 247.648865 
L 286.953432 251.378162 
L 282.061755 255.107459 
L 276.376216 259.151328 
L 270.299099 263.20239 
L 263.507027 267.464017 
L 256.357477 271.700824 
L 248.426031 276.151351 
L 239.556036 280.864216 
L 230.619099 285.369726 
L 220.951693 290.003027 
L 210.242883 294.875296 
L 199.518559 299.507776 
L 188.794234 303.91355 
L 179.438192 307.584 
L 179.438192 307.584 
" clip-path="url(#p7461dda31b)" style="fill: none; stroke: #470d60; stroke-width: 1.5"/>
   </g>
   <g id="PathCollection_3">
    <path d="M 57.6 234.982356 
L 57.892477 234.862703 
L 57.957477 234.836174 
L 58.314955 234.690325 
L 58.545242 234.596324 
L 58.672432 234.54453 
L 59.02991 234.398964 
L 59.199372 234.329946 
L 59.387387 234.253555 
L 59.744865 234.108272 
L 59.854875 234.063568 
L 60.102342 233.963246 
L 60.45982 233.818247 
L 60.511755 233.797189 
L 60.817297 233.673602 
L 61.170032 233.530811 
L 61.174775 233.528896 
L 61.532252 233.384622 
L 61.829822 233.264432 
L 61.88973 233.240293 
L 62.247207 233.096305 
L 62.491007 232.998054 
L 62.604685 232.952351 
L 62.962162 232.808649 
L 63.153595 232.731676 
L 63.31964 232.665069 
L 63.677117 232.521654 
L 63.817591 232.465297 
L 64.034595 232.378445 
L 64.392072 232.235317 
L 64.483003 232.198919 
L 64.74955 232.092477 
L 65.107027 231.949638 
L 65.149837 231.932541 
L 65.464505 231.807166 
L 65.81811 231.666162 
L 65.821982 231.664622 
L 66.179459 231.522508 
L 66.48792 231.399784 
L 66.536937 231.380328 
L 66.894414 231.238504 
L 67.15917 231.133405 
L 67.251892 231.096685 
L 67.609369 230.955151 
L 67.831866 230.867027 
L 67.966847 230.813692 
L 68.324324 230.672449 
L 68.506017 230.600649 
L 68.580357 230.571341 
" clip-path="url(#p7461dda31b)" style="fill: none; stroke: #481a6c; stroke-width: 1.5"/>
    <path d="M 96.027538 220.206683 
L 110.506667 215.101077 
L 124.805766 210.295684 
L 139.104865 205.7223 
L 153.403964 201.380016 
L 167.345586 197.370292 
L 181.287207 193.585355 
L 194.905603 190.111135 
L 208.812973 186.799224 
L 222.03964 183.881188 
L 234.908829 181.271938 
L 247.420541 178.968036 
L 258.989061 177.058595 
L 270.299099 175.415912 
L 281.023423 174.083894 
L 291.032793 173.061468 
L 300.684685 172.303331 
L 309.621622 171.828324 
L 317.843604 171.613266 
L 325.350631 171.632884 
L 332.50018 171.877 
L 338.934775 172.320309 
L 344.654414 172.928581 
L 350.016577 173.721568 
L 354.836138 174.661189 
L 359.134043 175.726703 
L 362.885766 176.879822 
L 366.207702 178.124108 
L 369.148854 179.456 
L 371.822703 180.919572 
L 374.042029 182.386162 
L 376.035983 183.984432 
L 377.664236 185.582703 
L 378.984374 187.180973 
L 380.044685 188.788855 
L 380.978375 190.643892 
L 381.643178 192.508541 
L 382.065799 194.373189 
L 382.272163 196.237838 
L 382.27011 198.368865 
L 382.038907 200.499892 
L 381.531313 202.897297 
L 380.75964 205.365456 
L 379.701804 207.958486 
L 378.372557 210.62227 
L 376.649903 213.552432 
L 374.675237 216.482595 
L 372.18018 219.77165 
L 369.32036 223.164567 
L 365.885842 226.871351 
L 362.124724 230.600649 
L 357.774794 234.596324 
L 352.790075 238.858378 
L 347.156757 243.361195 
L 341.437117 247.664136 
L 334.645045 252.491011 
L 327.495495 257.300436 
L 319.630991 262.32447 
L 311.051532 267.537415 
L 302.114595 272.714697 
L 292.462703 278.055618 
L 281.958786 283.609946 
L 270.656577 289.32123 
L 259.217297 294.852309 
L 247.063063 300.480548 
L 234.551351 306.03003 
L 230.950546 307.584 
L 230.950546 307.584 
" clip-path="url(#p7461dda31b)" style="fill: none; stroke: #481a6c; stroke-width: 1.5"/>
   </g>
   <g id="PathCollection_4">
    <path d="M 57.6 219.012044 
L 72.614054 213.269972 
L 88.532714 207.42573 
L 90.544686 206.704578 
L 90.544686 206.704578 
" clip-path="url(#p7461dda31b)" style="fill: none; stroke: #482576; stroke-width: 1.5"/>
    <path d="M 118.370437 197.12267 
L 134.10018 192.025104 
L 149.829189 187.156115 
L 166.01011 182.386162 
L 182.002162 177.912691 
L 197.373694 173.842802 
L 212.745225 170.005009 
L 227.401802 166.569617 
L 242.058378 163.362851 
L 256 160.535992 
L 269.941622 157.941109 
L 282.922135 155.748324 
L 295.68 153.820171 
L 307.834234 152.211279 
L 319.273514 150.920511 
L 329.997838 149.928596 
L 340.007207 149.215382 
L 349.659099 148.746208 
L 358.596036 148.528958 
L 367.175495 148.545777 
L 375.04 148.785759 
L 382.18955 149.221678 
L 388.981622 149.862183 
L 395.058739 150.658311 
L 400.420901 151.571008 
L 405.425586 152.638213 
L 410.162426 153.883676 
L 414.362523 155.227723 
L 414.72 155.354637 
L 414.72 155.354637 
" clip-path="url(#p7461dda31b)" style="fill: none; stroke: #482576; stroke-width: 1.5"/>
    <path d="M 414.72 218.83078 
L 410.43027 222.91806 
L 405.404933 227.404108 
L 399.684068 232.198919 
L 393.618054 236.99373 
L 386.836757 242.068597 
L 379.32973 247.398171 
L 371.465225 252.711109 
L 362.785717 258.304 
L 353.233874 264.179679 
L 343.224505 270.066617 
L 332.857658 275.910257 
L 321.575643 282.011676 
L 309.621622 288.215679 
L 297.467387 294.276953 
L 296.859454 294.573964 
L 296.859454 294.573964 
" clip-path="url(#p7461dda31b)" style="fill: none; stroke: #482576; stroke-width: 1.5"/>
    <path d="M 270.216827 307.07312 
L 269.941622 307.197148 
L 269.674469 307.317622 
L 269.584144 307.35827 
L 269.226667 307.519146 
L 269.082593 307.584 
" clip-path="url(#p7461dda31b)" style="fill: none; stroke: #482576; stroke-width: 1.5"/>
   </g>
   <g id="PathCollection_5">
    <path d="M 414.72 244.674632 
L 406.297008 250.312649 
L 396.735521 256.439351 
L 386.479279 262.7325 
L 376.112432 268.838514 
L 365.030631 275.116192 
L 353.233874 281.546983 
L 340.722162 288.113633 
L 328.034574 294.531459 
L 327.101193 294.994568 
L 327.101193 294.994568 
" clip-path="url(#p7461dda31b)" style="fill: none; stroke: #46307e; stroke-width: 1.5"/>
    <path d="M 74.931681 199.284957 
L 91.648291 193.307676 
L 108.719279 187.440212 
L 126.235676 181.664225 
L 143.037117 176.354666 
L 159.838559 171.270762 
L 176.64 166.413858 
L 193.113989 161.875027 
L 209.885405 157.486199 
L 225.971892 153.502432 
L 241.700901 149.828561 
L 257.42991 146.3829 
L 272.896032 143.228541 
L 287.815495 140.418259 
L 301.757117 138.011998 
L 315.341261 135.886644 
L 328.567928 134.041759 
L 341.07964 132.518445 
L 353.233874 131.265218 
L 364.673153 130.311181 
L 375.397477 129.637494 
L 385.406847 129.225009 
L 395.058739 129.050135 
L 404.006521 129.110486 
L 412.217658 129.381966 
L 414.72 129.510744 
L 414.72 129.510744 
" clip-path="url(#p7461dda31b)" style="fill: none; stroke: #46307e; stroke-width: 1.5"/>
   </g>
   <g id="PathCollection_6">
    <path d="M 414.72 262.086369 
L 403.464206 268.692757 
L 391.207454 275.618595 
L 378.484009 282.544432 
L 365.030631 289.605048 
L 356.164664 294.123034 
L 356.164664 294.123034 
" clip-path="url(#p7461dda31b)" style="fill: none; stroke: #443b84; stroke-width: 1.5"/>
    <path d="M 329.715434 307.027204 
L 329.664623 307.051243 
L 329.64036 307.062703 
L 329.282883 307.231521 
L 329.100633 307.317622 
L 328.925405 307.400269 
L 328.567928 307.568937 
L 328.535999 307.584 
" clip-path="url(#p7461dda31b)" style="fill: none; stroke: #443b84; stroke-width: 1.5"/>
    <path d="M 57.6 194.112001 
L 74.758919 187.838856 
L 92.48776 181.587027 
L 110.528947 175.460324 
L 127.950522 169.76648 
L 127.950522 169.76648 
" clip-path="url(#p7461dda31b)" style="fill: none; stroke: #443b84; stroke-width: 1.5"/>
    <path d="M 156.056009 161.038237 
L 174.137658 155.722213 
L 192.058813 150.687135 
L 209.966252 145.892324 
L 227.401802 141.456313 
L 244.360089 137.368216 
L 261.004685 133.581053 
L 277.448649 130.068111 
L 293.177658 126.931023 
L 308.767201 124.049297 
L 323.563243 121.537103 
L 337.862342 119.329778 
L 351.446486 117.448898 
L 364.673153 115.836576 
L 377.184865 114.528163 
L 389.339099 113.478483 
L 400.778378 112.710597 
L 411.502703 112.206071 
L 414.72 112.098918 
L 414.72 112.098918 
" clip-path="url(#p7461dda31b)" style="fill: none; stroke: #443b84; stroke-width: 1.5"/>
   </g>
   <g id="PathCollection_7">
    <path d="M 414.72 276.15691 
L 401.493333 283.349128 
L 387.551712 290.672378 
L 386.745167 291.088528 
L 386.745167 291.088528 
" clip-path="url(#p7461dda31b)" style="fill: none; stroke: #404588; stroke-width: 1.5"/>
    <path d="M 360.503818 304.210499 
L 360.383423 304.268921 
L 360.139246 304.387459 
L 360.025946 304.442377 
L 359.668468 304.615684 
L 359.589775 304.653838 
L 359.310991 304.788796 
L 359.039634 304.920216 
L 358.953514 304.961861 
L 358.596036 305.13474 
L 358.48883 305.186595 
L 358.238559 305.307462 
L 357.937391 305.452973 
L 357.881081 305.480138 
L 357.523604 305.65259 
L 357.385249 305.719351 
L 357.166126 305.824925 
L 356.832512 305.98573 
L 356.808649 305.997215 
L 356.451171 306.169241 
L 356.279031 306.252108 
L 356.093694 306.341192 
L 355.736216 306.513085 
L 355.724981 306.518486 
L 355.378739 306.684699 
L 355.17017 306.784865 
L 355.021261 306.85627 
L 354.663784 307.027736 
L 354.614774 307.051243 
L 354.306306 307.198972 
L 354.058664 307.317622 
L 353.948829 307.370166 
L 353.591351 307.541206 
L 353.501919 307.584 
" clip-path="url(#p7461dda31b)" style="fill: none; stroke: #404588; stroke-width: 1.5"/>
    <path d="M 57.6 183.655944 
L 57.957477 183.52486 
L 58.157053 183.451676 
L 58.314955 183.39385 
L 58.672432 183.262947 
L 58.884468 183.185297 
L 59.02991 183.132106 
L 59.387387 183.001384 
L 59.612877 182.918919 
L 59.744865 182.870713 
L 60.102342 182.740172 
L 60.342282 182.652541 
L 60.45982 182.60967 
L 60.817297 182.47931 
L 61.072686 182.386162 
L 61.174775 182.348977 
L 61.532252 182.218799 
L 61.804093 182.119784 
L 61.88973 182.088633 
L 62.024638 182.039574 
" clip-path="url(#p7461dda31b)" style="fill: none; stroke: #404588; stroke-width: 1.5"/>
    <path d="M 89.678602 172.237826 
L 108.719279 165.785342 
L 127.665586 159.601167 
L 146.254414 153.761432 
L 164.843243 148.147285 
L 183.432072 142.760004 
L 201.901628 137.634595 
L 220.252252 132.770604 
L 238.483604 128.16892 
L 256 123.97066 
L 273.516396 119.998693 
L 290.733217 116.324324 
L 307.476757 112.979959 
L 323.563243 109.990821 
L 338.934775 107.351966 
L 353.948829 104.992968 
L 368.605405 102.913299 
L 382.673163 101.140757 
L 396.131171 99.667581 
L 409.045205 98.476973 
L 414.72 98.028474 
L 414.72 98.028474 
" clip-path="url(#p7461dda31b)" style="fill: none; stroke: #404588; stroke-width: 1.5"/>
   </g>
   <g id="PathCollection_8">
    <path d="M 392.175015 299.827913 
L 392.112752 299.859027 
L 391.841441 299.994408 
L 391.579022 300.125405 
L 391.483964 300.172788 
L 391.126486 300.351005 
L 391.044699 300.391784 
L 390.769009 300.529042 
L 390.509768 300.658162 
L 390.411532 300.70702 
L 390.054054 300.884838 
L 389.974247 300.924541 
L 389.696577 301.062475 
L 389.438115 301.190919 
L 389.339099 301.240054 
L 388.981622 301.417475 
L 388.901393 301.457297 
L 388.624144 301.594715 
L 388.36406 301.723676 
L 388.266667 301.771898 
L 387.909189 301.948921 
L 387.826135 301.990054 
L 387.551712 302.125767 
L 387.2876 302.256432 
L 387.194234 302.302557 
L 386.836757 302.479183 
L 386.748468 302.522811 
L 386.479279 302.655639 
L 386.208733 302.789189 
L 386.121802 302.832039 
L 385.764324 303.008268 
L 385.668392 303.055568 
L 385.406847 303.184336 
L 385.127455 303.321946 
L 385.049369 303.360351 
L 384.691892 303.536182 
L 384.585902 303.588324 
L 384.334414 303.711866 
L 384.043764 303.854703 
L 383.976937 303.887497 
L 383.619459 304.062932 
L 383.500996 304.121081 
L 383.261982 304.238234 
L 382.957657 304.387459 
L 382.904505 304.413485 
L 382.547027 304.588524 
L 382.413671 304.653838 
L 382.18955 304.763448 
L 381.869131 304.920216 
L 381.832072 304.938322 
L 381.474595 305.112964 
L 381.323923 305.186595 
L 381.117117 305.287513 
L 380.778183 305.452973 
L 380.75964 305.462013 
L 380.402162 305.636259 
L 380.231752 305.719351 
L 380.044685 305.810435 
L 379.687207 305.984561 
L 379.684807 305.98573 
L 379.32973 306.158414 
L 379.137152 306.252108 
L 378.972252 306.332221 
L 378.614775 306.505951 
L 378.588979 306.518486 
L 378.257297 306.679437 
L 378.040122 306.784865 
L 377.89982 306.852878 
L 377.542342 307.026211 
L 377.490717 307.051243 
L 377.184865 307.199333 
L 376.940658 307.317622 
L 376.827387 307.37241 
L 376.46991 307.545348 
L 376.390019 307.584 
" clip-path="url(#p7461dda31b)" style="fill: none; stroke: #3c4f8a; stroke-width: 1.5"/>
    <path d="M 57.6 174.070066 
L 76.903784 167.183646 
L 96.565045 160.407206 
L 115.868829 153.983761 
L 135.264866 147.756973 
L 143.694285 145.121703 
L 143.694285 145.121703 
" clip-path="url(#p7461dda31b)" style="fill: none; stroke: #3c4f8a; stroke-width: 1.5"/>
    <path d="M 171.784336 136.65015 
L 190.939099 131.148664 
L 210.242883 125.833298 
L 229.189189 120.843781 
L 248.245788 116.057946 
L 266.724324 111.646651 
L 284.598198 107.601904 
L 302.114595 103.858556 
L 319.273514 100.412815 
L 336.074955 97.261773 
L 352.518919 94.403446 
L 368.247928 91.891375 
L 383.429931 89.686486 
L 398.276036 87.754734 
L 412.575135 86.120602 
L 414.72 85.895788 
L 414.72 85.895788 
" clip-path="url(#p7461dda31b)" style="fill: none; stroke: #3c4f8a; stroke-width: 1.5"/>
   </g>
   <g id="PathCollection_9">
    <path d="M 414.72 299.11578 
L 414.362523 299.296028 
L 414.302547 299.32627 
L 414.005045 299.47608 
L 413.773641 299.592649 
L 413.647568 299.65607 
L 413.29009 299.835945 
L 413.244217 299.859027 
L 412.932613 300.015607 
L 412.714187 300.125405 
L 412.575135 300.195209 
L 412.217658 300.37471 
L 412.183654 300.391784 
L 411.86018 300.553985 
L 411.6525 300.658162 
L 411.502703 300.733201 
L 411.145225 300.912329 
L 411.120854 300.924541 
L 410.787748 301.091221 
L 410.588577 301.190919 
L 410.43027 301.270054 
L 410.072793 301.448809 
L 410.055816 301.457297 
L 409.715315 301.627319 
L 409.522415 301.723676 
L 409.357838 301.805772 
L 409.00036 301.984154 
L 408.988536 301.990054 
L 408.642883 302.162286 
L 408.454011 302.256432 
L 408.285405 302.340362 
L 407.927928 302.518372 
L 407.919013 302.522811 
L 407.57045 302.696129 
L 407.383364 302.789189 
L 407.212973 302.87383 
L 406.855495 303.051468 
L 406.847244 303.055568 
L 406.498018 303.228852 
L 406.310471 303.321946 
L 406.140541 303.406182 
L 405.783063 303.583447 
L 405.773226 303.588324 
L 405.425586 303.760461 
L 405.23533 303.854703 
L 405.068108 303.937422 
L 404.710631 304.114315 
L 404.696957 304.121081 
L 404.353153 304.290963 
L 404.157937 304.387459 
L 403.995676 304.467558 
L 403.638198 304.644079 
L 403.618434 304.653838 
L 403.280721 304.820362 
L 403.078291 304.920216 
L 402.923243 304.996594 
L 402.565766 305.172744 
L 402.537656 305.186595 
L 402.208288 305.348665 
L 401.996388 305.452973 
L 401.850811 305.524537 
L 401.493333 305.700315 
L 401.454618 305.719351 
L 401.135856 305.875877 
L 400.912227 305.98573 
L 400.778378 306.051391 
L 400.420901 306.226798 
L 400.36932 306.252108 
L 400.063423 306.402004 
L 399.825805 306.518486 
L 399.705946 306.577163 
L 399.348468 306.752199 
L 399.281758 306.784865 
L 398.990991 306.927052 
L 398.737119 307.051243 
L 398.633514 307.101858 
L 398.276036 307.276523 
L 398.19193 307.317622 
L 397.918559 307.451025 
L 397.646167 307.584 
" clip-path="url(#p7461dda31b)" style="fill: none; stroke: #38598c; stroke-width: 1.5"/>
    <path d="M 57.6 165.16769 
L 57.867264 165.071568 
L 57.957477 165.039159 
L 58.314955 164.910772 
L 58.608868 164.805189 
L 58.672432 164.782381 
L 59.02991 164.654153 
L 59.35137 164.538811 
L 59.387387 164.525902 
L 59.744865 164.397833 
L 60.094771 164.272432 
L 60.102342 164.269722 
L 60.45982 164.141813 
L 60.817297 164.013856 
L 60.839103 164.006054 
L 61.174775 163.886091 
L 61.532252 163.758294 
L 61.584351 163.739676 
L 61.88973 163.630667 
L 62.247207 163.503031 
L 62.330507 163.473297 
L 62.604685 163.375542 
L 62.962162 163.248066 
L 63.077573 163.206919 
L 63.31964 163.120715 
L 63.677117 162.993399 
L 63.825552 162.940541 
L 64.034595 162.866185 
L 64.392072 162.73903 
L 64.574447 162.674162 
L 64.74955 162.611952 
L 65.107027 162.484958 
L 65.324259 162.407784 
L 65.464505 162.358017 
L 65.821982 162.231184 
L 66.074991 162.141405 
L 66.179459 162.104378 
L 66.536937 161.977706 
L 66.826646 161.875027 
L 66.894414 161.851036 
L 67.251892 161.724525 
L 67.579226 161.608649 
L 67.609369 161.59799 
L 67.966847 161.47164 
L 68.324324 161.345246 
L 68.332744 161.34227 
L 68.681802 161.219052 
L 69.039279 161.092819 
L 69.087233 161.075892 
L 69.396757 160.966759 
L 69.754234 160.840688 
L 69.842656 160.809514 
L 70.111712 160.714762 
L 70.469189 160.588853 
L 70.599015 160.543135 
L 70.826667 160.46306 
L 71.184144 160.337313 
L 71.356312 160.276757 
L 71.541622 160.211653 
L 71.899099 160.086069 
L 72.114551 160.010378 
L 72.256577 159.96054 
L 72.614054 159.835119 
L 72.873732 159.744 
L 72.971532 159.709722 
L 73.329009 159.584464 
L 73.63386 159.477622 
L 73.686486 159.459199 
L 74.043964 159.334103 
L 74.394937 159.211243 
L 74.401441 159.208969 
L 74.758919 159.084036 
L 75.116396 158.959061 
L 75.157018 158.944865 
L 75.473874 158.834263 
L 75.831351 158.709451 
L 75.920063 158.678486 
L 76.188829 158.584783 
L 76.546306 158.460135 
L 76.617896 158.435177 
" clip-path="url(#p7461dda31b)" style="fill: none; stroke: #38598c; stroke-width: 1.5"/>
    <path d="M 104.391657 148.977948 
L 124.805766 142.306806 
L 144.824505 135.993691 
L 165.200721 129.800494 
L 185.219459 123.945473 
L 205.238198 118.320181 
L 224.899459 113.022244 
L 244.560721 107.953663 
L 263.864505 103.205963 
L 282.942033 98.743351 
L 301.757117 94.573618 
L 319.630991 90.833972 
L 337.147387 87.388131 
L 354.306306 84.233443 
L 371.107748 81.3681 
L 387.551712 78.791257 
L 403.280721 76.551346 
L 414.72 75.069509 
L 414.72 75.069509 
" clip-path="url(#p7461dda31b)" style="fill: none; stroke: #38598c; stroke-width: 1.5"/>
   </g>
   <g id="PathCollection_10">
    <path d="M 57.6 156.820527 
L 78.093426 149.621622 
L 98.68126 142.61922 
L 98.68126 142.61922 
" clip-path="url(#p7461dda31b)" style="fill: none; stroke: #33628d; stroke-width: 1.5"/>
    <path d="M 126.65268 133.469827 
L 147.326847 126.975412 
L 168.418018 120.584785 
L 189.509189 114.432418 
L 210.313676 108.599351 
L 231.112375 103.005405 
L 251.352793 97.794143 
L 271.014054 92.956929 
L 290.317838 88.429686 
L 309.264144 84.207432 
L 327.852973 80.285959 
L 346.441802 76.593113 
L 364.315676 73.268519 
L 381.474595 70.296716 
L 398.276036 67.607718 
L 414.362523 65.250934 
L 414.72 65.201053 
L 414.72 65.201053 
" clip-path="url(#p7461dda31b)" style="fill: none; stroke: #33628d; stroke-width: 1.5"/>
   </g>
   <g id="PathCollection_11">
    <path d="M 57.6 148.936229 
L 78.691171 141.571485 
L 100.13982 134.316421 
L 121.237659 127.408339 
L 121.237659 127.408339 
" clip-path="url(#p7461dda31b)" style="fill: none; stroke: #2f6b8e; stroke-width: 1.5"/>
    <path d="M 149.135762 118.619336 
L 170.562883 112.136122 
L 191.654054 105.982379 
L 212.678229 100.075243 
L 233.478919 94.457143 
L 254.57009 88.994644 
L 274.946306 83.946301 
L 294.965045 79.211833 
L 314.703811 74.769297 
L 334.287568 70.591508 
L 353.226892 66.777946 
L 371.526336 63.315027 
L 389.696577 60.103228 
L 407.495983 57.188324 
L 414.72 56.073832 
L 414.72 56.073832 
" clip-path="url(#p7461dda31b)" style="fill: none; stroke: #2f6b8e; stroke-width: 1.5"/>
   </g>
   <g id="PathCollection_12">
    <path d="M 57.6 141.445256 
L 79.048649 133.993133 
L 100.656921 126.713081 
L 122.696446 119.520865 
L 144.824505 112.535443 
L 151.5721 110.452244 
L 151.5721 110.452244 
" clip-path="url(#p7461dda31b)" style="fill: none; stroke: #2c738e; stroke-width: 1.5"/>
    <path d="M 179.585737 102.038707 
L 201.179612 95.813189 
L 222.754595 89.821796 
L 244.213765 84.092541 
L 265.651892 78.602605 
L 286.385586 73.520426 
L 306.761802 68.749916 
L 326.780541 64.286386 
L 346.477724 60.118486 
L 366.103063 56.196021 
L 384.92463 52.659892 
L 403.280721 49.434949 
L 414.72 47.542286 
L 414.72 47.542286 
" clip-path="url(#p7461dda31b)" style="fill: none; stroke: #2c738e; stroke-width: 1.5"/>
   </g>
   <g id="PathCollection_13">
    <path d="M 57.6 134.294091 
L 57.948641 134.171676 
L 57.957477 134.168576 
L 58.314955 134.043223 
L 58.672432 133.917835 
L 58.70819 133.905297 
L 59.02991 133.792595 
L 59.387387 133.66734 
L 59.468523 133.638919 
L 59.744865 133.542207 
L 60.102342 133.417086 
L 60.229631 133.372541 
L 60.45982 133.29206 
L 60.817297 133.167071 
L 60.991516 133.106162 
L 61.174775 133.042152 
L 61.532252 132.917297 
L 61.75418 132.839784 
L 61.88973 132.792484 
L 62.247207 132.667762 
L 62.517624 132.573405 
L 62.604685 132.543056 
L 62.962162 132.418467 
L 63.28185 132.307027 
L 63.31964 132.293866 
L 63.677117 132.169411 
L 64.034595 132.044923 
L 64.046874 132.040649 
L 64.392072 131.920595 
L 64.74955 131.79624 
L 64.812725 131.77427 
L 65.107027 131.672017 
L 65.464505 131.547797 
L 65.579364 131.507892 
L 65.821982 131.423679 
L 66.179459 131.299592 
L 66.346793 131.241514 
L 66.536937 131.175579 
L 66.894414 131.051626 
L 67.115013 130.975135 
L 67.251892 130.927717 
L 67.609369 130.803899 
L 67.884027 130.708757 
L 67.966847 130.680094 
L 68.324324 130.55641 
L 68.653836 130.442378 
L 68.681802 130.432709 
L 69.039279 130.30916 
L 69.396757 130.185578 
L 69.416078 130.178901 
" clip-path="url(#p7461dda31b)" style="fill: none; stroke: #297b8e; stroke-width: 1.5"/>
    <path d="M 97.288241 120.731277 
L 119.706487 113.394162 
L 142.404621 106.201946 
L 165.200721 99.217921 
L 187.721802 92.554277 
L 209.898445 86.223568 
L 232.406486 80.035515 
L 254.349144 74.236541 
L 276.018739 68.74082 
L 297.10991 63.617584 
L 317.922716 58.786595 
L 338.577297 54.220162 
L 358.953514 49.945895 
L 378.860685 46.000432 
L 397.918559 42.446514 
L 403.367345 41.472 
L 403.367345 41.472 
" clip-path="url(#p7461dda31b)" style="fill: none; stroke: #297b8e; stroke-width: 1.5"/>
   </g>
   <g id="PathCollection_14">
    <path d="M 57.6 127.44027 
L 80.595624 119.520865 
L 103.721404 111.795892 
L 126.950631 104.276018 
L 149.829189 97.103444 
L 172.707748 90.162986 
L 174.677717 89.576267 
L 174.677717 89.576267 
" clip-path="url(#p7461dda31b)" style="fill: none; stroke: #25838e; stroke-width: 1.5"/>
    <path d="M 202.934754 81.351006 
L 225.614414 75.009304 
L 248.269961 68.908973 
L 270.656577 63.115538 
L 292.381208 57.721081 
L 313.911351 52.602008 
L 335.36 47.733794 
L 356.093694 43.254963 
L 364.658125 41.472 
L 364.658125 41.472 
" clip-path="url(#p7461dda31b)" style="fill: none; stroke: #25838e; stroke-width: 1.5"/>
   </g>
   <g id="PathCollection_15">
    <path d="M 57.6 120.849512 
L 81.193514 112.753615 
L 104.42955 105.015284 
L 121.609923 99.442552 
L 121.609923 99.442552 
" clip-path="url(#p7461dda31b)" style="fill: none; stroke: #228c8d; stroke-width: 1.5"/>
    <path d="M 149.510505 90.661229 
L 172.887149 83.559784 
L 196.301261 76.681989 
L 219.17982 70.190473 
L 242.356769 63.847784 
L 264.936937 57.898055 
L 287.458018 52.194009 
L 309.264144 46.89522 
L 330.712793 41.904298 
L 332.616929 41.472 
L 332.616929 41.472 
" clip-path="url(#p7461dda31b)" style="fill: none; stroke: #228c8d; stroke-width: 1.5"/>
   </g>
   <g id="PathCollection_16">
    <path d="M 57.6 114.493748 
L 57.698142 114.459676 
L 57.957477 114.369717 
L 58.314955 114.245705 
L 58.466044 114.193297 
L 58.672432 114.121768 
L 59.02991 113.997876 
L 59.234656 113.926919 
L 59.387387 113.874032 
L 59.744865 113.750261 
L 60.003978 113.660541 
L 60.102342 113.626509 
L 60.45982 113.502858 
L 60.774012 113.394162 
L 60.817297 113.3792 
L 61.174775 113.255669 
L 61.532252 113.132109 
L 61.544771 113.127784 
L 61.88973 113.008693 
L 62.247207 112.885253 
L 62.316288 112.861405 
L 62.604685 112.761929 
L 62.962162 112.63861 
L 63.088522 112.595027 
L 63.31964 112.515378 
L 63.677117 112.39218 
L 63.861473 112.328649 
L 64.034595 112.269039 
L 64.392072 112.145962 
L 64.635144 112.06227 
L 64.74955 112.022913 
L 65.107027 111.899956 
L 65.409537 111.795892 
L 65.464505 111.776998 
L 65.821982 111.654163 
L 66.179459 111.531299 
L 66.184656 111.529514 
L 66.536937 111.408581 
L 66.894414 111.285839 
L 66.960554 111.263135 
L 67.251892 111.163212 
L 67.609369 111.040591 
L 67.737179 110.996757 
L 67.966847 110.918055 
L 68.324324 110.795554 
L 68.514531 110.730378 
L 68.681802 110.673109 
L 69.039279 110.55073 
L 69.292611 110.464 
L 69.396757 110.428375 
L 69.754234 110.306117 
L 70.071422 110.197622 
L 70.111712 110.183852 
L 70.469189 110.061716 
L 70.826667 109.939552 
L 70.850989 109.931243 
L 71.184144 109.817525 
L 71.541622 109.695484 
L 71.631329 109.664865 
L 71.899099 109.573546 
L 72.256577 109.451626 
L 72.412406 109.398486 
L 72.614054 109.329779 
L 72.971532 109.20798 
L 73.194219 109.132108 
L 73.329009 109.086222 
L 73.686486 108.964545 
L 73.97677 108.86573 
L 74.043964 108.842875 
L 74.401441 108.721321 
L 74.758919 108.59974 
L 74.760063 108.599351 
L 75.116396 108.478307 
L 75.473874 108.356849 
L 75.544164 108.332973 
L 75.831351 108.235504 
L 76.188829 108.114168 
L 76.329009 108.066595 
L 76.546306 107.992911 
L 76.903784 107.871697 
L 77.114599 107.800216 
L 77.261261 107.750529 
L 77.618739 107.629437 
L 77.900936 107.533838 
L 77.976216 107.508357 
L 78.333694 107.387387 
L 78.688021 107.267459 
L 78.691171 107.266394 
L 79.048649 107.145548 
L 79.406126 107.024675 
L 79.475925 107.001081 
L 79.763604 106.903918 
L 80.121081 106.783168 
L 80.264585 106.734703 
L 80.478559 106.662497 
L 80.836036 106.541871 
L 81.053998 106.468324 
L 81.193514 106.421287 
L 81.550991 106.300783 
L 81.844165 106.201946 
L 81.908468 106.180286 
L 82.265946 106.059905 
L 82.623423 105.939499 
L 82.635101 105.935568 
L 82.980901 105.819236 
L 83.338378 105.698954 
L 83.426861 105.669189 
L 83.695856 105.578777 
L 84.053333 105.458618 
L 84.076905 105.450695 
" clip-path="url(#p7461dda31b)" style="fill: none; stroke: #1f948c; stroke-width: 1.5"/>
    <path d="M 111.936959 96.25041 
L 135.813492 88.620973 
L 159.481081 81.290476 
L 183.074595 74.213237 
L 207.025586 67.265371 
L 230.637699 60.651243 
L 254.309669 54.258162 
L 277.448649 48.24307 
L 299.96973 42.615342 
L 304.659616 41.472 
L 304.659616 41.472 
" clip-path="url(#p7461dda31b)" style="fill: none; stroke: #1f948c; stroke-width: 1.5"/>
   </g>
   <g id="PathCollection_17">
    <path d="M 75.05643 102.370792 
L 99.067387 94.348341 
L 123.018378 86.576372 
L 146.976753 79.031351 
L 171.410965 71.572757 
L 195.752137 64.380541 
L 219.894775 57.483294 
L 243.488288 50.972761 
L 267.173972 44.668541 
L 279.535473 41.472 
L 279.535473 41.472 
" clip-path="url(#p7461dda31b)" style="fill: none; stroke: #1e9d89; stroke-width: 1.5"/>
   </g>
   <g id="PathCollection_18">
    <path d="M 57.6 102.396806 
L 81.908468 94.12487 
L 106.216937 86.083966 
L 130.653083 78.232216 
L 151.843316 71.610817 
L 151.843316 71.610817 
" clip-path="url(#p7461dda31b)" style="fill: none; stroke: #21a585; stroke-width: 1.5"/>
    <path d="M 180.009419 63.079211 
L 203.808288 56.111276 
L 228.474234 49.124227 
L 252.549378 42.537514 
L 256.525768 41.472 
L 256.525768 41.472 
" clip-path="url(#p7461dda31b)" style="fill: none; stroke: #21a585; stroke-width: 1.5"/>
   </g>
   <g id="PathCollection_19">
    <path d="M 57.6 96.618908 
L 81.939707 88.354595 
L 99.017834 82.690315 
L 99.017834 82.690315 
" clip-path="url(#p7461dda31b)" style="fill: none; stroke: #26ad81; stroke-width: 1.5"/>
    <path d="M 127.021812 73.6407 
L 151.974054 65.826178 
L 176.64 58.331885 
L 200.948468 51.171346 
L 225.256937 44.235864 
L 235.172327 41.472 
L 235.172327 41.472 
" clip-path="url(#p7461dda31b)" style="fill: none; stroke: #26ad81; stroke-width: 1.5"/>
   </g>
   <g id="PathCollection_20">
    <path d="M 57.6 91.00128 
L 57.957477 90.878587 
L 58.314955 90.755869 
L 58.326228 90.752 
L 58.672432 90.633278 
L 59.02991 90.510668 
L 59.10295 90.485622 
L 59.387387 90.388158 
L 59.744865 90.265655 
L 59.880318 90.219243 
L 60.102342 90.143225 
L 60.45982 90.02083 
L 60.658334 89.952865 
L 60.817297 89.898481 
L 61.174775 89.776194 
L 61.436998 89.686486 
L 61.532252 89.653924 
L 61.88973 89.531745 
L 62.216313 89.420108 
L 62.247207 89.409555 
L 62.567418 89.30021 
" clip-path="url(#p7461dda31b)" style="fill: none; stroke: #31b57b; stroke-width: 1.5"/>
    <path d="M 90.547079 79.889435 
L 115.511351 71.736557 
L 140.534775 63.793859 
L 165.915676 55.972183 
L 190.939099 48.49231 
L 215.161914 41.472 
L 215.161914 41.472 
" clip-path="url(#p7461dda31b)" style="fill: none; stroke: #31b57b; stroke-width: 1.5"/>
   </g>
   <g id="PathCollection_21">
    <path d="M 57.6 85.531273 
L 82.623423 77.070811 
L 103.20204 70.282064 
L 103.20204 70.282064 
" clip-path="url(#p7461dda31b)" style="fill: none; stroke: #3fbc73; stroke-width: 1.5"/>
    <path d="M 137.144967 59.415855 
L 162.411743 51.594378 
L 188.12448 43.869405 
L 196.269061 41.472 
L 196.269061 41.472 
" clip-path="url(#p7461dda31b)" style="fill: none; stroke: #3fbc73; stroke-width: 1.5"/>
   </g>
   <g id="PathCollection_22">
    <path d="M 57.6 80.197775 
L 83.161252 71.572757 
L 93.523091 68.141844 
L 93.523091 68.141844 
" clip-path="url(#p7461dda31b)" style="fill: none; stroke: #50c46a; stroke-width: 1.5"/>
    <path d="M 127.51977 57.148826 
L 153.403964 49.049349 
L 178.325175 41.472 
L 178.325175 41.472 
" clip-path="url(#p7461dda31b)" style="fill: none; stroke: #50c46a; stroke-width: 1.5"/>
   </g>
   <g id="PathCollection_23">
    <path d="M 57.6 74.991062 
L 57.957477 74.869096 
L 58.249959 74.769297 
L 58.314955 74.747135 
L 58.672432 74.62527 
L 59.02991 74.503383 
L 59.031271 74.502919 
L 59.387387 74.381618 
L 59.744865 74.259832 
L 59.813246 74.236541 
L 60.102342 74.13814 
L 60.45982 74.016454 
L 60.59583 73.970162 
L 60.817297 73.894836 
L 61.174775 73.773251 
L 61.379026 73.703784 
L 61.532252 73.651706 
L 61.88973 73.530222 
L 62.162834 73.437405 
L 62.247207 73.40875 
L 62.604685 73.287367 
L 62.947255 73.171027 
L 62.962162 73.165968 
L 63.31964 73.044685 
L 63.677117 72.923381 
L 63.732335 72.904649 
L 64.034595 72.802178 
L 64.392072 72.680975 
L 64.518044 72.63827 
L 64.74955 72.559844 
L 65.107027 72.438742 
L 65.304369 72.371892 
L 65.464505 72.317683 
L 65.821982 72.196682 
L 66.091312 72.105514 
L 66.179459 72.075696 
L 66.536937 71.954796 
L 66.878873 71.839135 
L 66.894414 71.833882 
L 67.251892 71.713084 
L 67.609369 71.592264 
L 67.667102 71.572757 
L 67.966847 71.471544 
L 68.324324 71.350826 
L 68.455966 71.306378 
L 68.681802 71.230178 
L 69.039279 71.109562 
L 69.245451 71.04 
L 69.396757 70.988985 
L 69.754234 70.86847 
L 70.03556 70.773622 
L 70.111712 70.747965 
L 70.469189 70.627551 
L 70.826294 70.507243 
L 70.826667 70.507118 
L 71.184144 70.386806 
L 71.541622 70.266474 
L 71.617716 70.240865 
L 71.899099 70.146233 
L 72.256577 70.026002 
L 72.409765 69.974486 
L 72.614054 69.905833 
L 72.971532 69.785704 
L 73.202443 69.708108 
L 73.329009 69.665606 
L 73.686486 69.545579 
L 73.995749 69.44173 
L 74.043964 69.425551 
L 74.401441 69.305626 
L 74.758919 69.18568 
L 74.789712 69.175351 
L 75.116396 69.065845 
L 75.473874 68.946002 
L 75.584347 68.908973 
L 75.831351 68.826237 
L 76.188829 68.706496 
L 76.379614 68.642595 
L 76.546306 68.586801 
L 76.903784 68.467162 
L 77.175516 68.376216 
L 77.261261 68.347538 
L 77.618739 68.228001 
L 77.972052 68.109838 
L 77.976216 68.108446 
L 78.333694 67.989012 
L 78.691171 67.869558 
L 78.76929 67.843459 
L 79.048649 67.750195 
L 79.406126 67.630843 
L 79.567169 67.577081 
L 79.763604 67.511549 
L 80.121081 67.3923 
L 80.365687 67.310703 
L 80.478559 67.273076 
L 80.836036 67.153929 
L 81.164845 67.044324 
L 81.193514 67.034775 
L 81.550991 66.91573 
L 81.908468 66.796667 
L 81.964691 66.777946 
L 82.265946 66.677703 
L 82.623423 66.558742 
L 82.765204 66.511568 
L 82.980901 66.439847 
L 83.338378 66.320989 
L 83.56636 66.245189 
L 83.695856 66.202163 
L 83.886352 66.13888 
" clip-path="url(#p7461dda31b)" style="fill: none; stroke: #63cb5f; stroke-width: 1.5"/>
    <path d="M 117.852253 55.051104 
L 144.10955 46.749363 
L 161.200118 41.472 
L 161.200118 41.472 
" clip-path="url(#p7461dda31b)" style="fill: none; stroke: #63cb5f; stroke-width: 1.5"/>
   </g>
   <g id="PathCollection_24">
    <path d="M 57.6 69.902537 
L 57.957477 69.780772 
L 58.170807 69.708108 
L 58.314955 69.659042 
L 58.672432 69.537375 
L 58.953435 69.44173 
L 59.02991 69.415717 
L 59.387387 69.294149 
L 59.73666 69.175351 
L 59.744865 69.172563 
L 60.102342 69.051093 
L 60.45982 68.929602 
L 60.520533 68.908973 
L 60.817297 68.808207 
L 61.174775 68.686814 
L 61.305012 68.642595 
L 61.532252 68.565491 
L 61.88973 68.444197 
L 62.090092 68.376216 
L 62.247207 68.322944 
L 62.604685 68.201749 
L 62.875774 68.109838 
L 62.962162 68.080568 
L 63.31964 67.959472 
L 63.662058 67.843459 
L 63.677117 67.838361 
L 64.034595 67.717364 
L 64.392072 67.596346 
L 64.448993 67.577081 
L 64.74955 67.475426 
L 65.107027 67.354507 
L 65.236545 67.310703 
L 65.464505 67.233657 
L 65.821982 67.112837 
L 66.024704 67.044324 
L 66.179459 66.992057 
L 66.536937 66.871337 
L 66.81347 66.777946 
L 66.894414 66.750628 
L 67.251892 66.630006 
L 67.602844 66.511568 
L 67.609369 66.509367 
L 67.966847 66.388845 
L 68.324324 66.268302 
L 68.392883 66.245189 
L 68.681802 66.147852 
L 69.039279 66.027409 
L 69.183538 65.978811 
L 69.396757 65.907029 
L 69.754234 65.786686 
L 69.974805 65.712432 
L 70.111712 65.666375 
L 70.469189 65.546131 
L 70.766685 65.446054 
L 70.826667 65.42589 
L 71.184144 65.305745 
L 71.541622 65.185581 
L 71.559193 65.179676 
L 71.899099 65.065528 
L 72.256577 64.945463 
L 72.352365 64.913297 
L 72.614054 64.825481 
L 72.971532 64.705515 
L 73.146154 64.646919 
L 73.329009 64.585601 
L 73.686486 64.465736 
L 73.94056 64.380541 
L 74.043964 64.345891 
L 74.401441 64.226125 
L 74.735584 64.114162 
L 74.758919 64.106349 
L 75.116396 63.986683 
L 75.473874 63.866997 
L 75.531275 63.847784 
L 75.831351 63.747409 
L 76.188829 63.627823 
L 76.327606 63.581405 
L 76.546306 63.508303 
L 76.903784 63.388818 
L 77.124558 63.315027 
L 77.261261 63.269366 
L 77.618739 63.149981 
L 77.922134 63.048649 
L 77.976216 63.030598 
L 78.333694 62.911312 
L 78.691171 62.792008 
L 78.720357 62.78227 
L 79.048649 62.672812 
L 79.406126 62.553608 
L 79.519251 62.515892 
L 79.763604 62.434479 
L 80.121081 62.315375 
L 80.318771 62.249514 
L 80.478559 62.196315 
L 80.836036 62.077311 
L 81.118919 61.983135 
L 81.193514 61.958318 
L 81.550991 61.839415 
L 81.908468 61.720493 
L 81.919704 61.716757 
L 82.265946 61.601687 
L 82.623423 61.482866 
L 82.721182 61.450378 
L 82.980901 61.364126 
L 83.338378 61.245405 
L 83.52329 61.184 
L 83.695856 61.126733 
L 83.927371 61.049911 
" clip-path="url(#p7461dda31b)" style="fill: none; stroke: #77d153; stroke-width: 1.5"/>
    <path d="M 117.810434 49.998372 
L 117.817494 49.996108 
L 118.013694 49.933246 
L 118.371171 49.818723 
L 118.648952 49.72973 
L 118.728649 49.704214 
L 119.086126 49.589794 
L 119.443604 49.47536 
L 119.481128 49.463351 
L 119.801081 49.36103 
L 120.158559 49.246699 
L 120.314062 49.196973 
L 120.516036 49.13243 
L 120.873514 49.018203 
L 121.147687 48.930595 
L 121.230991 48.903994 
L 121.588468 48.789871 
L 121.945946 48.675735 
L 121.982034 48.664216 
L 122.303423 48.561703 
L 122.660901 48.447671 
L 122.817145 48.397838 
L 123.018378 48.333699 
L 123.375856 48.219771 
L 123.652951 48.131459 
L 123.733333 48.105859 
L 124.090811 47.992035 
L 124.448288 47.878197 
L 124.489489 47.865081 
L 124.805766 47.764462 
L 125.163243 47.650729 
L 125.326793 47.598703 
L 125.520721 47.537054 
L 125.878198 47.423425 
L 126.164796 47.332324 
L 126.235676 47.309809 
L 126.593153 47.196284 
L 126.950631 47.082747 
L 127.003544 47.065946 
L 127.308108 46.969307 
L 127.665586 46.855874 
L 127.843056 46.799568 
L 128.023063 46.742494 
L 128.380541 46.629166 
L 128.683271 46.533189 
L 128.738018 46.515844 
L 129.095495 46.40262 
L 129.452973 46.289383 
L 129.524251 46.266811 
L 129.81045 46.176238 
L 130.167928 46.063106 
L 130.365986 46.000432 
L 130.525405 45.950019 
L 130.882883 45.836992 
L 131.208428 45.734054 
L 131.24036 45.723964 
L 131.597838 45.611041 
L 131.955315 45.498106 
L 132.051662 45.467676 
L 132.312793 45.385254 
L 132.67027 45.272424 
L 132.895634 45.201297 
L 133.027748 45.159629 
L 133.385225 45.046904 
L 133.740318 44.934919 
L 133.742703 44.934167 
L 134.10018 44.821548 
L 134.457658 44.708915 
L 134.585827 44.668541 
L 134.815135 44.596354 
L 135.172613 44.483827 
L 135.432053 44.402162 
L 135.53009 44.371323 
L 135.887568 44.258902 
L 136.245045 44.146467 
L 136.279025 44.135784 
L 136.602523 44.034139 
L 136.96 43.92181 
L 137.1268 43.869405 
L 137.317477 43.809539 
L 137.674955 43.697316 
L 137.975295 43.603027 
L 138.032432 43.585101 
L 138.38991 43.472984 
L 138.747387 43.360854 
L 138.824578 43.336649 
L 139.104865 43.248814 
L 139.462342 43.136791 
L 139.674634 43.07027 
L 139.81982 43.024807 
L 140.177297 42.912889 
L 140.525414 42.803892 
L 140.534775 42.800963 
L 140.892252 42.689151 
L 141.24973 42.577327 
L 141.37703 42.537514 
L 141.607207 42.465574 
L 141.964685 42.353856 
L 142.229382 42.271135 
L 142.322162 42.24216 
L 142.67964 42.130548 
L 143.037117 42.018924 
L 143.082503 42.004757 
L 143.394595 41.907402 
L 143.752072 41.795884 
L 143.936435 41.738378 
L 144.10955 41.684418 
L 144.467027 41.573006 
L 144.7911 41.472 
" clip-path="url(#p7461dda31b)" style="fill: none; stroke: #77d153; stroke-width: 1.5"/>
   </g>
   <g id="PathCollection_25">
    <path d="M 57.6 64.924446 
L 84.053333 56.042443 
L 103.198123 49.757581 
L 103.198123 49.757581 
" clip-path="url(#p7461dda31b)" style="fill: none; stroke: #8bd646; stroke-width: 1.5"/>
   </g>
   <g id="PathCollection_26">
    <path d="M 57.6 60.049971 
L 57.957477 59.928598 
L 58.182763 59.852108 
L 58.314955 59.807255 
L 58.672432 59.685976 
L 58.967892 59.58573 
L 59.02991 59.564701 
L 59.387387 59.443517 
L 59.744865 59.322314 
L 59.753605 59.319351 
L 60.102342 59.201222 
L 60.45982 59.080113 
L 60.539944 59.052973 
L 60.817297 58.959088 
L 61.174775 58.838074 
L 61.326863 58.786595 
L 61.532252 58.717118 
L 61.88973 58.596199 
L 62.114363 58.520216 
L 62.247207 58.47531 
L 62.604685 58.354486 
L 62.902444 58.253838 
L 62.962162 58.233665 
L 63.31964 58.112936 
L 63.677117 57.992187 
L 63.691118 57.987459 
L 64.034595 57.871548 
L 64.392072 57.750895 
L 64.480422 57.721081 
L 64.74955 57.630323 
L 65.107027 57.509765 
L 65.270311 57.454703 
L 65.464505 57.38926 
L 65.821982 57.268797 
L 66.060785 57.188324 
L 66.179459 57.148359 
L 66.536937 57.027991 
L 66.851846 56.921946 
L 66.894414 56.90762 
L 67.251892 56.787348 
L 67.609369 56.667056 
L 67.643521 56.655568 
L 67.966847 56.546867 
L 68.324324 56.426671 
L 68.435817 56.389189 
L 68.681802 56.306548 
L 69.039279 56.186447 
L 69.228703 56.122811 
L 69.396757 56.06639 
L 69.754234 55.946385 
L 70.02218 55.856432 
L 70.111712 55.826395 
L 70.469189 55.706486 
L 70.816249 55.590054 
L 70.826667 55.586561 
L 71.184144 55.466748 
L 71.541622 55.346915 
L 71.610964 55.323676 
L 71.899099 55.227171 
L 72.256577 55.107435 
L 72.406281 55.057297 
L 72.614054 54.987757 
L 72.971532 54.868116 
L 73.202193 54.790919 
L 73.329009 54.748504 
L 73.686486 54.628959 
L 73.9987 54.524541 
L 74.043964 54.509412 
L 74.288007 54.427866 
" clip-path="url(#p7461dda31b)" style="fill: none; stroke: #a2da37; stroke-width: 1.5"/>
    <path d="M 108.14503 43.296766 
L 108.361802 43.226699 
L 108.719279 43.11114 
L 108.845732 43.07027 
L 109.076757 42.99565 
L 109.434234 42.88019 
L 109.67047 42.803892 
L 109.791712 42.764759 
L 110.149189 42.649398 
L 110.495854 42.537514 
L 110.506667 42.534026 
L 110.864144 42.418764 
L 111.221622 42.303487 
L 111.321968 42.271135 
L 111.579099 42.188288 
L 111.936577 42.07311 
L 112.14874 42.004757 
L 112.294054 41.95797 
L 112.651532 41.842892 
L 112.976163 41.738378 
L 113.009009 41.727811 
L 113.366486 41.612831 
L 113.723964 41.497838 
L 113.804304 41.472 
" clip-path="url(#p7461dda31b)" style="fill: none; stroke: #a2da37; stroke-width: 1.5"/>
   </g>
   <g id="PathCollection_27">
    <path d="M 57.6 55.272831 
L 57.957477 55.151644 
L 58.235767 55.057297 
L 58.314955 55.030468 
L 58.672432 54.909374 
L 59.022069 54.790919 
L 59.02991 54.788264 
L 59.387387 54.667264 
L 59.744865 54.546244 
L 59.808987 54.524541 
L 60.102342 54.425313 
L 60.45982 54.304386 
L 60.596481 54.258162 
L 60.817297 54.183521 
L 61.174775 54.062687 
L 61.384544 53.991784 
L 61.532252 53.941889 
L 61.88973 53.821149 
L 62.173179 53.725405 
L 62.247207 53.700416 
L 62.604685 53.579769 
L 62.962162 53.459103 
L 62.962386 53.459027 
L 63.31964 53.338549 
L 63.677117 53.217976 
L 63.752223 53.192649 
L 64.034595 53.097487 
L 64.392072 52.977008 
L 64.542633 52.92627 
L 64.74955 52.856585 
L 65.107027 52.736199 
L 65.333619 52.659892 
L 65.464505 52.615842 
L 65.821982 52.49555 
L 66.125181 52.393514 
L 66.179459 52.375258 
L 66.536937 52.255059 
L 66.894414 52.134842 
L 66.917336 52.127135 
L 67.251892 52.014728 
L 67.609369 51.894604 
L 67.710112 51.860757 
L 67.966847 51.774555 
L 68.324324 51.654525 
L 68.503467 51.594378 
L 68.681802 51.534541 
L 69.039279 51.414604 
L 69.297401 51.328 
L 69.396757 51.294685 
L 69.754234 51.174843 
L 70.091916 51.061622 
L 70.111712 51.054989 
L 70.469189 50.93524 
L 70.826667 50.815472 
L 70.887059 50.795243 
L 71.184144 50.695795 
L 71.541622 50.576122 
L 71.682801 50.528865 
L 71.899099 50.456509 
L 72.256577 50.33693 
L 72.479127 50.262486 
L 72.614054 50.217381 
L 72.971532 50.097896 
L 73.276037 49.996108 
L 73.329009 49.978412 
L 73.686486 49.859021 
L 74.043964 49.739612 
L 74.073556 49.72973 
L 74.243612 49.672977 
" clip-path="url(#p7461dda31b)" style="fill: none; stroke: #bade28; stroke-width: 1.5"/>
   </g>
   <g id="PathCollection_28">
    <path d="M 57.6 50.58745 
L 57.772985 50.528865 
L 57.957477 50.466421 
L 58.314955 50.345437 
L 58.560048 50.262486 
L 58.672432 50.224474 
L 59.02991 50.103581 
L 59.347669 49.996108 
L 59.387387 49.982683 
L 59.744865 49.861881 
L 60.102342 49.74106 
L 60.135875 49.72973 
L 60.45982 49.620338 
L 60.817297 49.499608 
L 60.924671 49.463351 
L 61.174775 49.378951 
L 61.532252 49.258313 
L 61.714029 49.196973 
L 61.88973 49.13772 
L 62.247207 49.017174 
L 62.503949 48.930595 
L 62.604685 48.896645 
L 62.962162 48.776191 
L 63.294433 48.664216 
L 63.31964 48.655727 
L 63.677117 48.535364 
L 64.034595 48.414983 
L 64.085519 48.397838 
L 64.392072 48.294693 
L 64.74955 48.174404 
L 64.877189 48.131459 
L 65.107027 48.054179 
L 65.464505 47.933981 
L 65.669426 47.865081 
L 65.821982 47.81382 
L 66.179459 47.693714 
L 66.46223 47.598703 
L 66.536937 47.573617 
L 66.894414 47.453603 
L 67.251892 47.333571 
L 67.255605 47.332324 
L 67.609369 47.213648 
L 67.966847 47.093707 
L 68.049605 47.065946 
L 68.324324 46.973848 
L 68.681802 46.854 
L 68.844176 46.799568 
L 69.039279 46.734204 
L 69.396757 46.614448 
L 69.639318 46.533189 
L 69.754234 46.494715 
L 70.111712 46.375052 
L 70.435031 46.266811 
L 70.469189 46.255382 
L 70.826667 46.135811 
L 71.184144 46.016222 
L 71.231353 46.000432 
L 71.541622 45.896726 
L 71.899099 45.777229 
L 72.028275 45.734054 
L 72.256577 45.657796 
L 72.614054 45.538391 
L 72.825772 45.467676 
L 72.971532 45.419021 
L 73.329009 45.299709 
L 73.623845 45.201297 
L 73.686486 45.180401 
L 74.043964 45.061182 
L 74.401441 44.941945 
L 74.42251 44.934919 
L 74.758919 44.82281 
L 75.116396 44.703665 
L 75.221801 44.668541 
L 75.473874 44.584593 
L 75.831351 44.465541 
L 76.021671 44.402162 
L 76.188829 44.346531 
L 76.546306 44.227572 
L 76.822121 44.135784 
L 76.903784 44.108624 
L 77.261261 43.989758 
L 77.618739 43.870874 
L 77.623155 43.869405 
L 77.976216 43.752098 
L 78.333694 43.633307 
L 78.424833 43.603027 
L 78.691171 43.514594 
L 79.048649 43.395896 
L 79.227094 43.336649 
L 79.406126 43.277244 
L 79.763604 43.158639 
L 80.029939 43.07027 
L 80.121081 43.040049 
L 80.478559 42.921536 
L 80.833369 42.803892 
L 80.836036 42.803008 
L 81.193514 42.684589 
L 81.550991 42.566153 
L 81.63745 42.537514 
L 81.908468 42.447796 
L 82.265946 42.329453 
L 82.44212 42.271135 
L 82.623423 42.211157 
L 82.980901 42.092907 
L 83.247379 42.004757 
L 83.338378 41.974673 
L 83.695856 41.856516 
L 84.053226 41.738378 
L 84.053333 41.738343 
L 84.410811 41.620279 
L 84.768288 41.502199 
L 84.859732 41.472 
" clip-path="url(#p7461dda31b)" style="fill: none; stroke: #d2e21b; stroke-width: 1.5"/>
   </g>
   <g id="PathCollection_29">
    <path d="M 57.6 45.988708 
L 57.957477 45.867866 
L 58.314955 45.747006 
L 58.353273 45.734054 
L 58.672432 45.626241 
L 59.02991 45.50547 
L 59.141798 45.467676 
L 59.387387 45.384769 
L 59.744865 45.264088 
L 59.930874 45.201297 
L 60.102342 45.14345 
L 60.45982 45.02286 
L 60.720503 44.934919 
L 60.817297 44.902285 
L 61.174775 44.781785 
L 61.510683 44.668541 
L 61.532252 44.661273 
L 61.88973 44.540863 
L 62.247207 44.420434 
L 62.301458 44.402162 
L 62.604685 44.300095 
L 62.962162 44.179756 
L 63.092802 44.135784 
L 63.31964 44.059479 
L 63.677117 43.939231 
L 63.884703 43.869405 
L 64.034595 43.819017 
L 64.392072 43.698859 
L 64.67716 43.603027 
L 64.74955 43.578708 
L 65.107027 43.45864 
L 65.464505 43.338554 
L 65.470178 43.336649 
L 65.821982 43.218574 
L 66.179459 43.098579 
L 66.263808 43.07027 
L 66.536937 42.978661 
L 66.894414 42.858756 
L 67.057998 42.803892 
L 67.251892 42.738901 
L 67.609369 42.619086 
L 67.852747 42.537514 
L 67.966847 42.499294 
L 68.324324 42.37957 
L 68.648058 42.271135 
L 68.681802 42.25984 
L 69.039279 42.140206 
L 69.396757 42.020554 
L 69.443966 42.004757 
L 69.754234 41.900994 
L 70.111712 41.781434 
L 70.240461 41.738378 
L 70.469189 41.661936 
L 70.826667 41.542466 
L 71.037521 41.472 
" clip-path="url(#p7461dda31b)" style="fill: none; stroke: #eae51a; stroke-width: 1.5"/>
   </g>
   <g id="PathCollection_30"/>
   <g id="line2d_19">
    <path d="M 137.024134 74.736 
L 308.580263 170.53632 
L 335.295866 201.786687 
L 232.012824 239.570496 
L 137.024134 274.32 
" clip-path="url(#p7461dda31b)" style="fill: none; stroke: #1f77b4; stroke-width: 1.5; stroke-linecap: square"/>
    <defs>
     <path id="m98f931ecb0" d="M 0 3 
C 0.795609 3 1.55874 2.683901 2.12132 2.12132 
C 2.683901 1.55874 3 0.795609 3 0 
C 3 -0.795609 2.683901 -1.55874 2.12132 -2.12132 
C 1.55874 -2.683901 0.795609 -3 0 -3 
C -0.795609 -3 -1.55874 -2.683901 -2.12132 -2.12132 
C -2.683901 -1.55874 -3 -0.795609 -3 0 
C -3 0.795609 -2.683901 1.55874 -2.12132 2.12132 
C -1.55874 2.683901 -0.795609 3 0 3 
z
" style="stroke: #1f77b4"/>
    </defs>
    <g clip-path="url(#p7461dda31b)">
     <use xlink:href="#m98f931ecb0" x="137.024134" y="74.736" style="fill: #1f77b4; stroke: #1f77b4"/>
     <use xlink:href="#m98f931ecb0" x="308.580263" y="170.53632" style="fill: #1f77b4; stroke: #1f77b4"/>
     <use xlink:href="#m98f931ecb0" x="335.295866" y="201.786687" style="fill: #1f77b4; stroke: #1f77b4"/>
     <use xlink:href="#m98f931ecb0" x="232.012824" y="239.570496" style="fill: #1f77b4; stroke: #1f77b4"/>
     <use xlink:href="#m98f931ecb0" x="137.024134" y="274.32" style="fill: #1f77b4; stroke: #1f77b4"/>
    </g>
   </g>
   <g id="patch_3">
    <path d="M 57.6 307.584 
L 57.6 41.472 
" style="fill: none; stroke: #000000; stroke-width: 0.8; stroke-linejoin: miter; stroke-linecap: square"/>
   </g>
   <g id="patch_4">
    <path d="M 414.72 307.584 
L 414.72 41.472 
" style="fill: none; stroke: #000000; stroke-width: 0.8; stroke-linejoin: miter; stroke-linecap: square"/>
   </g>
   <g id="patch_5">
    <path d="M 57.6 307.584 
L 414.72 307.584 
" style="fill: none; stroke: #000000; stroke-width: 0.8; stroke-linejoin: miter; stroke-linecap: square"/>
   </g>
   <g id="patch_6">
    <path d="M 57.6 41.472 
L 414.72 41.472 
" style="fill: none; stroke: #000000; stroke-width: 0.8; stroke-linejoin: miter; stroke-linecap: square"/>
   </g>
   <g id="text_21">
    <!-- func_slanted_quad -->
    <g transform="translate(179.92125 35.472) scale(0.12 -0.12)">
     <defs>
      <path id="DejaVuSans-66" d="M 2375 4863 
L 2375 4384 
L 1825 4384 
Q 1516 4384 1395 4259 
Q 1275 4134 1275 3809 
L 1275 3500 
L 2222 3500 
L 2222 3053 
L 1275 3053 
L 1275 0 
L 697 0 
L 697 3053 
L 147 3053 
L 147 3500 
L 697 3500 
L 697 3744 
Q 697 4328 969 4595 
Q 1241 4863 1831 4863 
L 2375 4863 
z
" transform="scale(0.015625)"/>
      <path id="DejaVuSans-75" d="M 544 1381 
L 544 3500 
L 1119 3500 
L 1119 1403 
Q 1119 906 1312 657 
Q 1506 409 1894 409 
Q 2359 409 2629 706 
Q 2900 1003 2900 1516 
L 2900 3500 
L 3475 3500 
L 3475 0 
L 2900 0 
L 2900 538 
Q 2691 219 2414 64 
Q 2138 -91 1772 -91 
Q 1169 -91 856 284 
Q 544 659 544 1381 
z
M 1991 3584 
L 1991 3584 
z
" transform="scale(0.015625)"/>
      <path id="DejaVuSans-6e" d="M 3513 2113 
L 3513 0 
L 2938 0 
L 2938 2094 
Q 2938 2591 2744 2837 
Q 2550 3084 2163 3084 
Q 1697 3084 1428 2787 
Q 1159 2491 1159 1978 
L 1159 0 
L 581 0 
L 581 3500 
L 1159 3500 
L 1159 2956 
Q 1366 3272 1645 3428 
Q 1925 3584 2291 3584 
Q 2894 3584 3203 3211 
Q 3513 2838 3513 2113 
z
" transform="scale(0.015625)"/>
      <path id="DejaVuSans-63" d="M 3122 3366 
L 3122 2828 
Q 2878 2963 2633 3030 
Q 2388 3097 2138 3097 
Q 1578 3097 1268 2742 
Q 959 2388 959 1747 
Q 959 1106 1268 751 
Q 1578 397 2138 397 
Q 2388 397 2633 464 
Q 2878 531 3122 666 
L 3122 134 
Q 2881 22 2623 -34 
Q 2366 -91 2075 -91 
Q 1284 -91 818 406 
Q 353 903 353 1747 
Q 353 2603 823 3093 
Q 1294 3584 2113 3584 
Q 2378 3584 2631 3529 
Q 2884 3475 3122 3366 
z
" transform="scale(0.015625)"/>
      <path id="DejaVuSans-5f" d="M 3263 -1063 
L 3263 -1509 
L -63 -1509 
L -63 -1063 
L 3263 -1063 
z
" transform="scale(0.015625)"/>
      <path id="DejaVuSans-73" d="M 2834 3397 
L 2834 2853 
Q 2591 2978 2328 3040 
Q 2066 3103 1784 3103 
Q 1356 3103 1142 2972 
Q 928 2841 928 2578 
Q 928 2378 1081 2264 
Q 1234 2150 1697 2047 
L 1894 2003 
Q 2506 1872 2764 1633 
Q 3022 1394 3022 966 
Q 3022 478 2636 193 
Q 2250 -91 1575 -91 
Q 1294 -91 989 -36 
Q 684 19 347 128 
L 347 722 
Q 666 556 975 473 
Q 1284 391 1588 391 
Q 1994 391 2212 530 
Q 2431 669 2431 922 
Q 2431 1156 2273 1281 
Q 2116 1406 1581 1522 
L 1381 1569 
Q 847 1681 609 1914 
Q 372 2147 372 2553 
Q 372 3047 722 3315 
Q 1072 3584 1716 3584 
Q 2034 3584 2315 3537 
Q 2597 3491 2834 3397 
z
" transform="scale(0.015625)"/>
      <path id="DejaVuSans-6c" d="M 603 4863 
L 1178 4863 
L 1178 0 
L 603 0 
L 603 4863 
z
" transform="scale(0.015625)"/>
      <path id="DejaVuSans-61" d="M 2194 1759 
Q 1497 1759 1228 1600 
Q 959 1441 959 1056 
Q 959 750 1161 570 
Q 1363 391 1709 391 
Q 2188 391 2477 730 
Q 2766 1069 2766 1631 
L 2766 1759 
L 2194 1759 
z
M 3341 1997 
L 3341 0 
L 2766 0 
L 2766 531 
Q 2569 213 2275 61 
Q 1981 -91 1556 -91 
Q 1019 -91 701 211 
Q 384 513 384 1019 
Q 384 1609 779 1909 
Q 1175 2209 1959 2209 
L 2766 2209 
L 2766 2266 
Q 2766 2663 2505 2880 
Q 2244 3097 1772 3097 
Q 1472 3097 1187 3025 
Q 903 2953 641 2809 
L 641 3341 
Q 956 3463 1253 3523 
Q 1550 3584 1831 3584 
Q 2591 3584 2966 3190 
Q 3341 2797 3341 1997 
z
" transform="scale(0.015625)"/>
      <path id="DejaVuSans-74" d="M 1172 4494 
L 1172 3500 
L 2356 3500 
L 2356 3053 
L 1172 3053 
L 1172 1153 
Q 1172 725 1289 603 
Q 1406 481 1766 481 
L 2356 481 
L 2356 0 
L 1766 0 
Q 1100 0 847 248 
Q 594 497 594 1153 
L 594 3053 
L 172 3053 
L 172 3500 
L 594 3500 
L 594 4494 
L 1172 4494 
z
" transform="scale(0.015625)"/>
      <path id="DejaVuSans-65" d="M 3597 1894 
L 3597 1613 
L 953 1613 
Q 991 1019 1311 708 
Q 1631 397 2203 397 
Q 2534 397 2845 478 
Q 3156 559 3463 722 
L 3463 178 
Q 3153 47 2828 -22 
Q 2503 -91 2169 -91 
Q 1331 -91 842 396 
Q 353 884 353 1716 
Q 353 2575 817 3079 
Q 1281 3584 2069 3584 
Q 2775 3584 3186 3129 
Q 3597 2675 3597 1894 
z
M 3022 2063 
Q 3016 2534 2758 2815 
Q 2500 3097 2075 3097 
Q 1594 3097 1305 2825 
Q 1016 2553 972 2059 
L 3022 2063 
z
" transform="scale(0.015625)"/>
      <path id="DejaVuSans-64" d="M 2906 2969 
L 2906 4863 
L 3481 4863 
L 3481 0 
L 2906 0 
L 2906 525 
Q 2725 213 2448 61 
Q 2172 -91 1784 -91 
Q 1150 -91 751 415 
Q 353 922 353 1747 
Q 353 2572 751 3078 
Q 1150 3584 1784 3584 
Q 2172 3584 2448 3432 
Q 2725 3281 2906 2969 
z
M 947 1747 
Q 947 1113 1208 752 
Q 1469 391 1925 391 
Q 2381 391 2643 752 
Q 2906 1113 2906 1747 
Q 2906 2381 2643 2742 
Q 2381 3103 1925 3103 
Q 1469 3103 1208 2742 
Q 947 2381 947 1747 
z
" transform="scale(0.015625)"/>
      <path id="DejaVuSans-71" d="M 947 1747 
Q 947 1113 1208 752 
Q 1469 391 1925 391 
Q 2381 391 2643 752 
Q 2906 1113 2906 1747 
Q 2906 2381 2643 2742 
Q 2381 3103 1925 3103 
Q 1469 3103 1208 2742 
Q 947 2381 947 1747 
z
M 2906 525 
Q 2725 213 2448 61 
Q 2172 -91 1784 -91 
Q 1150 -91 751 415 
Q 353 922 353 1747 
Q 353 2572 751 3078 
Q 1150 3584 1784 3584 
Q 2172 3584 2448 3432 
Q 2725 3281 2906 2969 
L 2906 3500 
L 3481 3500 
L 3481 -1331 
L 2906 -1331 
L 2906 525 
z
" transform="scale(0.015625)"/>
     </defs>
     <use xlink:href="#DejaVuSans-66"/>
     <use xlink:href="#DejaVuSans-75" x="35.205078"/>
     <use xlink:href="#DejaVuSans-6e" x="98.583984"/>
     <use xlink:href="#DejaVuSans-63" x="161.962891"/>
     <use xlink:href="#DejaVuSans-5f" x="216.943359"/>
     <use xlink:href="#DejaVuSans-73" x="266.943359"/>
     <use xlink:href="#DejaVuSans-6c" x="319.042969"/>
     <use xlink:href="#DejaVuSans-61" x="346.826172"/>
     <use xlink:href="#DejaVuSans-6e" x="408.105469"/>
     <use xlink:href="#DejaVuSans-74" x="471.484375"/>
     <use xlink:href="#DejaVuSans-65" x="510.693359"/>
     <use xlink:href="#DejaVuSans-64" x="572.216797"/>
     <use xlink:href="#DejaVuSans-5f" x="635.693359"/>
     <use xlink:href="#DejaVuSans-71" x="685.693359"/>
     <use xlink:href="#DejaVuSans-75" x="749.169922"/>
     <use xlink:href="#DejaVuSans-61" x="812.548828"/>
     <use xlink:href="#DejaVuSans-64" x="873.828125"/>
    </g>
   </g>
   <g id="text_22">
    <g clip-path="url(#p7461dda31b)">
     <!-- 0.52 -->
     <g style="fill: #470d60" transform="translate(100.241445 241.776307) rotate(-19.707) scale(0.1 -0.1)">
      <use xlink:href="#DejaVuSans-30"/>
      <use xlink:href="#DejaVuSans-2e" x="63.623047"/>
      <use xlink:href="#DejaVuSans-35" x="95.410156"/>
      <use xlink:href="#DejaVuSans-32" x="159.033203"/>
     </g>
    </g>
   </g>
   <g id="text_23">
    <g clip-path="url(#p7461dda31b)">
     <!-- 1.04 -->
     <g style="fill: #481a6c" transform="translate(72.825595 231.802482) rotate(-20.685947) scale(0.1 -0.1)">
      <defs>
       <path id="DejaVuSans-34" d="M 2419 4116 
L 825 1625 
L 2419 1625 
L 2419 4116 
z
M 2253 4666 
L 3047 4666 
L 3047 1625 
L 3713 1625 
L 3713 1100 
L 3047 1100 
L 3047 0 
L 2419 0 
L 2419 1100 
L 313 1100 
L 313 1709 
L 2253 4666 
z
" transform="scale(0.015625)"/>
      </defs>
      <use xlink:href="#DejaVuSans-31"/>
      <use xlink:href="#DejaVuSans-2e" x="63.623047"/>
      <use xlink:href="#DejaVuSans-30" x="95.410156"/>
      <use xlink:href="#DejaVuSans-34" x="159.033203"/>
     </g>
    </g>
   </g>
   <g id="text_24">
    <g clip-path="url(#p7461dda31b)">
     <!-- 1.56 -->
     <g style="fill: #482576" transform="translate(94.801759 208.066003) rotate(-19.001158) scale(0.1 -0.1)">
      <defs>
       <path id="DejaVuSans-36" d="M 2113 2584 
Q 1688 2584 1439 2293 
Q 1191 2003 1191 1497 
Q 1191 994 1439 701 
Q 1688 409 2113 409 
Q 2538 409 2786 701 
Q 3034 994 3034 1497 
Q 3034 2003 2786 2293 
Q 2538 2584 2113 2584 
z
M 3366 4563 
L 3366 3988 
Q 3128 4100 2886 4159 
Q 2644 4219 2406 4219 
Q 1781 4219 1451 3797 
Q 1122 3375 1075 2522 
Q 1259 2794 1537 2939 
Q 1816 3084 2150 3084 
Q 2853 3084 3261 2657 
Q 3669 2231 3669 1497 
Q 3669 778 3244 343 
Q 2819 -91 2113 -91 
Q 1303 -91 875 529 
Q 447 1150 447 2328 
Q 447 3434 972 4092 
Q 1497 4750 2381 4750 
Q 2619 4750 2861 4703 
Q 3103 4656 3366 4563 
z
" transform="scale(0.015625)"/>
      </defs>
      <use xlink:href="#DejaVuSans-31"/>
      <use xlink:href="#DejaVuSans-2e" x="63.623047"/>
      <use xlink:href="#DejaVuSans-35" x="95.410156"/>
      <use xlink:href="#DejaVuSans-36" x="159.033203"/>
     </g>
    </g>
   </g>
   <g id="text_25">
    <g clip-path="url(#p7461dda31b)">
     <!-- 1.56 -->
     <g style="fill: #482576" transform="translate(274.678187 308.150387) rotate(-25.129004) scale(0.1 -0.1)">
      <use xlink:href="#DejaVuSans-31"/>
      <use xlink:href="#DejaVuSans-2e" x="63.623047"/>
      <use xlink:href="#DejaVuSans-35" x="95.410156"/>
      <use xlink:href="#DejaVuSans-36" x="159.033203"/>
     </g>
    </g>
   </g>
   <g id="text_26">
    <g clip-path="url(#p7461dda31b)">
     <!-- 2.09 -->
     <g style="fill: #46307e" transform="translate(305.059593 308.709733) rotate(-25.567703) scale(0.1 -0.1)">
      <defs>
       <path id="DejaVuSans-39" d="M 703 97 
L 703 672 
Q 941 559 1184 500 
Q 1428 441 1663 441 
Q 2288 441 2617 861 
Q 2947 1281 2994 2138 
Q 2813 1869 2534 1725 
Q 2256 1581 1919 1581 
Q 1219 1581 811 2004 
Q 403 2428 403 3163 
Q 403 3881 828 4315 
Q 1253 4750 1959 4750 
Q 2769 4750 3195 4129 
Q 3622 3509 3622 2328 
Q 3622 1225 3098 567 
Q 2575 -91 1691 -91 
Q 1453 -91 1209 -44 
Q 966 3 703 97 
z
M 1959 2075 
Q 2384 2075 2632 2365 
Q 2881 2656 2881 3163 
Q 2881 3666 2632 3958 
Q 2384 4250 1959 4250 
Q 1534 4250 1286 3958 
Q 1038 3666 1038 3163 
Q 1038 2656 1286 2365 
Q 1534 2075 1959 2075 
z
" transform="scale(0.015625)"/>
      </defs>
      <use xlink:href="#DejaVuSans-32"/>
      <use xlink:href="#DejaVuSans-2e" x="63.623047"/>
      <use xlink:href="#DejaVuSans-30" x="95.410156"/>
      <use xlink:href="#DejaVuSans-39" x="159.033203"/>
     </g>
    </g>
   </g>
   <g id="text_27">
    <g clip-path="url(#p7461dda31b)">
     <!-- 2.09 -->
     <g style="fill: #46307e" transform="translate(51.709961 210.858015) rotate(-20.470194) scale(0.1 -0.1)">
      <use xlink:href="#DejaVuSans-32"/>
      <use xlink:href="#DejaVuSans-2e" x="63.623047"/>
      <use xlink:href="#DejaVuSans-30" x="95.410156"/>
      <use xlink:href="#DejaVuSans-39" x="159.033203"/>
     </g>
    </g>
   </g>
   <g id="text_28">
    <g clip-path="url(#p7461dda31b)">
     <!-- 2.61 -->
     <g style="fill: #443b84" transform="translate(334.184615 308.019196) rotate(-26.004041) scale(0.1 -0.1)">
      <use xlink:href="#DejaVuSans-32"/>
      <use xlink:href="#DejaVuSans-2e" x="63.623047"/>
      <use xlink:href="#DejaVuSans-36" x="95.410156"/>
      <use xlink:href="#DejaVuSans-31" x="159.033203"/>
     </g>
    </g>
   </g>
   <g id="text_29">
    <g clip-path="url(#p7461dda31b)">
     <!-- 2.61 -->
     <g style="fill: #443b84" transform="translate(132.169752 171.275006) rotate(-17.252689) scale(0.1 -0.1)">
      <use xlink:href="#DejaVuSans-32"/>
      <use xlink:href="#DejaVuSans-2e" x="63.623047"/>
      <use xlink:href="#DejaVuSans-36" x="95.410156"/>
      <use xlink:href="#DejaVuSans-31" x="159.033203"/>
     </g>
    </g>
   </g>
   <g id="text_30">
    <g clip-path="url(#p7461dda31b)">
     <!-- 3.13 -->
     <g style="fill: #404588" transform="translate(364.94022 305.174729) rotate(-26.56455) scale(0.1 -0.1)">
      <use xlink:href="#DejaVuSans-33"/>
      <use xlink:href="#DejaVuSans-2e" x="63.623047"/>
      <use xlink:href="#DejaVuSans-31" x="95.410156"/>
      <use xlink:href="#DejaVuSans-33" x="159.033203"/>
     </g>
    </g>
   </g>
   <g id="text_31">
    <g clip-path="url(#p7461dda31b)">
     <!-- 3.13 -->
     <g style="fill: #404588" transform="translate(66.259982 183.40153) rotate(-19.516174) scale(0.1 -0.1)">
      <use xlink:href="#DejaVuSans-33"/>
      <use xlink:href="#DejaVuSans-2e" x="63.623047"/>
      <use xlink:href="#DejaVuSans-31" x="95.410156"/>
      <use xlink:href="#DejaVuSans-33" x="159.033203"/>
     </g>
    </g>
   </g>
   <g id="text_32">
    <g clip-path="url(#p7461dda31b)">
     <!-- 3.65 -->
     <g style="fill: #3c4f8a" transform="translate(396.619541 300.740121) rotate(-27.183651) scale(0.1 -0.1)">
      <use xlink:href="#DejaVuSans-33"/>
      <use xlink:href="#DejaVuSans-2e" x="63.623047"/>
      <use xlink:href="#DejaVuSans-36" x="95.410156"/>
      <use xlink:href="#DejaVuSans-35" x="159.033203"/>
     </g>
    </g>
   </g>
   <g id="text_33">
    <g clip-path="url(#p7461dda31b)">
     <!-- 3.65 -->
     <g style="fill: #3c4f8a" transform="translate(147.860937 146.687549) rotate(-16.782997) scale(0.1 -0.1)">
      <use xlink:href="#DejaVuSans-33"/>
      <use xlink:href="#DejaVuSans-2e" x="63.623047"/>
      <use xlink:href="#DejaVuSans-36" x="95.410156"/>
      <use xlink:href="#DejaVuSans-35" x="159.033203"/>
     </g>
    </g>
   </g>
   <g id="text_34">
    <g clip-path="url(#p7461dda31b)">
     <!-- 4.17 -->
     <g style="fill: #38598c" transform="translate(80.838776 159.857688) rotate(-18.804292) scale(0.1 -0.1)">
      <use xlink:href="#DejaVuSans-34"/>
      <use xlink:href="#DejaVuSans-2e" x="63.623047"/>
      <use xlink:href="#DejaVuSans-31" x="95.410156"/>
      <use xlink:href="#DejaVuSans-37" x="159.033203"/>
     </g>
    </g>
   </g>
   <g id="text_35">
    <g clip-path="url(#p7461dda31b)">
     <!-- 4.69 -->
     <g style="fill: #33628d" transform="translate(102.92826 144.081046) rotate(-18.112894) scale(0.1 -0.1)">
      <use xlink:href="#DejaVuSans-34"/>
      <use xlink:href="#DejaVuSans-2e" x="63.623047"/>
      <use xlink:href="#DejaVuSans-36" x="95.410156"/>
      <use xlink:href="#DejaVuSans-39" x="159.033203"/>
     </g>
    </g>
   </g>
   <g id="text_36">
    <g clip-path="url(#p7461dda31b)">
     <!-- 5.22 -->
     <g style="fill: #2f6b8e" transform="translate(125.383427 128.94617) rotate(-17.486641) scale(0.1 -0.1)">
      <use xlink:href="#DejaVuSans-35"/>
      <use xlink:href="#DejaVuSans-2e" x="63.623047"/>
      <use xlink:href="#DejaVuSans-32" x="95.410156"/>
      <use xlink:href="#DejaVuSans-32" x="159.033203"/>
     </g>
    </g>
   </g>
   <g id="text_37">
    <g clip-path="url(#p7461dda31b)">
     <!-- 5.74 -->
     <g style="fill: #2c738e" transform="translate(155.69728 112.047036) rotate(-16.717232) scale(0.1 -0.1)">
      <use xlink:href="#DejaVuSans-35"/>
      <use xlink:href="#DejaVuSans-2e" x="63.623047"/>
      <use xlink:href="#DejaVuSans-37" x="95.410156"/>
      <use xlink:href="#DejaVuSans-34" x="159.033203"/>
     </g>
    </g>
   </g>
   <g id="text_38">
    <g clip-path="url(#p7461dda31b)">
     <!-- 6.26 -->
     <g style="fill: #297b8e" transform="translate(73.680639 131.601656) rotate(-18.72486) scale(0.1 -0.1)">
      <use xlink:href="#DejaVuSans-36"/>
      <use xlink:href="#DejaVuSans-2e" x="63.623047"/>
      <use xlink:href="#DejaVuSans-32" x="95.410156"/>
      <use xlink:href="#DejaVuSans-36" x="159.033203"/>
     </g>
    </g>
   </g>
   <g id="text_39">
    <g clip-path="url(#p7461dda31b)">
     <!-- 6.78 -->
     <g style="fill: #25838e" transform="translate(178.876302 91.183336) rotate(-16.229817) scale(0.1 -0.1)">
      <defs>
       <path id="DejaVuSans-38" d="M 2034 2216 
Q 1584 2216 1326 1975 
Q 1069 1734 1069 1313 
Q 1069 891 1326 650 
Q 1584 409 2034 409 
Q 2484 409 2743 651 
Q 3003 894 3003 1313 
Q 3003 1734 2745 1975 
Q 2488 2216 2034 2216 
z
M 1403 2484 
Q 997 2584 770 2862 
Q 544 3141 544 3541 
Q 544 4100 942 4425 
Q 1341 4750 2034 4750 
Q 2731 4750 3128 4425 
Q 3525 4100 3525 3541 
Q 3525 3141 3298 2862 
Q 3072 2584 2669 2484 
Q 3125 2378 3379 2068 
Q 3634 1759 3634 1313 
Q 3634 634 3220 271 
Q 2806 -91 2034 -91 
Q 1263 -91 848 271 
Q 434 634 434 1313 
Q 434 1759 690 2068 
Q 947 2378 1403 2484 
z
M 1172 3481 
Q 1172 3119 1398 2916 
Q 1625 2713 2034 2713 
Q 2441 2713 2670 2916 
Q 2900 3119 2900 3481 
Q 2900 3844 2670 4047 
Q 2441 4250 2034 4250 
Q 1625 4250 1398 4047 
Q 1172 3844 1172 3481 
z
" transform="scale(0.015625)"/>
      </defs>
      <use xlink:href="#DejaVuSans-36"/>
      <use xlink:href="#DejaVuSans-2e" x="63.623047"/>
      <use xlink:href="#DejaVuSans-37" x="95.410156"/>
      <use xlink:href="#DejaVuSans-38" x="159.033203"/>
     </g>
    </g>
   </g>
   <g id="text_40">
    <g clip-path="url(#p7461dda31b)">
     <!-- 7.30 -->
     <g style="fill: #228c8d" transform="translate(125.757467 100.988428) rotate(-17.470795) scale(0.1 -0.1)">
      <use xlink:href="#DejaVuSans-37"/>
      <use xlink:href="#DejaVuSans-2e" x="63.623047"/>
      <use xlink:href="#DejaVuSans-33" x="95.410156"/>
      <use xlink:href="#DejaVuSans-30" x="159.033203"/>
     </g>
    </g>
   </g>
   <g id="text_41">
    <g clip-path="url(#p7461dda31b)">
     <!-- 7.82 -->
     <g style="fill: #1f948c" transform="translate(88.288929 106.92548) rotate(-18.274944) scale(0.1 -0.1)">
      <use xlink:href="#DejaVuSans-37"/>
      <use xlink:href="#DejaVuSans-2e" x="63.623047"/>
      <use xlink:href="#DejaVuSans-38" x="95.410156"/>
      <use xlink:href="#DejaVuSans-32" x="159.033203"/>
     </g>
    </g>
   </g>
   <g id="text_42">
    <g clip-path="url(#p7461dda31b)">
     <!-- 8.34 -->
     <g style="fill: #1e9d89" transform="translate(51.540472 113.338714) rotate(-18.941253) scale(0.1 -0.1)">
      <use xlink:href="#DejaVuSans-38"/>
      <use xlink:href="#DejaVuSans-2e" x="63.623047"/>
      <use xlink:href="#DejaVuSans-33" x="95.410156"/>
      <use xlink:href="#DejaVuSans-34" x="159.033203"/>
     </g>
    </g>
   </g>
   <g id="text_43">
    <g clip-path="url(#p7461dda31b)">
     <!-- 8.87 -->
     <g style="fill: #21a585" transform="translate(156.060878 73.17799) rotate(-16.851922) scale(0.1 -0.1)">
      <use xlink:href="#DejaVuSans-38"/>
      <use xlink:href="#DejaVuSans-2e" x="63.623047"/>
      <use xlink:href="#DejaVuSans-38" x="95.410156"/>
      <use xlink:href="#DejaVuSans-37" x="159.033203"/>
     </g>
    </g>
   </g>
   <g id="text_44">
    <g clip-path="url(#p7461dda31b)">
     <!-- 9.39 -->
     <g style="fill: #26ad81" transform="translate(103.264103 84.181049) rotate(-17.908563) scale(0.1 -0.1)">
      <use xlink:href="#DejaVuSans-39"/>
      <use xlink:href="#DejaVuSans-2e" x="63.623047"/>
      <use xlink:href="#DejaVuSans-33" x="95.410156"/>
      <use xlink:href="#DejaVuSans-39" x="159.033203"/>
     </g>
    </g>
   </g>
   <g id="text_45">
    <g clip-path="url(#p7461dda31b)">
     <!-- 9.91 -->
     <g style="fill: #31b57b" transform="translate(66.874029 90.726761) rotate(-18.589984) scale(0.1 -0.1)">
      <use xlink:href="#DejaVuSans-39"/>
      <use xlink:href="#DejaVuSans-2e" x="63.623047"/>
      <use xlink:href="#DejaVuSans-39" x="95.410156"/>
      <use xlink:href="#DejaVuSans-31" x="159.033203"/>
     </g>
    </g>
   </g>
   <g id="text_46">
    <g clip-path="url(#p7461dda31b)">
     <!-- 10.43 -->
     <g style="fill: #3fbc73" transform="translate(107.36733 71.794487) rotate(-17.751554) scale(0.1 -0.1)">
      <use xlink:href="#DejaVuSans-31"/>
      <use xlink:href="#DejaVuSans-30" x="63.623047"/>
      <use xlink:href="#DejaVuSans-2e" x="127.246094"/>
      <use xlink:href="#DejaVuSans-34" x="159.033203"/>
      <use xlink:href="#DejaVuSans-33" x="222.65625"/>
     </g>
    </g>
   </g>
   <g id="text_47">
    <g clip-path="url(#p7461dda31b)">
     <!-- 10.95 -->
     <g style="fill: #50c46a" transform="translate(97.735925 69.629234) rotate(-17.918979) scale(0.1 -0.1)">
      <use xlink:href="#DejaVuSans-31"/>
      <use xlink:href="#DejaVuSans-30" x="63.623047"/>
      <use xlink:href="#DejaVuSans-2e" x="127.246094"/>
      <use xlink:href="#DejaVuSans-39" x="159.033203"/>
      <use xlink:href="#DejaVuSans-35" x="222.65625"/>
     </g>
    </g>
   </g>
   <g id="text_48">
    <g clip-path="url(#p7461dda31b)">
     <!-- 11.47 -->
     <g style="fill: #63cb5f" transform="translate(88.103681 67.615623) rotate(-18.078722) scale(0.1 -0.1)">
      <use xlink:href="#DejaVuSans-31"/>
      <use xlink:href="#DejaVuSans-31" x="63.623047"/>
      <use xlink:href="#DejaVuSans-2e" x="127.246094"/>
      <use xlink:href="#DejaVuSans-34" x="159.033203"/>
      <use xlink:href="#DejaVuSans-37" x="222.65625"/>
     </g>
    </g>
   </g>
   <g id="text_49">
    <g clip-path="url(#p7461dda31b)">
     <!-- 12.00 -->
     <g style="fill: #77d153" transform="translate(88.101946 62.54283) rotate(-18.064649) scale(0.1 -0.1)">
      <use xlink:href="#DejaVuSans-31"/>
      <use xlink:href="#DejaVuSans-32" x="63.623047"/>
      <use xlink:href="#DejaVuSans-2e" x="127.246094"/>
      <use xlink:href="#DejaVuSans-30" x="159.033203"/>
      <use xlink:href="#DejaVuSans-30" x="222.65625"/>
     </g>
    </g>
   </g>
   <g id="text_50">
    <g clip-path="url(#p7461dda31b)">
     <!-- 12.52 -->
     <g style="fill: #8bd646" transform="translate(107.368868 51.284938) rotate(-17.764152) scale(0.1 -0.1)">
      <use xlink:href="#DejaVuSans-31"/>
      <use xlink:href="#DejaVuSans-32" x="63.623047"/>
      <use xlink:href="#DejaVuSans-2e" x="127.246094"/>
      <use xlink:href="#DejaVuSans-35" x="159.033203"/>
      <use xlink:href="#DejaVuSans-32" x="222.65625"/>
     </g>
    </g>
   </g>
   <g id="text_51">
    <g clip-path="url(#p7461dda31b)">
     <!-- 13.04 -->
     <g style="fill: #a2da37" transform="translate(78.466681 55.912786) rotate(-18.199259) scale(0.1 -0.1)">
      <use xlink:href="#DejaVuSans-31"/>
      <use xlink:href="#DejaVuSans-33" x="63.623047"/>
      <use xlink:href="#DejaVuSans-2e" x="127.246094"/>
      <use xlink:href="#DejaVuSans-30" x="159.033203"/>
      <use xlink:href="#DejaVuSans-34" x="222.65625"/>
     </g>
    </g>
   </g>
   <g id="text_52">
    <g clip-path="url(#p7461dda31b)">
     <!-- 13.56 -->
     <g style="fill: #bade28" transform="translate(78.470556 51.155762) rotate(-18.230546) scale(0.1 -0.1)">
      <use xlink:href="#DejaVuSans-31"/>
      <use xlink:href="#DejaVuSans-33" x="63.623047"/>
      <use xlink:href="#DejaVuSans-2e" x="127.246094"/>
      <use xlink:href="#DejaVuSans-35" x="159.033203"/>
      <use xlink:href="#DejaVuSans-36" x="222.65625"/>
     </g>
    </g>
   </g>
  </g>
 </g>
 <defs>
  <clipPath id="p7461dda31b">
   <rect x="57.6" y="41.472" width="357.12" height="266.112"/>
  </clipPath>
 </defs>
</svg>
