<?xml version="1.0" encoding="utf-8" standalone="no"?>
<!DOCTYPE svg PUBLIC "-//W3C//DTD SVG 1.1//EN"
  "http://www.w3.org/Graphics/SVG/1.1/DTD/svg11.dtd">
<svg xmlns:xlink="http://www.w3.org/1999/xlink" width="460.8pt" height="345.6pt" viewBox="0 0 460.8 345.6" xmlns="http://www.w3.org/2000/svg" version="1.1">
 <metadata>
  <rdf:RDF xmlns:dc="http://purl.org/dc/elements/1.1/" xmlns:cc="http://creativecommons.org/ns#" xmlns:rdf="http://www.w3.org/1999/02/22-rdf-syntax-ns#">
   <cc:Work>
    <dc:type rdf:resource="http://purl.org/dc/dcmitype/StillImage"/>
    <dc:date>2023-10-11T23:27:55.130626</dc:date>
    <dc:format>image/svg+xml</dc:format>
    <dc:creator>
     <cc:Agent>
      <dc:title>Matplotlib v3.7.3, https://matplotlib.org/</dc:title>
     </cc:Agent>
    </dc:creator>
   </cc:Work>
  </rdf:RDF>
 </metadata>
 <defs>
  <style type="text/css">*{stroke-linejoin: round; stroke-linecap: butt}</style>
 </defs>
 <g id="figure_1">
  <g id="patch_1">
   <path d="M 0 345.6 
L 460.8 345.6 
L 460.8 0 
L 0 0 
z
" style="fill: #ffffff"/>
  </g>
  <g id="axes_1">
   <g id="patch_2">
    <path d="M 57.6 307.584 
L 414.72 307.584 
L 414.72 41.472 
L 57.6 41.472 
z
" style="fill: #ffffff"/>
   </g>
   <g id="matplotlib.axis_1">
    <g id="xtick_1">
     <g id="line2d_1">
      <defs>
       <path id="mebf8dcd0ae" d="M 0 0 
L 0 3.5 
" style="stroke: #000000; stroke-width: 0.8"/>
      </defs>
      <g>
       <use xlink:href="#mebf8dcd0ae" x="57.6" y="307.584" style="stroke: #000000; stroke-width: 0.8"/>
      </g>
     </g>
     <g id="text_1">
      <!-- −0.50 -->
      <g transform="translate(42.277344 322.182437) scale(0.1 -0.1)">
       <defs>
        <path id="DejaVuSans-2212" d="M 678 2272 
L 4684 2272 
L 4684 1741 
L 678 1741 
L 678 2272 
z
" transform="scale(0.015625)"/>
        <path id="DejaVuSans-30" d="M 2034 4250 
Q 1547 4250 1301 3770 
Q 1056 3291 1056 2328 
Q 1056 1369 1301 889 
Q 1547 409 2034 409 
Q 2525 409 2770 889 
Q 3016 1369 3016 2328 
Q 3016 3291 2770 3770 
Q 2525 4250 2034 4250 
z
M 2034 4750 
Q 2819 4750 3233 4129 
Q 3647 3509 3647 2328 
Q 3647 1150 3233 529 
Q 2819 -91 2034 -91 
Q 1250 -91 836 529 
Q 422 1150 422 2328 
Q 422 3509 836 4129 
Q 1250 4750 2034 4750 
z
" transform="scale(0.015625)"/>
        <path id="DejaVuSans-2e" d="M 684 794 
L 1344 794 
L 1344 0 
L 684 0 
L 684 794 
z
" transform="scale(0.015625)"/>
        <path id="DejaVuSans-35" d="M 691 4666 
L 3169 4666 
L 3169 4134 
L 1269 4134 
L 1269 2991 
Q 1406 3038 1543 3061 
Q 1681 3084 1819 3084 
Q 2600 3084 3056 2656 
Q 3513 2228 3513 1497 
Q 3513 744 3044 326 
Q 2575 -91 1722 -91 
Q 1428 -91 1123 -41 
Q 819 9 494 109 
L 494 744 
Q 775 591 1075 516 
Q 1375 441 1709 441 
Q 2250 441 2565 725 
Q 2881 1009 2881 1497 
Q 2881 1984 2565 2268 
Q 2250 2553 1709 2553 
Q 1456 2553 1204 2497 
Q 953 2441 691 2322 
L 691 4666 
z
" transform="scale(0.015625)"/>
       </defs>
       <use xlink:href="#DejaVuSans-2212"/>
       <use xlink:href="#DejaVuSans-30" x="83.789062"/>
       <use xlink:href="#DejaVuSans-2e" x="147.412109"/>
       <use xlink:href="#DejaVuSans-35" x="179.199219"/>
       <use xlink:href="#DejaVuSans-30" x="242.822266"/>
      </g>
     </g>
    </g>
    <g id="xtick_2">
     <g id="line2d_2">
      <g>
       <use xlink:href="#mebf8dcd0ae" x="102.23957" y="307.584" style="stroke: #000000; stroke-width: 0.8"/>
      </g>
     </g>
     <g id="text_2">
      <!-- −0.25 -->
      <g transform="translate(86.916914 322.182437) scale(0.1 -0.1)">
       <defs>
        <path id="DejaVuSans-32" d="M 1228 531 
L 3431 531 
L 3431 0 
L 469 0 
L 469 531 
Q 828 903 1448 1529 
Q 2069 2156 2228 2338 
Q 2531 2678 2651 2914 
Q 2772 3150 2772 3378 
Q 2772 3750 2511 3984 
Q 2250 4219 1831 4219 
Q 1534 4219 1204 4116 
Q 875 4013 500 3803 
L 500 4441 
Q 881 4594 1212 4672 
Q 1544 4750 1819 4750 
Q 2544 4750 2975 4387 
Q 3406 4025 3406 3419 
Q 3406 3131 3298 2873 
Q 3191 2616 2906 2266 
Q 2828 2175 2409 1742 
Q 1991 1309 1228 531 
z
" transform="scale(0.015625)"/>
       </defs>
       <use xlink:href="#DejaVuSans-2212"/>
       <use xlink:href="#DejaVuSans-30" x="83.789062"/>
       <use xlink:href="#DejaVuSans-2e" x="147.412109"/>
       <use xlink:href="#DejaVuSans-32" x="179.199219"/>
       <use xlink:href="#DejaVuSans-35" x="242.822266"/>
      </g>
     </g>
    </g>
    <g id="xtick_3">
     <g id="line2d_3">
      <g>
       <use xlink:href="#mebf8dcd0ae" x="146.879141" y="307.584" style="stroke: #000000; stroke-width: 0.8"/>
      </g>
     </g>
     <g id="text_3">
      <!-- 0.00 -->
      <g transform="translate(135.746328 322.182437) scale(0.1 -0.1)">
       <use xlink:href="#DejaVuSans-30"/>
       <use xlink:href="#DejaVuSans-2e" x="63.623047"/>
       <use xlink:href="#DejaVuSans-30" x="95.410156"/>
       <use xlink:href="#DejaVuSans-30" x="159.033203"/>
      </g>
     </g>
    </g>
    <g id="xtick_4">
     <g id="line2d_4">
      <g>
       <use xlink:href="#mebf8dcd0ae" x="191.518711" y="307.584" style="stroke: #000000; stroke-width: 0.8"/>
      </g>
     </g>
     <g id="text_4">
      <!-- 0.25 -->
      <g transform="translate(180.385899 322.182437) scale(0.1 -0.1)">
       <use xlink:href="#DejaVuSans-30"/>
       <use xlink:href="#DejaVuSans-2e" x="63.623047"/>
       <use xlink:href="#DejaVuSans-32" x="95.410156"/>
       <use xlink:href="#DejaVuSans-35" x="159.033203"/>
      </g>
     </g>
    </g>
    <g id="xtick_5">
     <g id="line2d_5">
      <g>
       <use xlink:href="#mebf8dcd0ae" x="236.158282" y="307.584" style="stroke: #000000; stroke-width: 0.8"/>
      </g>
     </g>
     <g id="text_5">
      <!-- 0.50 -->
      <g transform="translate(225.025469 322.182437) scale(0.1 -0.1)">
       <use xlink:href="#DejaVuSans-30"/>
       <use xlink:href="#DejaVuSans-2e" x="63.623047"/>
       <use xlink:href="#DejaVuSans-35" x="95.410156"/>
       <use xlink:href="#DejaVuSans-30" x="159.033203"/>
      </g>
     </g>
    </g>
    <g id="xtick_6">
     <g id="line2d_6">
      <g>
       <use xlink:href="#mebf8dcd0ae" x="280.797852" y="307.584" style="stroke: #000000; stroke-width: 0.8"/>
      </g>
     </g>
     <g id="text_6">
      <!-- 0.75 -->
      <g transform="translate(269.66504 322.182437) scale(0.1 -0.1)">
       <defs>
        <path id="DejaVuSans-37" d="M 525 4666 
L 3525 4666 
L 3525 4397 
L 1831 0 
L 1172 0 
L 2766 4134 
L 525 4134 
L 525 4666 
z
" transform="scale(0.015625)"/>
       </defs>
       <use xlink:href="#DejaVuSans-30"/>
       <use xlink:href="#DejaVuSans-2e" x="63.623047"/>
       <use xlink:href="#DejaVuSans-37" x="95.410156"/>
       <use xlink:href="#DejaVuSans-35" x="159.033203"/>
      </g>
     </g>
    </g>
    <g id="xtick_7">
     <g id="line2d_7">
      <g>
       <use xlink:href="#mebf8dcd0ae" x="325.437423" y="307.584" style="stroke: #000000; stroke-width: 0.8"/>
      </g>
     </g>
     <g id="text_7">
      <!-- 1.00 -->
      <g transform="translate(314.30461 322.182437) scale(0.1 -0.1)">
       <defs>
        <path id="DejaVuSans-31" d="M 794 531 
L 1825 531 
L 1825 4091 
L 703 3866 
L 703 4441 
L 1819 4666 
L 2450 4666 
L 2450 531 
L 3481 531 
L 3481 0 
L 794 0 
L 794 531 
z
" transform="scale(0.015625)"/>
       </defs>
       <use xlink:href="#DejaVuSans-31"/>
       <use xlink:href="#DejaVuSans-2e" x="63.623047"/>
       <use xlink:href="#DejaVuSans-30" x="95.410156"/>
       <use xlink:href="#DejaVuSans-30" x="159.033203"/>
      </g>
     </g>
    </g>
    <g id="xtick_8">
     <g id="line2d_8">
      <g>
       <use xlink:href="#mebf8dcd0ae" x="370.076993" y="307.584" style="stroke: #000000; stroke-width: 0.8"/>
      </g>
     </g>
     <g id="text_8">
      <!-- 1.25 -->
      <g transform="translate(358.944181 322.182437) scale(0.1 -0.1)">
       <use xlink:href="#DejaVuSans-31"/>
       <use xlink:href="#DejaVuSans-2e" x="63.623047"/>
       <use xlink:href="#DejaVuSans-32" x="95.410156"/>
       <use xlink:href="#DejaVuSans-35" x="159.033203"/>
      </g>
     </g>
    </g>
    <g id="xtick_9">
     <g id="line2d_9">
      <g>
       <use xlink:href="#mebf8dcd0ae" x="414.716564" y="307.584" style="stroke: #000000; stroke-width: 0.8"/>
      </g>
     </g>
     <g id="text_9">
      <!-- 1.50 -->
      <g transform="translate(403.583751 322.182437) scale(0.1 -0.1)">
       <use xlink:href="#DejaVuSans-31"/>
       <use xlink:href="#DejaVuSans-2e" x="63.623047"/>
       <use xlink:href="#DejaVuSans-35" x="95.410156"/>
       <use xlink:href="#DejaVuSans-30" x="159.033203"/>
      </g>
     </g>
    </g>
    <g id="text_10">
     <!-- x1 -->
     <g transform="translate(230.019375 335.860562) scale(0.1 -0.1)">
      <defs>
       <path id="DejaVuSans-78" d="M 3513 3500 
L 2247 1797 
L 3578 0 
L 2900 0 
L 1881 1375 
L 863 0 
L 184 0 
L 1544 1831 
L 300 3500 
L 978 3500 
L 1906 2253 
L 2834 3500 
L 3513 3500 
z
" transform="scale(0.015625)"/>
      </defs>
      <use xlink:href="#DejaVuSans-78"/>
      <use xlink:href="#DejaVuSans-31" x="59.179688"/>
     </g>
    </g>
   </g>
   <g id="matplotlib.axis_2">
    <g id="ytick_1">
     <g id="line2d_10">
      <defs>
       <path id="m1ebf654a7e" d="M 0 0 
L -3.5 0 
" style="stroke: #000000; stroke-width: 0.8"/>
      </defs>
      <g>
       <use xlink:href="#m1ebf654a7e" x="57.6" y="307.584" style="stroke: #000000; stroke-width: 0.8"/>
      </g>
     </g>
     <g id="text_11">
      <!-- −0.50 -->
      <g transform="translate(19.954687 311.383219) scale(0.1 -0.1)">
       <use xlink:href="#DejaVuSans-2212"/>
       <use xlink:href="#DejaVuSans-30" x="83.789062"/>
       <use xlink:href="#DejaVuSans-2e" x="147.412109"/>
       <use xlink:href="#DejaVuSans-35" x="179.199219"/>
       <use xlink:href="#DejaVuSans-30" x="242.822266"/>
      </g>
     </g>
    </g>
    <g id="ytick_2">
     <g id="line2d_11">
      <g>
       <use xlink:href="#m1ebf654a7e" x="57.6" y="274.320757" style="stroke: #000000; stroke-width: 0.8"/>
      </g>
     </g>
     <g id="text_12">
      <!-- −0.25 -->
      <g transform="translate(19.954687 278.119976) scale(0.1 -0.1)">
       <use xlink:href="#DejaVuSans-2212"/>
       <use xlink:href="#DejaVuSans-30" x="83.789062"/>
       <use xlink:href="#DejaVuSans-2e" x="147.412109"/>
       <use xlink:href="#DejaVuSans-32" x="179.199219"/>
       <use xlink:href="#DejaVuSans-35" x="242.822266"/>
      </g>
     </g>
    </g>
    <g id="ytick_3">
     <g id="line2d_12">
      <g>
       <use xlink:href="#m1ebf654a7e" x="57.6" y="241.057514" style="stroke: #000000; stroke-width: 0.8"/>
      </g>
     </g>
     <g id="text_13">
      <!-- 0.00 -->
      <g transform="translate(28.334375 244.856733) scale(0.1 -0.1)">
       <use xlink:href="#DejaVuSans-30"/>
       <use xlink:href="#DejaVuSans-2e" x="63.623047"/>
       <use xlink:href="#DejaVuSans-30" x="95.410156"/>
       <use xlink:href="#DejaVuSans-30" x="159.033203"/>
      </g>
     </g>
    </g>
    <g id="ytick_4">
     <g id="line2d_13">
      <g>
       <use xlink:href="#m1ebf654a7e" x="57.6" y="207.794271" style="stroke: #000000; stroke-width: 0.8"/>
      </g>
     </g>
     <g id="text_14">
      <!-- 0.25 -->
      <g transform="translate(28.334375 211.59349) scale(0.1 -0.1)">
       <use xlink:href="#DejaVuSans-30"/>
       <use xlink:href="#DejaVuSans-2e" x="63.623047"/>
       <use xlink:href="#DejaVuSans-32" x="95.410156"/>
       <use xlink:href="#DejaVuSans-35" x="159.033203"/>
      </g>
     </g>
    </g>
    <g id="ytick_5">
     <g id="line2d_14">
      <g>
       <use xlink:href="#m1ebf654a7e" x="57.6" y="174.531029" style="stroke: #000000; stroke-width: 0.8"/>
      </g>
     </g>
     <g id="text_15">
      <!-- 0.50 -->
      <g transform="translate(28.334375 178.330247) scale(0.1 -0.1)">
       <use xlink:href="#DejaVuSans-30"/>
       <use xlink:href="#DejaVuSans-2e" x="63.623047"/>
       <use xlink:href="#DejaVuSans-35" x="95.410156"/>
       <use xlink:href="#DejaVuSans-30" x="159.033203"/>
      </g>
     </g>
    </g>
    <g id="ytick_6">
     <g id="line2d_15">
      <g>
       <use xlink:href="#m1ebf654a7e" x="57.6" y="141.267786" style="stroke: #000000; stroke-width: 0.8"/>
      </g>
     </g>
     <g id="text_16">
      <!-- 0.75 -->
      <g transform="translate(28.334375 145.067004) scale(0.1 -0.1)">
       <use xlink:href="#DejaVuSans-30"/>
       <use xlink:href="#DejaVuSans-2e" x="63.623047"/>
       <use xlink:href="#DejaVuSans-37" x="95.410156"/>
       <use xlink:href="#DejaVuSans-35" x="159.033203"/>
      </g>
     </g>
    </g>
    <g id="ytick_7">
     <g id="line2d_16">
      <g>
       <use xlink:href="#m1ebf654a7e" x="57.6" y="108.004543" style="stroke: #000000; stroke-width: 0.8"/>
      </g>
     </g>
     <g id="text_17">
      <!-- 1.00 -->
      <g transform="translate(28.334375 111.803762) scale(0.1 -0.1)">
       <use xlink:href="#DejaVuSans-31"/>
       <use xlink:href="#DejaVuSans-2e" x="63.623047"/>
       <use xlink:href="#DejaVuSans-30" x="95.410156"/>
       <use xlink:href="#DejaVuSans-30" x="159.033203"/>
      </g>
     </g>
    </g>
    <g id="ytick_8">
     <g id="line2d_17">
      <g>
       <use xlink:href="#m1ebf654a7e" x="57.6" y="74.7413" style="stroke: #000000; stroke-width: 0.8"/>
      </g>
     </g>
     <g id="text_18">
      <!-- 1.25 -->
      <g transform="translate(28.334375 78.540519) scale(0.1 -0.1)">
       <use xlink:href="#DejaVuSans-31"/>
       <use xlink:href="#DejaVuSans-2e" x="63.623047"/>
       <use xlink:href="#DejaVuSans-32" x="95.410156"/>
       <use xlink:href="#DejaVuSans-35" x="159.033203"/>
      </g>
     </g>
    </g>
    <g id="ytick_9">
     <g id="line2d_18">
      <g>
       <use xlink:href="#m1ebf654a7e" x="57.6" y="41.478057" style="stroke: #000000; stroke-width: 0.8"/>
      </g>
     </g>
     <g id="text_19">
      <!-- 1.50 -->
      <g transform="translate(28.334375 45.277276) scale(0.1 -0.1)">
       <use xlink:href="#DejaVuSans-31"/>
       <use xlink:href="#DejaVuSans-2e" x="63.623047"/>
       <use xlink:href="#DejaVuSans-35" x="95.410156"/>
       <use xlink:href="#DejaVuSans-30" x="159.033203"/>
      </g>
     </g>
    </g>
    <g id="text_20">
     <!-- x2 -->
     <g transform="translate(13.875 180.668625) rotate(-90) scale(0.1 -0.1)">
      <use xlink:href="#DejaVuSans-78"/>
      <use xlink:href="#DejaVuSans-32" x="59.179688"/>
     </g>
    </g>
   </g>
   <g id="PathCollection_1">
    <path d="M 325.350631 108.066595 
L 325.350631 108.066595 
L 325.350631 108.066595 
L 325.350631 108.066595 
L 325.350631 108.066595 
z
" clip-path="url(#pcbbe0800d0)" style="fill: none; stroke: #440154; stroke-width: 1.5"/>
   </g>
   <g id="PathCollection_2">
    <path d="M 143.109399 307.584 
L 138.38991 307.269842 
L 133.385225 306.731471 
L 128.380541 305.981945 
L 123.018378 304.94434 
L 118.013694 303.757062 
L 112.651532 302.250738 
L 107.289369 300.501647 
L 101.927207 298.510227 
L 96.565045 296.27605 
L 91.064687 293.732324 
L 85.819757 291.069158 
L 85.819757 291.069158 
" clip-path="url(#pcbbe0800d0)" style="fill: none; stroke: #470d60; stroke-width: 1.5"/>
    <path d="M 57.6 142.83331 
L 63.510388 146.957838 
L 69.039279 150.555432 
L 74.758919 154.011473 
L 80.478559 157.197477 
L 86.198198 160.113424 
L 91.724705 162.674162 
L 96.922523 164.852853 
L 102.284685 166.866538 
L 107.646847 168.642821 
L 113.009009 170.181615 
L 118.371171 171.482987 
L 123.733333 172.546966 
L 129.095495 173.373543 
L 134.457658 173.962672 
L 139.81982 174.31427 
L 145.181982 174.42835 
L 150.544144 174.305059 
L 155.906306 173.944208 
L 161.268468 173.345776 
L 166.630631 172.509922 
L 171.992793 171.436555 
L 177.354955 170.125612 
L 182.717117 168.577228 
L 188.079279 166.791305 
L 193.441441 164.767707 
L 198.803604 162.506681 
L 204.165766 160.007917 
L 209.527928 157.271805 
L 215.247568 154.091305 
L 220.967207 150.640495 
L 226.686847 146.919371 
L 232.406486 142.927929 
L 238.126126 138.666165 
L 244.12567 133.905297 
L 249.922883 129.022561 
L 256 123.605807 
L 262.077117 117.883803 
L 268.213964 111.795892 
L 274.34519 105.402811 
L 280.67465 98.476973 
L 286.949151 91.284757 
L 293.392867 83.559784 
L 299.984636 75.302054 
L 302.678378 71.824427 
L 302.678378 71.824427 
" clip-path="url(#pcbbe0800d0)" style="fill: none; stroke: #470d60; stroke-width: 1.5"/>
    <path d="M 385.893932 70.460599 
L 378.427088 85.158054 
L 371.445059 98.476973 
L 363.243243 113.597107 
L 355.101597 128.044973 
L 348.569886 139.232865 
L 340.832869 152.019027 
L 334.287568 162.442833 
L 326.780541 173.952981 
L 319.415405 184.783568 
L 313.003611 193.840432 
L 306.731953 202.364541 
L 299.96973 211.183657 
L 293.156674 219.679135 
L 286.440789 227.670486 
L 280.58344 234.329946 
L 274.453739 240.989405 
L 268.511712 247.143086 
L 262.315108 253.242811 
L 256.319841 258.836757 
L 250.28036 264.165573 
L 244.192821 269.225514 
L 238.395182 273.753946 
L 232.573762 278.016 
L 227.044324 281.799975 
L 221.272667 285.474595 
L 215.605045 288.809725 
L 210.242883 291.715841 
L 204.880721 294.379569 
L 199.518559 296.800903 
L 194.156396 298.979862 
L 188.770379 300.924541 
L 183.432072 302.610515 
L 178.06991 304.062248 
L 173.065225 305.198523 
L 167.703063 306.181456 
L 162.698378 306.880184 
L 157.693694 307.367774 
L 154.177564 307.584 
L 154.177564 307.584 
" clip-path="url(#pcbbe0800d0)" style="fill: none; stroke: #470d60; stroke-width: 1.5"/>
   </g>
   <g id="PathCollection_3">
    <path d="M 65.541555 307.584 
L 65.464505 307.53057 
L 65.158667 307.317622 
L 65.107027 307.281657 
L 64.777531 307.051243 
L 64.74955 307.031672 
L 64.398125 306.784865 
L 64.392072 306.780613 
L 64.034595 306.528453 
L 64.020523 306.518486 
L 63.677117 306.27521 
L 63.644638 306.252108 
L 63.31964 306.020895 
L 63.270409 305.98573 
L 62.962162 305.765509 
L 62.897815 305.719351 
L 62.604685 305.50905 
L 62.526836 305.452973 
L 62.247207 305.251518 
L 62.157452 305.186595 
L 61.88973 304.992914 
L 61.789643 304.920216 
L 61.532252 304.733236 
L 61.423392 304.653838 
L 61.174775 304.472485 
L 61.058678 304.387459 
L 60.817297 304.21066 
L 60.695484 304.121081 
L 60.45982 303.947762 
L 60.33379 303.854703 
L 60.102342 303.68379 
L 59.973579 303.588324 
L 59.744865 303.418743 
L 59.614833 303.321946 
L 59.387387 303.152623 
L 59.257534 303.055568 
L 59.02991 302.885428 
L 58.901664 302.789189 
L 58.672432 302.61716 
L 58.547208 302.522811 
L 58.314955 302.347818 
L 58.194147 302.256432 
L 57.957477 302.077401 
L 57.842465 301.990054 
L 57.6 301.805911 
" clip-path="url(#pcbbe0800d0)" style="fill: none; stroke: #481a6c; stroke-width: 1.5"/>
    <path d="M 57.6 113.782645 
L 63.472413 117.922595 
L 69.147163 121.651892 
L 74.822607 125.114811 
L 80.478559 128.300388 
L 86.198198 131.25224 
L 91.56036 133.773512 
L 96.922523 136.056403 
L 102.284685 138.101169 
L 107.646847 139.907674 
L 113.009009 141.475908 
L 118.371171 142.805895 
L 123.733333 143.897634 
L 129.095495 144.751096 
L 134.457658 145.36625 
L 139.462342 145.725569 
L 144.467027 145.877187 
L 149.829189 145.809441 
L 154.833874 145.531187 
L 160.196036 145.002719 
L 165.558198 144.235955 
L 170.931395 143.228541 
L 176.282523 141.987648 
L 181.644685 140.506039 
L 187.006847 138.78618 
L 192.369009 136.827943 
L 197.731171 134.63155 
L 203.093333 132.196815 
L 208.736694 129.376865 
L 213.817658 126.61242 
L 219.537297 123.244248 
L 225.256937 119.605092 
L 230.976577 115.694733 
L 236.696216 111.513167 
L 242.489881 107.001081 
L 248.288909 102.20627 
L 249.781595 100.926926 
L 249.781595 100.926926 
" clip-path="url(#pcbbe0800d0)" style="fill: none; stroke: #481a6c; stroke-width: 1.5"/>
    <path d="M 285.915099 64.324617 
L 292.362723 56.655568 
L 298.897297 48.531501 
L 304.357308 41.472 
L 304.357308 41.472 
" clip-path="url(#pcbbe0800d0)" style="fill: none; stroke: #481a6c; stroke-width: 1.5"/>
    <path d="M 412.9668 41.472 
L 405.783063 57.245824 
L 397.050754 75.834811 
L 393.009034 84.222345 
L 393.009034 84.222345 
" clip-path="url(#pcbbe0800d0)" style="fill: none; stroke: #481a6c; stroke-width: 1.5"/>
    <path d="M 369.613403 130.075025 
L 361.690265 144.560432 
L 354.444039 157.346595 
L 347.57071 169.067243 
L 340.94535 179.988757 
L 333.93009 191.151622 
L 326.60537 202.364541 
L 319.988468 212.107115 
L 312.838919 222.219914 
L 305.867948 231.666162 
L 299.511671 239.923892 
L 293.095323 247.915243 
L 286.610489 255.640216 
L 280.308468 262.809169 
L 273.873874 269.784234 
L 267.432913 276.41773 
L 261.15823 282.544432 
L 255.285045 287.979731 
L 249.207928 293.298385 
L 243.130811 298.306686 
L 237.341232 302.789189 
L 231.691532 306.891953 
L 230.700361 307.584 
L 230.700361 307.584 
" clip-path="url(#pcbbe0800d0)" style="fill: none; stroke: #481a6c; stroke-width: 1.5"/>
   </g>
   <g id="PathCollection_4">
    <path d="M 85.134644 108.811516 
L 90.792656 111.529514 
L 95.85009 113.734364 
L 101.212252 115.84013 
L 106.574414 117.707332 
L 111.936577 119.335967 
L 117.298739 120.72601 
L 122.660901 121.877418 
L 128.023063 122.790294 
L 133.385225 123.464546 
L 138.747387 123.900244 
L 143.752072 124.091572 
L 148.756757 124.075076 
L 153.761441 123.85078 
L 159.123604 123.379803 
L 164.485766 122.670175 
L 169.847928 121.721991 
L 175.21009 120.535178 
L 180.572252 119.1098 
L 185.934414 117.445763 
L 191.343895 115.525189 
L 196.676958 113.394162 
L 202.074982 110.996757 
L 207.521016 108.332973 
L 213.003495 105.402811 
L 218.107387 102.450868 
L 223.827027 98.885863 
L 229.597268 95.014054 
L 235.266306 90.941262 
L 241.076709 86.489946 
L 246.962727 81.695135 
L 252.782703 76.671486 
L 258.85982 71.12583 
L 265.031929 65.179676 
L 271.073681 59.052973 
L 277.326256 52.393514 
L 283.527975 45.467676 
L 286.982019 41.472 
L 286.982019 41.472 
" clip-path="url(#pcbbe0800d0)" style="fill: none; stroke: #482576; stroke-width: 1.5"/>
    <path d="M 414.72 59.198747 
L 405.958702 78.498595 
L 398.345218 94.747676 
L 391.126486 109.705028 
L 382.783115 126.446703 
L 377.192395 137.338926 
L 377.192395 137.338926 
" clip-path="url(#pcbbe0800d0)" style="fill: none; stroke: #482576; stroke-width: 1.5"/>
    <path d="M 352.321296 182.612113 
L 345.011892 194.930944 
L 337.477285 207.159351 
L 330.137228 218.613622 
L 323.563243 228.489217 
L 316.384525 238.858378 
L 309.461746 248.448 
L 303.049293 256.972108 
L 296.573719 265.229838 
L 290.249642 272.954811 
L 283.86485 280.413405 
L 277.410187 287.605622 
L 271.014054 294.387754 
L 264.789378 300.658162 
L 258.85982 306.329193 
L 257.504324 307.584 
L 257.504324 307.584 
" clip-path="url(#pcbbe0800d0)" style="fill: none; stroke: #482576; stroke-width: 1.5"/>
   </g>
   <g id="PathCollection_5">
    <path d="M 414.72 77.433292 
L 406.012335 96.612324 
L 398.145031 113.394162 
L 390.411532 129.385196 
L 382.160573 145.892324 
L 374.165676 161.34227 
L 366.818018 175.069522 
L 358.92419 189.312 
L 356.243509 194.02951 
L 356.243509 194.02951 
" clip-path="url(#pcbbe0800d0)" style="fill: none; stroke: #46307e; stroke-width: 1.5"/>
    <path d="M 325.920272 243.199214 
L 319.067423 253.242811 
L 312.451301 262.566054 
L 305.557693 271.889297 
L 298.980444 280.413405 
L 292.762352 288.138378 
L 286.265269 295.863351 
L 279.929755 303.055568 
L 275.779706 307.584 
L 275.779706 307.584 
" clip-path="url(#pcbbe0800d0)" style="fill: none; stroke: #46307e; stroke-width: 1.5"/>
    <path d="M 57.6 73.352065 
L 63.346147 77.433081 
L 69.039279 81.206174 
L 74.758919 84.725765 
L 80.478559 87.973666 
L 85.840721 90.771792 
L 91.389378 93.415784 
L 96.565045 95.651858 
L 101.927207 97.733685 
L 107.289369 99.57674 
L 112.651532 101.181033 
L 118.013694 102.54656 
L 123.375856 103.673299 
L 128.738018 104.561212 
L 134.10018 105.210389 
L 139.462342 105.620749 
L 144.824505 105.792362 
L 149.829189 105.737055 
L 154.833874 105.473754 
L 160.196036 104.960822 
L 165.558198 104.209098 
L 170.92036 103.218553 
L 176.282523 101.989237 
L 179.430695 101.15613 
L 179.430695 101.15613 
" clip-path="url(#pcbbe0800d0)" style="fill: none; stroke: #46307e; stroke-width: 1.5"/>
    <path d="M 231.021692 75.778304 
L 236.7822 71.572757 
L 242.601664 67.044324 
L 248.403657 62.249514 
L 254.212613 57.168893 
L 260.28973 51.553733 
L 266.366847 45.631856 
L 270.458359 41.472 
L 270.458359 41.472 
" clip-path="url(#pcbbe0800d0)" style="fill: none; stroke: #46307e; stroke-width: 1.5"/>
   </g>
   <g id="PathCollection_6">
    <path d="M 414.72 93.493115 
L 406.046553 112.595027 
L 397.918559 129.924152 
L 389.531394 147.224216 
L 382.058908 162.141405 
L 374.480331 176.792216 
L 367.219464 190.377514 
L 360.308469 202.897297 
L 352.855895 215.949838 
L 345.28285 228.736 
L 338.07657 240.456649 
L 331.07027 251.435086 
L 324.858877 260.823286 
L 324.858877 260.823286 
" clip-path="url(#pcbbe0800d0)" style="fill: none; stroke: #443b84; stroke-width: 1.5"/>
    <path d="M 290.329098 307.118405 
L 290.317838 307.131894 
L 290.162257 307.317622 
L 289.96036 307.558895 
L 289.939278 307.584 
" clip-path="url(#pcbbe0800d0)" style="fill: none; stroke: #443b84; stroke-width: 1.5"/>
    <path d="M 57.6 57.1524 
L 63.31964 61.222026 
L 69.039279 65.01986 
L 74.758919 68.545844 
L 80.478559 71.799986 
L 86.172132 74.769297 
L 91.202883 77.168874 
L 96.733617 79.564108 
L 100.318763 80.981067 
L 100.318763 80.981067 
" clip-path="url(#pcbbe0800d0)" style="fill: none; stroke: #443b84; stroke-width: 1.5"/>
    <path d="M 157.003073 89.190768 
L 162.340901 88.588424 
L 167.703063 87.744949 
L 173.065225 86.662537 
L 178.427387 85.341196 
L 183.78955 83.780921 
L 189.207936 81.961514 
L 194.513874 79.943663 
L 199.876036 77.666607 
L 205.238198 75.150692 
L 210.644794 72.371892 
L 215.962523 69.401998 
L 221.682162 65.945265 
L 227.401802 62.216691 
L 233.121441 58.216278 
L 238.841081 53.944022 
L 244.808327 49.196973 
L 250.490039 44.402162 
L 253.814807 41.472 
L 253.814807 41.472 
" clip-path="url(#pcbbe0800d0)" style="fill: none; stroke: #443b84; stroke-width: 1.5"/>
   </g>
   <g id="PathCollection_7">
    <path d="M 399.431626 141.252342 
L 391.946454 156.813838 
L 384.683699 171.464649 
L 376.636411 187.180973 
L 369.302278 201.032649 
L 361.455856 215.352426 
L 353.698361 229.002378 
L 346.796771 240.723027 
L 339.292252 253.014247 
L 331.87597 264.697081 
L 325.200155 274.819459 
L 318.449654 284.675459 
L 311.615098 294.265081 
L 304.974414 303.208034 
L 301.620438 307.584 
L 301.620438 307.584 
" clip-path="url(#pcbbe0800d0)" style="fill: none; stroke: #404588; stroke-width: 1.5"/>
    <path d="M 89.002099 61.551519 
L 94.062703 63.849544 
L 99.424865 66.052236 
L 104.787027 68.015888 
L 110.149189 69.740501 
L 115.511351 71.226155 
L 120.873514 72.472785 
L 126.235676 73.48038 
L 131.597838 74.248967 
L 136.841253 74.769297 
L 141.607207 75.044213 
L 146.611892 75.129572 
L 151.616577 75.006656 
L 156.621261 74.67559 
L 161.625946 74.136291 
L 166.988108 73.327425 
L 172.35027 72.279541 
L 177.712432 70.992629 
L 183.074595 69.466707 
L 188.436757 67.701818 
L 193.798919 65.697838 
L 199.161081 63.454925 
L 204.636878 60.917622 
L 209.885405 58.251917 
L 215.247568 55.291934 
L 220.967207 51.871133 
L 226.756839 48.131459 
L 232.515003 44.135784 
L 236.149316 41.472 
L 236.149316 41.472 
" clip-path="url(#pcbbe0800d0)" style="fill: none; stroke: #404588; stroke-width: 1.5"/>
   </g>
   <g id="PathCollection_8">
    <path d="M 399.385979 154.69308 
L 392.088269 169.866378 
L 384.29258 185.582703 
L 376.370095 201.032649 
L 368.739128 215.417081 
L 361.579461 228.469622 
L 354.479379 240.989405 
L 347.445373 252.976432 
L 340.154497 264.963459 
L 333.262876 275.884973 
L 326.638666 286.007351 
L 319.944626 295.863351 
L 312.979715 305.719351 
L 311.628802 307.584 
L 311.628802 307.584 
" clip-path="url(#pcbbe0800d0)" style="fill: none; stroke: #3c4f8a; stroke-width: 1.5"/>
    <path d="M 110.496376 56.448899 
L 115.511351 57.833802 
L 120.873514 59.083181 
L 126.235676 60.093503 
L 131.597838 60.86476 
L 136.96 61.39692 
L 142.322162 61.689982 
L 147.326847 61.747815 
L 152.331532 61.597405 
L 157.336216 61.238681 
L 162.698378 60.623222 
L 168.060541 59.768714 
L 173.422703 58.675102 
L 178.784865 57.342399 
L 184.147027 55.770603 
L 189.509189 53.959703 
L 194.991951 51.860757 
L 200.233514 49.620712 
L 205.649361 47.065946 
L 210.957838 44.325334 
L 216.056867 41.472 
L 216.056867 41.472 
" clip-path="url(#pcbbe0800d0)" style="fill: none; stroke: #3c4f8a; stroke-width: 1.5"/>
   </g>
   <g id="PathCollection_9">
    <path d="M 399.377683 167.130355 
L 392.038885 182.386162 
L 384.375412 197.836108 
L 377.14896 211.954162 
L 369.257693 226.871351 
L 361.669867 240.723027 
L 354.419013 253.509189 
L 347.382565 265.496216 
L 340.254316 277.216865 
L 333.195125 288.404757 
L 326.034823 299.32627 
L 320.424157 307.584 
L 320.424157 307.584 
" clip-path="url(#pcbbe0800d0)" style="fill: none; stroke: #38598c; stroke-width: 1.5"/>
    <path d="M 140.086839 49.148132 
L 144.824505 49.298055 
L 149.829189 49.25353 
L 154.833874 49.000703 
L 159.838559 48.53956 
L 165.200721 47.814277 
L 170.562883 46.849867 
L 175.925045 45.646326 
L 181.287207 44.203621 
L 186.649369 42.521752 
L 189.661407 41.472 
L 189.661407 41.472 
" clip-path="url(#pcbbe0800d0)" style="fill: none; stroke: #38598c; stroke-width: 1.5"/>
   </g>
   <g id="PathCollection_10">
    <path d="M 399.409075 178.728225 
L 392.010926 194.106811 
L 384.480273 209.290378 
L 377.118372 223.674811 
L 369.369164 238.325622 
L 362.229894 251.378162 
L 355.151501 263.897946 
L 348.140615 275.884973 
L 340.875676 287.872 
L 334.010462 298.793514 
L 328.295535 307.584 
L 328.295535 307.584 
" clip-path="url(#pcbbe0800d0)" style="fill: none; stroke: #33628d; stroke-width: 1.5"/>
   </g>
   <g id="PathCollection_11">
    <path d="M 399.441741 189.691105 
L 391.934414 205.294703 
L 384.535168 220.211892 
L 377.036122 234.862703 
L 369.570409 248.980757 
L 362.141563 262.566054 
L 354.599758 275.884973 
L 347.156757 288.562787 
L 339.64973 300.8797 
L 335.437459 307.584 
L 335.437459 307.584 
" clip-path="url(#pcbbe0800d0)" style="fill: none; stroke: #2f6b8e; stroke-width: 1.5"/>
   </g>
   <g id="PathCollection_12">
    <path d="M 399.326864 200.425997 
L 391.072326 217.548108 
L 383.106328 233.530811 
L 375.560057 248.181622 
L 368.18841 262.033297 
L 360.561795 275.884973 
L 353.425828 288.404757 
L 346.353864 300.391784 
L 341.98727 307.584 
L 341.98727 307.584 
" clip-path="url(#pcbbe0800d0)" style="fill: none; stroke: #2c738e; stroke-width: 1.5"/>
   </g>
   <g id="PathCollection_13">
    <path d="M 399.444893 210.201917 
L 391.936927 225.805838 
L 384.537237 240.723027 
L 377.037772 255.373838 
L 369.571679 269.491892 
L 362.142494 283.077189 
L 354.600403 296.396108 
L 348.046067 307.584 
L 348.046067 307.584 
" clip-path="url(#pcbbe0800d0)" style="fill: none; stroke: #297b8e; stroke-width: 1.5"/>
   </g>
   <g id="PathCollection_14">
    <path d="M 414.72 186.615551 
L 406.237078 205.294703 
L 398.625205 221.543784 
L 390.382619 238.592 
L 384.76991 249.875341 
L 384.76991 249.875341 
" clip-path="url(#pcbbe0800d0)" style="fill: none; stroke: #25838e; stroke-width: 1.5"/>
    <path d="M 357.515161 300.918457 
L 357.511697 300.924541 
L 357.360017 301.190919 
L 357.208502 301.457297 
L 357.166126 301.53182 
L 357.056686 301.723676 
L 356.904853 301.990054 
L 356.808649 302.158954 
L 356.752949 302.256432 
L 356.600799 302.522811 
L 356.451171 302.785055 
L 356.448805 302.789189 
L 356.296337 303.055568 
L 356.144035 303.321946 
L 356.093694 303.410024 
L 355.991463 303.588324 
L 355.838843 303.854703 
L 355.736216 304.033955 
L 355.686175 304.121081 
L 355.533237 304.387459 
L 355.380464 304.653838 
L 355.378739 304.656845 
L 355.227213 304.920216 
L 355.074121 305.186595 
L 355.021261 305.278605 
L 354.920769 305.452973 
L 354.767359 305.719351 
L 354.663784 305.899328 
L 354.613903 305.98573 
L 354.460172 306.252108 
L 354.306609 306.518486 
L 354.306306 306.519011 
L 354.15256 306.784865 
L 353.998677 307.051243 
L 353.948829 307.137563 
L 353.844518 307.317622 
L 353.690315 307.584 
" clip-path="url(#pcbbe0800d0)" style="fill: none; stroke: #25838e; stroke-width: 1.5"/>
   </g>
   <g id="PathCollection_15">
    <path d="M 399.442693 229.073436 
L 391.914035 244.718703 
L 384.513192 259.635892 
L 377.01256 274.286703 
L 369.54527 288.404757 
L 362.114849 301.990054 
L 358.979465 307.584 
L 358.979465 307.584 
" clip-path="url(#pcbbe0800d0)" style="fill: none; stroke: #228c8d; stroke-width: 1.5"/>
   </g>
   <g id="PathCollection_16">
    <path d="M 399.344631 238.207156 
L 391.067812 255.373838 
L 383.100793 271.356541 
L 375.553587 286.007351 
L 368.181047 299.859027 
L 363.960549 307.584 
L 363.960549 307.584 
" clip-path="url(#pcbbe0800d0)" style="fill: none; stroke: #1f948c; stroke-width: 1.5"/>
   </g>
   <g id="PathCollection_17">
    <path d="M 399.375308 246.776017 
L 391.903564 262.299676 
L 384.502054 277.216865 
L 377.000752 291.867676 
L 369.676185 305.719351 
L 368.671546 307.584 
L 368.671546 307.584 
" clip-path="url(#pcbbe0800d0)" style="fill: none; stroke: #1e9d89; stroke-width: 1.5"/>
   </g>
   <g id="PathCollection_18">
    <path d="M 399.4655 254.953214 
L 391.827018 270.823784 
L 383.750568 287.072865 
L 376.363572 301.457297 
L 373.143889 307.584 
L 373.143889 307.584 
" clip-path="url(#pcbbe0800d0)" style="fill: none; stroke: #21a585; stroke-width: 1.5"/>
   </g>
   <g id="PathCollection_19">
    <path d="M 399.383883 263.250418 
L 391.892071 278.815135 
L 384.489917 293.732324 
L 377.403477 307.584 
L 377.403477 307.584 
" clip-path="url(#pcbbe0800d0)" style="fill: none; stroke: #26ad81; stroke-width: 1.5"/>
   </g>
   <g id="PathCollection_20">
    <path d="M 399.324435 271.277848 
L 391.126486 288.281158 
L 383.098136 304.387459 
L 381.47226 307.584 
L 381.47226 307.584 
" clip-path="url(#pcbbe0800d0)" style="fill: none; stroke: #31b57b; stroke-width: 1.5"/>
   </g>
   <g id="PathCollection_21">
    <path d="M 399.343567 278.934203 
L 391.126486 295.977518 
L 385.368345 307.584 
L 385.368345 307.584 
" clip-path="url(#pcbbe0800d0)" style="fill: none; stroke: #3fbc73; stroke-width: 1.5"/>
   </g>
   <g id="PathCollection_22">
    <path d="M 414.72 253.031217 
L 406.275835 271.622919 
L 398.633514 287.935682 
L 390.411532 304.93991 
L 389.107784 307.584 
L 389.107784 307.584 
" clip-path="url(#pcbbe0800d0)" style="fill: none; stroke: #50c46a; stroke-width: 1.5"/>
   </g>
   <g id="PathCollection_23">
    <path d="M 414.72 260.361419 
L 406.339381 278.815135 
L 398.475579 295.596973 
L 392.704381 307.584 
L 392.704381 307.584 
" clip-path="url(#pcbbe0800d0)" style="fill: none; stroke: #63cb5f; stroke-width: 1.5"/>
   </g>
   <g id="PathCollection_24">
    <path d="M 414.72 267.526763 
L 406.326855 286.007351 
L 398.462551 302.789189 
L 396.170078 307.584 
L 396.170078 307.584 
" clip-path="url(#pcbbe0800d0)" style="fill: none; stroke: #77d153; stroke-width: 1.5"/>
   </g>
   <g id="PathCollection_25">
    <path d="M 414.72 274.537919 
L 406.366113 292.933189 
L 399.515008 307.584 
L 399.515008 307.584 
" clip-path="url(#pcbbe0800d0)" style="fill: none; stroke: #8bd646; stroke-width: 1.5"/>
   </g>
   <g id="PathCollection_26">
    <path d="M 414.72 281.404376 
L 406.3386 299.859027 
L 402.748664 307.584 
L 402.748664 307.584 
" clip-path="url(#pcbbe0800d0)" style="fill: none; stroke: #a2da37; stroke-width: 1.5"/>
   </g>
   <g id="PathCollection_27">
    <path d="M 414.72 288.134807 
L 414.718401 288.138378 
L 414.599148 288.404757 
L 414.479987 288.671135 
L 414.362523 288.933919 
L 414.360911 288.937514 
L 414.241499 289.203892 
L 414.122178 289.47027 
L 414.005045 289.731962 
L 414.002941 289.736649 
L 413.883369 290.003027 
L 413.763889 290.269405 
L 413.647568 290.528936 
L 413.64449 290.535784 
L 413.524758 290.802162 
L 413.405118 291.068541 
L 413.29009 291.324841 
L 413.285554 291.334919 
L 413.165663 291.601297 
L 413.045864 291.867676 
L 412.932613 292.119677 
L 412.926133 292.134054 
L 412.806082 292.400432 
L 412.686123 292.666811 
L 412.575135 292.913444 
L 412.566224 292.933189 
L 412.446013 293.199568 
L 412.325895 293.465946 
L 412.217658 293.706143 
L 412.205826 293.732324 
L 412.085455 293.998703 
L 411.965177 294.265081 
L 411.86018 294.497772 
L 411.844936 294.531459 
L 411.724405 294.797838 
L 411.603967 295.064216 
L 411.502703 295.288333 
L 411.483552 295.330595 
L 411.362862 295.596973 
L 411.242264 295.863351 
L 411.145225 296.077825 
L 411.121673 296.12973 
L 411.000823 296.396108 
L 410.880065 296.662486 
L 410.787748 296.866248 
L 410.759297 296.928865 
L 410.638286 297.195243 
L 410.517369 297.461622 
L 410.43027 297.653603 
L 410.396421 297.728 
L 410.275251 297.994378 
L 410.154173 298.260757 
L 410.072793 298.43989 
L 410.033044 298.527135 
L 409.911713 298.793514 
L 409.790475 299.059892 
L 409.715315 299.225108 
L 409.669163 299.32627 
L 409.547672 299.592649 
L 409.426274 299.859027 
L 409.357838 300.009259 
L 409.304777 300.125405 
L 409.183126 300.391784 
L 409.061567 300.658162 
L 409.00036 300.792341 
L 408.939884 300.924541 
L 408.818072 301.190919 
L 408.696353 301.457297 
L 408.642883 301.574355 
L 408.574481 301.723676 
L 408.452508 301.990054 
L 408.330629 302.256432 
L 408.285405 302.355302 
L 408.208566 302.522811 
L 408.086433 302.789189 
L 407.964394 303.055568 
L 407.927928 303.135182 
L 407.842139 303.321946 
L 407.719845 303.588324 
L 407.597645 303.854703 
L 407.57045 303.913993 
L 407.475195 304.121081 
L 407.352741 304.387459 
L 407.230381 304.653838 
L 407.212973 304.691738 
L 407.107734 304.920216 
L 406.985119 305.186595 
L 406.862598 305.452973 
L 406.855495 305.468416 
L 406.739754 305.719351 
L 406.616978 305.98573 
L 406.498018 306.244021 
L 406.494283 306.252108 
L 406.371252 306.518486 
L 406.248315 306.784865 
L 406.140541 307.018547 
L 406.125418 307.051243 
L 406.002226 307.317622 
L 405.879128 307.584 
" clip-path="url(#pcbbe0800d0)" style="fill: none; stroke: #bade28; stroke-width: 1.5"/>
   </g>
   <g id="PathCollection_28">
    <path d="M 414.72 294.736921 
L 414.692728 294.797838 
L 414.573495 295.064216 
L 414.454352 295.330595 
L 414.362523 295.536023 
L 414.3352 295.596973 
L 414.215807 295.863351 
L 414.096504 296.12973 
L 414.005045 296.334057 
L 413.977191 296.396108 
L 413.857639 296.662486 
L 413.738177 296.928865 
L 413.647568 297.131022 
L 413.618701 297.195243 
L 413.498989 297.461622 
L 413.379368 297.728 
L 413.29009 297.926918 
L 413.259727 297.994378 
L 413.139855 298.260757 
L 413.020074 298.527135 
L 412.932613 298.721746 
L 412.900267 298.793514 
L 412.780236 299.059892 
L 412.660295 299.32627 
L 412.575135 299.515504 
L 412.54032 299.592649 
L 412.420129 299.859027 
L 412.300028 300.125405 
L 412.217658 300.308195 
L 412.179883 300.391784 
L 412.059532 300.658162 
L 411.939272 300.924541 
L 411.86018 301.099816 
L 411.818954 301.190919 
L 411.698443 301.457297 
L 411.578023 301.723676 
L 411.502703 301.890369 
L 411.457532 301.990054 
L 411.336861 302.256432 
L 411.216281 302.522811 
L 411.145225 302.679853 
L 411.095614 302.789189 
L 410.974784 303.055568 
L 410.854044 303.321946 
L 410.787748 303.46827 
L 410.733199 303.588324 
L 410.612208 303.854703 
L 410.491308 304.121081 
L 410.43027 304.255617 
L 410.370285 304.387459 
L 410.249134 304.653838 
L 410.128074 304.920216 
L 410.072793 305.041897 
L 410.006869 305.186595 
L 409.885557 305.452973 
L 409.764337 305.719351 
L 409.715315 305.827109 
L 409.64295 305.98573 
L 409.521478 306.252108 
L 409.400097 306.518486 
L 409.357838 306.611252 
L 409.278525 306.784865 
L 409.156893 307.051243 
L 409.035352 307.317622 
L 409.00036 307.394328 
L 408.913593 307.584 
" clip-path="url(#pcbbe0800d0)" style="fill: none; stroke: #d2e21b; stroke-width: 1.5"/>
   </g>
   <g id="PathCollection_29">
    <path d="M 414.72 301.217847 
L 414.612802 301.457297 
L 414.493627 301.723676 
L 414.374541 301.990054 
L 414.362523 302.01694 
L 414.255162 302.256432 
L 414.135828 302.522811 
L 414.016583 302.789189 
L 414.005045 302.814966 
L 413.897043 303.055568 
L 413.77755 303.321946 
L 413.658145 303.588324 
L 413.647568 303.611923 
L 413.538441 303.854703 
L 413.418789 304.121081 
L 413.299225 304.387459 
L 413.29009 304.407811 
L 413.179356 304.653838 
L 413.059544 304.920216 
L 412.93982 305.186595 
L 412.932613 305.202632 
L 412.819785 305.452973 
L 412.699813 305.719351 
L 412.57993 305.98573 
L 412.575135 305.996385 
L 412.459727 306.252108 
L 412.339595 306.518486 
L 412.219552 306.784865 
L 412.217658 306.789069 
L 412.099178 307.051243 
L 411.978887 307.317622 
L 411.86018 307.580683 
L 411.858679 307.584 
" clip-path="url(#pcbbe0800d0)" style="fill: none; stroke: #eae51a; stroke-width: 1.5"/>
   </g>
   <g id="PathCollection_30"/>
   <g id="line2d_19">
    <path d="M 146.879141 241.057514 
L 164.616041 241.057514 
L 200.309045 233.261638 
L 215.515283 220.504651 
L 229.925991 213.719003 
L 238.057907 208.738152 
L 249.558996 199.500119 
L 264.904981 183.480422 
L 273.041779 176.018455 
L 287.442211 160.374465 
L 294.016058 150.702852 
L 302.959554 140.028278 
L 310.684981 130.016527 
L 314.445414 124.2086 
L 322.110398 113.255701 
L 322.869666 111.764008 
L 324.545906 109.339134 
L 325.361627 108.129246 
L 325.440859 107.998486 
L 325.437604 108.00426 
L 325.437426 108.004538 
L 325.437423 108.004543 
" clip-path="url(#pcbbe0800d0)" style="fill: none; stroke: #1f77b4; stroke-width: 1.5; stroke-linecap: square"/>
    <defs>
     <path id="m3cee4939ec" d="M 0 3 
C 0.795609 3 1.55874 2.683901 2.12132 2.12132 
C 2.683901 1.55874 3 0.795609 3 0 
C 3 -0.795609 2.683901 -1.55874 2.12132 -2.12132 
C 1.55874 -2.683901 0.795609 -3 0 -3 
C -0.795609 -3 -1.55874 -2.683901 -2.12132 -2.12132 
C -2.683901 -1.55874 -3 -0.795609 -3 0 
C -3 0.795609 -2.683901 1.55874 -2.12132 2.12132 
C -1.55874 2.683901 -0.795609 3 0 3 
z
" style="stroke: #1f77b4"/>
    </defs>
    <g clip-path="url(#pcbbe0800d0)">
     <use xlink:href="#m3cee4939ec" x="146.879141" y="241.057514" style="fill: #1f77b4; stroke: #1f77b4"/>
     <use xlink:href="#m3cee4939ec" x="164.616041" y="241.057514" style="fill: #1f77b4; stroke: #1f77b4"/>
     <use xlink:href="#m3cee4939ec" x="200.309045" y="233.261638" style="fill: #1f77b4; stroke: #1f77b4"/>
     <use xlink:href="#m3cee4939ec" x="215.515283" y="220.504651" style="fill: #1f77b4; stroke: #1f77b4"/>
     <use xlink:href="#m3cee4939ec" x="229.925991" y="213.719003" style="fill: #1f77b4; stroke: #1f77b4"/>
     <use xlink:href="#m3cee4939ec" x="238.057907" y="208.738152" style="fill: #1f77b4; stroke: #1f77b4"/>
     <use xlink:href="#m3cee4939ec" x="249.558996" y="199.500119" style="fill: #1f77b4; stroke: #1f77b4"/>
     <use xlink:href="#m3cee4939ec" x="264.904981" y="183.480422" style="fill: #1f77b4; stroke: #1f77b4"/>
     <use xlink:href="#m3cee4939ec" x="273.041779" y="176.018455" style="fill: #1f77b4; stroke: #1f77b4"/>
     <use xlink:href="#m3cee4939ec" x="287.442211" y="160.374465" style="fill: #1f77b4; stroke: #1f77b4"/>
     <use xlink:href="#m3cee4939ec" x="294.016058" y="150.702852" style="fill: #1f77b4; stroke: #1f77b4"/>
     <use xlink:href="#m3cee4939ec" x="302.959554" y="140.028278" style="fill: #1f77b4; stroke: #1f77b4"/>
     <use xlink:href="#m3cee4939ec" x="310.684981" y="130.016527" style="fill: #1f77b4; stroke: #1f77b4"/>
     <use xlink:href="#m3cee4939ec" x="314.445414" y="124.2086" style="fill: #1f77b4; stroke: #1f77b4"/>
     <use xlink:href="#m3cee4939ec" x="322.110398" y="113.255701" style="fill: #1f77b4; stroke: #1f77b4"/>
     <use xlink:href="#m3cee4939ec" x="322.869666" y="111.764008" style="fill: #1f77b4; stroke: #1f77b4"/>
     <use xlink:href="#m3cee4939ec" x="324.545906" y="109.339134" style="fill: #1f77b4; stroke: #1f77b4"/>
     <use xlink:href="#m3cee4939ec" x="325.361627" y="108.129246" style="fill: #1f77b4; stroke: #1f77b4"/>
     <use xlink:href="#m3cee4939ec" x="325.440859" y="107.998486" style="fill: #1f77b4; stroke: #1f77b4"/>
     <use xlink:href="#m3cee4939ec" x="325.437604" y="108.00426" style="fill: #1f77b4; stroke: #1f77b4"/>
     <use xlink:href="#m3cee4939ec" x="325.437426" y="108.004538" style="fill: #1f77b4; stroke: #1f77b4"/>
     <use xlink:href="#m3cee4939ec" x="325.437423" y="108.004543" style="fill: #1f77b4; stroke: #1f77b4"/>
    </g>
   </g>
   <g id="patch_3">
    <path d="M 57.6 307.584 
L 57.6 41.472 
" style="fill: none; stroke: #000000; stroke-width: 0.8; stroke-linejoin: miter; stroke-linecap: square"/>
   </g>
   <g id="patch_4">
    <path d="M 414.72 307.584 
L 414.72 41.472 
" style="fill: none; stroke: #000000; stroke-width: 0.8; stroke-linejoin: miter; stroke-linecap: square"/>
   </g>
   <g id="patch_5">
    <path d="M 57.6 307.584 
L 414.72 307.584 
" style="fill: none; stroke: #000000; stroke-width: 0.8; stroke-linejoin: miter; stroke-linecap: square"/>
   </g>
   <g id="patch_6">
    <path d="M 57.6 41.472 
L 414.72 41.472 
" style="fill: none; stroke: #000000; stroke-width: 0.8; stroke-linejoin: miter; stroke-linecap: square"/>
   </g>
   <g id="text_21">
    <!-- func_rosenbrock -->
    <g transform="translate(186.935625 35.472) scale(0.12 -0.12)">
     <defs>
      <path id="DejaVuSans-66" d="M 2375 4863 
L 2375 4384 
L 1825 4384 
Q 1516 4384 1395 4259 
Q 1275 4134 1275 3809 
L 1275 3500 
L 2222 3500 
L 2222 3053 
L 1275 3053 
L 1275 0 
L 697 0 
L 697 3053 
L 147 3053 
L 147 3500 
L 697 3500 
L 697 3744 
Q 697 4328 969 4595 
Q 1241 4863 1831 4863 
L 2375 4863 
z
" transform="scale(0.015625)"/>
      <path id="DejaVuSans-75" d="M 544 1381 
L 544 3500 
L 1119 3500 
L 1119 1403 
Q 1119 906 1312 657 
Q 1506 409 1894 409 
Q 2359 409 2629 706 
Q 2900 1003 2900 1516 
L 2900 3500 
L 3475 3500 
L 3475 0 
L 2900 0 
L 2900 538 
Q 2691 219 2414 64 
Q 2138 -91 1772 -91 
Q 1169 -91 856 284 
Q 544 659 544 1381 
z
M 1991 3584 
L 1991 3584 
z
" transform="scale(0.015625)"/>
      <path id="DejaVuSans-6e" d="M 3513 2113 
L 3513 0 
L 2938 0 
L 2938 2094 
Q 2938 2591 2744 2837 
Q 2550 3084 2163 3084 
Q 1697 3084 1428 2787 
Q 1159 2491 1159 1978 
L 1159 0 
L 581 0 
L 581 3500 
L 1159 3500 
L 1159 2956 
Q 1366 3272 1645 3428 
Q 1925 3584 2291 3584 
Q 2894 3584 3203 3211 
Q 3513 2838 3513 2113 
z
" transform="scale(0.015625)"/>
      <path id="DejaVuSans-63" d="M 3122 3366 
L 3122 2828 
Q 2878 2963 2633 3030 
Q 2388 3097 2138 3097 
Q 1578 3097 1268 2742 
Q 959 2388 959 1747 
Q 959 1106 1268 751 
Q 1578 397 2138 397 
Q 2388 397 2633 464 
Q 2878 531 3122 666 
L 3122 134 
Q 2881 22 2623 -34 
Q 2366 -91 2075 -91 
Q 1284 -91 818 406 
Q 353 903 353 1747 
Q 353 2603 823 3093 
Q 1294 3584 2113 3584 
Q 2378 3584 2631 3529 
Q 2884 3475 3122 3366 
z
" transform="scale(0.015625)"/>
      <path id="DejaVuSans-5f" d="M 3263 -1063 
L 3263 -1509 
L -63 -1509 
L -63 -1063 
L 3263 -1063 
z
" transform="scale(0.015625)"/>
      <path id="DejaVuSans-72" d="M 2631 2963 
Q 2534 3019 2420 3045 
Q 2306 3072 2169 3072 
Q 1681 3072 1420 2755 
Q 1159 2438 1159 1844 
L 1159 0 
L 581 0 
L 581 3500 
L 1159 3500 
L 1159 2956 
Q 1341 3275 1631 3429 
Q 1922 3584 2338 3584 
Q 2397 3584 2469 3576 
Q 2541 3569 2628 3553 
L 2631 2963 
z
" transform="scale(0.015625)"/>
      <path id="DejaVuSans-6f" d="M 1959 3097 
Q 1497 3097 1228 2736 
Q 959 2375 959 1747 
Q 959 1119 1226 758 
Q 1494 397 1959 397 
Q 2419 397 2687 759 
Q 2956 1122 2956 1747 
Q 2956 2369 2687 2733 
Q 2419 3097 1959 3097 
z
M 1959 3584 
Q 2709 3584 3137 3096 
Q 3566 2609 3566 1747 
Q 3566 888 3137 398 
Q 2709 -91 1959 -91 
Q 1206 -91 779 398 
Q 353 888 353 1747 
Q 353 2609 779 3096 
Q 1206 3584 1959 3584 
z
" transform="scale(0.015625)"/>
      <path id="DejaVuSans-73" d="M 2834 3397 
L 2834 2853 
Q 2591 2978 2328 3040 
Q 2066 3103 1784 3103 
Q 1356 3103 1142 2972 
Q 928 2841 928 2578 
Q 928 2378 1081 2264 
Q 1234 2150 1697 2047 
L 1894 2003 
Q 2506 1872 2764 1633 
Q 3022 1394 3022 966 
Q 3022 478 2636 193 
Q 2250 -91 1575 -91 
Q 1294 -91 989 -36 
Q 684 19 347 128 
L 347 722 
Q 666 556 975 473 
Q 1284 391 1588 391 
Q 1994 391 2212 530 
Q 2431 669 2431 922 
Q 2431 1156 2273 1281 
Q 2116 1406 1581 1522 
L 1381 1569 
Q 847 1681 609 1914 
Q 372 2147 372 2553 
Q 372 3047 722 3315 
Q 1072 3584 1716 3584 
Q 2034 3584 2315 3537 
Q 2597 3491 2834 3397 
z
" transform="scale(0.015625)"/>
      <path id="DejaVuSans-65" d="M 3597 1894 
L 3597 1613 
L 953 1613 
Q 991 1019 1311 708 
Q 1631 397 2203 397 
Q 2534 397 2845 478 
Q 3156 559 3463 722 
L 3463 178 
Q 3153 47 2828 -22 
Q 2503 -91 2169 -91 
Q 1331 -91 842 396 
Q 353 884 353 1716 
Q 353 2575 817 3079 
Q 1281 3584 2069 3584 
Q 2775 3584 3186 3129 
Q 3597 2675 3597 1894 
z
M 3022 2063 
Q 3016 2534 2758 2815 
Q 2500 3097 2075 3097 
Q 1594 3097 1305 2825 
Q 1016 2553 972 2059 
L 3022 2063 
z
" transform="scale(0.015625)"/>
      <path id="DejaVuSans-62" d="M 3116 1747 
Q 3116 2381 2855 2742 
Q 2594 3103 2138 3103 
Q 1681 3103 1420 2742 
Q 1159 2381 1159 1747 
Q 1159 1113 1420 752 
Q 1681 391 2138 391 
Q 2594 391 2855 752 
Q 3116 1113 3116 1747 
z
M 1159 2969 
Q 1341 3281 1617 3432 
Q 1894 3584 2278 3584 
Q 2916 3584 3314 3078 
Q 3713 2572 3713 1747 
Q 3713 922 3314 415 
Q 2916 -91 2278 -91 
Q 1894 -91 1617 61 
Q 1341 213 1159 525 
L 1159 0 
L 581 0 
L 581 4863 
L 1159 4863 
L 1159 2969 
z
" transform="scale(0.015625)"/>
      <path id="DejaVuSans-6b" d="M 581 4863 
L 1159 4863 
L 1159 1991 
L 2875 3500 
L 3609 3500 
L 1753 1863 
L 3688 0 
L 2938 0 
L 1159 1709 
L 1159 0 
L 581 0 
L 581 4863 
z
" transform="scale(0.015625)"/>
     </defs>
     <use xlink:href="#DejaVuSans-66"/>
     <use xlink:href="#DejaVuSans-75" x="35.205078"/>
     <use xlink:href="#DejaVuSans-6e" x="98.583984"/>
     <use xlink:href="#DejaVuSans-63" x="161.962891"/>
     <use xlink:href="#DejaVuSans-5f" x="216.943359"/>
     <use xlink:href="#DejaVuSans-72" x="266.943359"/>
     <use xlink:href="#DejaVuSans-6f" x="305.806641"/>
     <use xlink:href="#DejaVuSans-73" x="366.988281"/>
     <use xlink:href="#DejaVuSans-65" x="419.087891"/>
     <use xlink:href="#DejaVuSans-6e" x="480.611328"/>
     <use xlink:href="#DejaVuSans-62" x="543.990234"/>
     <use xlink:href="#DejaVuSans-72" x="607.466797"/>
     <use xlink:href="#DejaVuSans-6f" x="646.330078"/>
     <use xlink:href="#DejaVuSans-63" x="707.511719"/>
     <use xlink:href="#DejaVuSans-6b" x="762.492188"/>
    </g>
   </g>
   <g id="text_22">
    <g clip-path="url(#pcbbe0800d0)">
     <!-- 2608733 -->
     <g style="fill: #470d60" transform="translate(43.889893 267.487297) rotate(-326.48288) scale(0.1 -0.1)">
      <defs>
       <path id="DejaVuSans-36" d="M 2113 2584 
Q 1688 2584 1439 2293 
Q 1191 2003 1191 1497 
Q 1191 994 1439 701 
Q 1688 409 2113 409 
Q 2538 409 2786 701 
Q 3034 994 3034 1497 
Q 3034 2003 2786 2293 
Q 2538 2584 2113 2584 
z
M 3366 4563 
L 3366 3988 
Q 3128 4100 2886 4159 
Q 2644 4219 2406 4219 
Q 1781 4219 1451 3797 
Q 1122 3375 1075 2522 
Q 1259 2794 1537 2939 
Q 1816 3084 2150 3084 
Q 2853 3084 3261 2657 
Q 3669 2231 3669 1497 
Q 3669 778 3244 343 
Q 2819 -91 2113 -91 
Q 1303 -91 875 529 
Q 447 1150 447 2328 
Q 447 3434 972 4092 
Q 1497 4750 2381 4750 
Q 2619 4750 2861 4703 
Q 3103 4656 3366 4563 
z
" transform="scale(0.015625)"/>
       <path id="DejaVuSans-38" d="M 2034 2216 
Q 1584 2216 1326 1975 
Q 1069 1734 1069 1313 
Q 1069 891 1326 650 
Q 1584 409 2034 409 
Q 2484 409 2743 651 
Q 3003 894 3003 1313 
Q 3003 1734 2745 1975 
Q 2488 2216 2034 2216 
z
M 1403 2484 
Q 997 2584 770 2862 
Q 544 3141 544 3541 
Q 544 4100 942 4425 
Q 1341 4750 2034 4750 
Q 2731 4750 3128 4425 
Q 3525 4100 3525 3541 
Q 3525 3141 3298 2862 
Q 3072 2584 2669 2484 
Q 3125 2378 3379 2068 
Q 3634 1759 3634 1313 
Q 3634 634 3220 271 
Q 2806 -91 2034 -91 
Q 1263 -91 848 271 
Q 434 634 434 1313 
Q 434 1759 690 2068 
Q 947 2378 1403 2484 
z
M 1172 3481 
Q 1172 3119 1398 2916 
Q 1625 2713 2034 2713 
Q 2441 2713 2670 2916 
Q 2900 3119 2900 3481 
Q 2900 3844 2670 4047 
Q 2441 4250 2034 4250 
Q 1625 4250 1398 4047 
Q 1172 3844 1172 3481 
z
" transform="scale(0.015625)"/>
       <path id="DejaVuSans-33" d="M 2597 2516 
Q 3050 2419 3304 2112 
Q 3559 1806 3559 1356 
Q 3559 666 3084 287 
Q 2609 -91 1734 -91 
Q 1441 -91 1130 -33 
Q 819 25 488 141 
L 488 750 
Q 750 597 1062 519 
Q 1375 441 1716 441 
Q 2309 441 2620 675 
Q 2931 909 2931 1356 
Q 2931 1769 2642 2001 
Q 2353 2234 1838 2234 
L 1294 2234 
L 1294 2753 
L 1863 2753 
Q 2328 2753 2575 2939 
Q 2822 3125 2822 3475 
Q 2822 3834 2567 4026 
Q 2313 4219 1838 4219 
Q 1578 4219 1281 4162 
Q 984 4106 628 3988 
L 628 4550 
Q 988 4650 1302 4700 
Q 1616 4750 1894 4750 
Q 2613 4750 3031 4423 
Q 3450 4097 3450 3541 
Q 3450 3153 3228 2886 
Q 3006 2619 2597 2516 
z
" transform="scale(0.015625)"/>
      </defs>
      <use xlink:href="#DejaVuSans-32"/>
      <use xlink:href="#DejaVuSans-36" x="63.623047"/>
      <use xlink:href="#DejaVuSans-30" x="127.246094"/>
      <use xlink:href="#DejaVuSans-38" x="190.869141"/>
      <use xlink:href="#DejaVuSans-37" x="254.492188"/>
      <use xlink:href="#DejaVuSans-33" x="318.115234"/>
      <use xlink:href="#DejaVuSans-33" x="381.738281"/>
     </g>
    </g>
   </g>
   <g id="text_23">
    <g clip-path="url(#pcbbe0800d0)">
     <!-- 2608733 -->
     <g style="fill: #470d60" transform="translate(307.199107 70.791011) rotate(-54.487549) scale(0.1 -0.1)">
      <use xlink:href="#DejaVuSans-32"/>
      <use xlink:href="#DejaVuSans-36" x="63.623047"/>
      <use xlink:href="#DejaVuSans-30" x="127.246094"/>
      <use xlink:href="#DejaVuSans-38" x="190.869141"/>
      <use xlink:href="#DejaVuSans-37" x="254.492188"/>
      <use xlink:href="#DejaVuSans-33" x="318.115234"/>
      <use xlink:href="#DejaVuSans-33" x="381.738281"/>
     </g>
    </g>
   </g>
   <g id="text_24">
    <g clip-path="url(#pcbbe0800d0)">
     <!-- 2608733 -->
     <g style="fill: #470d60" transform="translate(389.972103 68.578665) rotate(-64.171417) scale(0.1 -0.1)">
      <use xlink:href="#DejaVuSans-32"/>
      <use xlink:href="#DejaVuSans-36" x="63.623047"/>
      <use xlink:href="#DejaVuSans-30" x="127.246094"/>
      <use xlink:href="#DejaVuSans-38" x="190.869141"/>
      <use xlink:href="#DejaVuSans-37" x="254.492188"/>
      <use xlink:href="#DejaVuSans-33" x="318.115234"/>
      <use xlink:href="#DejaVuSans-33" x="381.738281"/>
     </g>
    </g>
   </g>
   <g id="text_25">
    <g clip-path="url(#pcbbe0800d0)">
     <!-- 5217463 -->
     <g style="fill: #481a6c" transform="translate(254.854705 101.089345) rotate(-45.410502) scale(0.1 -0.1)">
      <defs>
       <path id="DejaVuSans-34" d="M 2419 4116 
L 825 1625 
L 2419 1625 
L 2419 4116 
z
M 2253 4666 
L 3047 4666 
L 3047 1625 
L 3713 1625 
L 3713 1100 
L 3047 1100 
L 3047 0 
L 2419 0 
L 2419 1100 
L 313 1100 
L 313 1709 
L 2253 4666 
z
" transform="scale(0.015625)"/>
      </defs>
      <use xlink:href="#DejaVuSans-35"/>
      <use xlink:href="#DejaVuSans-32" x="63.623047"/>
      <use xlink:href="#DejaVuSans-31" x="127.246094"/>
      <use xlink:href="#DejaVuSans-37" x="190.869141"/>
      <use xlink:href="#DejaVuSans-34" x="254.492188"/>
      <use xlink:href="#DejaVuSans-36" x="318.115234"/>
      <use xlink:href="#DejaVuSans-33" x="381.738281"/>
     </g>
    </g>
   </g>
   <g id="text_26">
    <g clip-path="url(#pcbbe0800d0)">
     <!-- 5217463 -->
     <g style="fill: #481a6c" transform="translate(373.882965 128.358255) rotate(-62.973538) scale(0.1 -0.1)">
      <use xlink:href="#DejaVuSans-35"/>
      <use xlink:href="#DejaVuSans-32" x="63.623047"/>
      <use xlink:href="#DejaVuSans-31" x="127.246094"/>
      <use xlink:href="#DejaVuSans-37" x="190.869141"/>
      <use xlink:href="#DejaVuSans-34" x="254.492188"/>
      <use xlink:href="#DejaVuSans-36" x="318.115234"/>
      <use xlink:href="#DejaVuSans-33" x="381.738281"/>
     </g>
    </g>
   </g>
   <g id="text_27">
    <g clip-path="url(#pcbbe0800d0)">
     <!-- 7826193 -->
     <g style="fill: #482576" transform="translate(42.659251 86.044654) rotate(-327.733011) scale(0.1 -0.1)">
      <defs>
       <path id="DejaVuSans-39" d="M 703 97 
L 703 672 
Q 941 559 1184 500 
Q 1428 441 1663 441 
Q 2288 441 2617 861 
Q 2947 1281 2994 2138 
Q 2813 1869 2534 1725 
Q 2256 1581 1919 1581 
Q 1219 1581 811 2004 
Q 403 2428 403 3163 
Q 403 3881 828 4315 
Q 1253 4750 1959 4750 
Q 2769 4750 3195 4129 
Q 3622 3509 3622 2328 
Q 3622 1225 3098 567 
Q 2575 -91 1691 -91 
Q 1453 -91 1209 -44 
Q 966 3 703 97 
z
M 1959 2075 
Q 2384 2075 2632 2365 
Q 2881 2656 2881 3163 
Q 2881 3666 2632 3958 
Q 2384 4250 1959 4250 
Q 1534 4250 1286 3958 
Q 1038 3666 1038 3163 
Q 1038 2656 1286 2365 
Q 1534 2075 1959 2075 
z
" transform="scale(0.015625)"/>
      </defs>
      <use xlink:href="#DejaVuSans-37"/>
      <use xlink:href="#DejaVuSans-38" x="63.623047"/>
      <use xlink:href="#DejaVuSans-32" x="127.246094"/>
      <use xlink:href="#DejaVuSans-36" x="190.869141"/>
      <use xlink:href="#DejaVuSans-31" x="254.492188"/>
      <use xlink:href="#DejaVuSans-39" x="318.115234"/>
      <use xlink:href="#DejaVuSans-33" x="381.738281"/>
     </g>
    </g>
   </g>
   <g id="text_28">
    <g clip-path="url(#pcbbe0800d0)">
     <!-- 7826193 -->
     <g style="fill: #482576" transform="translate(356.729992 180.973342) rotate(-61.225713) scale(0.1 -0.1)">
      <use xlink:href="#DejaVuSans-37"/>
      <use xlink:href="#DejaVuSans-38" x="63.623047"/>
      <use xlink:href="#DejaVuSans-32" x="127.246094"/>
      <use xlink:href="#DejaVuSans-36" x="190.869141"/>
      <use xlink:href="#DejaVuSans-31" x="254.492188"/>
      <use xlink:href="#DejaVuSans-39" x="318.115234"/>
      <use xlink:href="#DejaVuSans-33" x="381.738281"/>
     </g>
    </g>
   </g>
   <g id="text_29">
    <g clip-path="url(#pcbbe0800d0)">
     <!-- 10434923 -->
     <g style="fill: #46307e" transform="translate(330.507176 241.992924) rotate(-58.351018) scale(0.1 -0.1)">
      <use xlink:href="#DejaVuSans-31"/>
      <use xlink:href="#DejaVuSans-30" x="63.623047"/>
      <use xlink:href="#DejaVuSans-34" x="127.246094"/>
      <use xlink:href="#DejaVuSans-33" x="190.869141"/>
      <use xlink:href="#DejaVuSans-34" x="254.492188"/>
      <use xlink:href="#DejaVuSans-39" x="318.115234"/>
      <use xlink:href="#DejaVuSans-32" x="381.738281"/>
      <use xlink:href="#DejaVuSans-33" x="445.361328"/>
     </g>
    </g>
   </g>
   <g id="text_30">
    <g clip-path="url(#pcbbe0800d0)">
     <!-- 10434923 -->
     <g style="fill: #46307e" transform="translate(184.714773 104.437547) rotate(-26.288005) scale(0.1 -0.1)">
      <use xlink:href="#DejaVuSans-31"/>
      <use xlink:href="#DejaVuSans-30" x="63.623047"/>
      <use xlink:href="#DejaVuSans-34" x="127.246094"/>
      <use xlink:href="#DejaVuSans-33" x="190.869141"/>
      <use xlink:href="#DejaVuSans-34" x="254.492188"/>
      <use xlink:href="#DejaVuSans-39" x="318.115234"/>
      <use xlink:href="#DejaVuSans-32" x="381.738281"/>
      <use xlink:href="#DejaVuSans-33" x="445.361328"/>
     </g>
    </g>
   </g>
   <g id="text_31">
    <g clip-path="url(#pcbbe0800d0)">
     <!-- 13043653 -->
     <g style="fill: #443b84" transform="translate(295.196826 306.473104) rotate(-53.305908) scale(0.1 -0.1)">
      <use xlink:href="#DejaVuSans-31"/>
      <use xlink:href="#DejaVuSans-33" x="63.623047"/>
      <use xlink:href="#DejaVuSans-30" x="127.246094"/>
      <use xlink:href="#DejaVuSans-34" x="190.869141"/>
      <use xlink:href="#DejaVuSans-33" x="254.492188"/>
      <use xlink:href="#DejaVuSans-36" x="318.115234"/>
      <use xlink:href="#DejaVuSans-35" x="381.738281"/>
      <use xlink:href="#DejaVuSans-33" x="445.361328"/>
     </g>
    </g>
   </g>
   <g id="text_32">
    <g clip-path="url(#pcbbe0800d0)">
     <!-- 13043653 -->
     <g style="fill: #443b84" transform="translate(102.611841 87.415794) rotate(-351.710284) scale(0.1 -0.1)">
      <use xlink:href="#DejaVuSans-31"/>
      <use xlink:href="#DejaVuSans-33" x="63.623047"/>
      <use xlink:href="#DejaVuSans-30" x="127.246094"/>
      <use xlink:href="#DejaVuSans-34" x="190.869141"/>
      <use xlink:href="#DejaVuSans-33" x="254.492188"/>
      <use xlink:href="#DejaVuSans-36" x="318.115234"/>
      <use xlink:href="#DejaVuSans-35" x="381.738281"/>
      <use xlink:href="#DejaVuSans-33" x="445.361328"/>
     </g>
    </g>
   </g>
   <g id="text_33">
    <g clip-path="url(#pcbbe0800d0)">
     <!-- 15652384 -->
     <g style="fill: #404588" transform="translate(403.482236 139.276428) rotate(-65.366455) scale(0.1 -0.1)">
      <use xlink:href="#DejaVuSans-31"/>
      <use xlink:href="#DejaVuSans-35" x="63.623047"/>
      <use xlink:href="#DejaVuSans-36" x="127.246094"/>
      <use xlink:href="#DejaVuSans-35" x="190.869141"/>
      <use xlink:href="#DejaVuSans-32" x="254.492188"/>
      <use xlink:href="#DejaVuSans-33" x="318.115234"/>
      <use xlink:href="#DejaVuSans-38" x="381.738281"/>
      <use xlink:href="#DejaVuSans-34" x="445.361328"/>
     </g>
    </g>
   </g>
   <g id="text_34">
    <g clip-path="url(#pcbbe0800d0)">
     <!-- 15652384 -->
     <g style="fill: #404588" transform="translate(40.896471 36.015838) rotate(-328.239072) scale(0.1 -0.1)">
      <use xlink:href="#DejaVuSans-31"/>
      <use xlink:href="#DejaVuSans-35" x="63.623047"/>
      <use xlink:href="#DejaVuSans-36" x="127.246094"/>
      <use xlink:href="#DejaVuSans-35" x="190.869141"/>
      <use xlink:href="#DejaVuSans-32" x="254.492188"/>
      <use xlink:href="#DejaVuSans-33" x="318.115234"/>
      <use xlink:href="#DejaVuSans-38" x="381.738281"/>
      <use xlink:href="#DejaVuSans-34" x="445.361328"/>
     </g>
    </g>
   </g>
   <g id="text_35">
    <g clip-path="url(#pcbbe0800d0)">
     <!-- 18261114 -->
     <g style="fill: #3c4f8a" transform="translate(403.493122 152.594794) rotate(-65.362539) scale(0.1 -0.1)">
      <use xlink:href="#DejaVuSans-31"/>
      <use xlink:href="#DejaVuSans-38" x="63.623047"/>
      <use xlink:href="#DejaVuSans-32" x="127.246094"/>
      <use xlink:href="#DejaVuSans-36" x="190.869141"/>
      <use xlink:href="#DejaVuSans-31" x="254.492188"/>
      <use xlink:href="#DejaVuSans-31" x="318.115234"/>
      <use xlink:href="#DejaVuSans-31" x="381.738281"/>
      <use xlink:href="#DejaVuSans-34" x="445.361328"/>
     </g>
    </g>
   </g>
   <g id="text_36">
    <g clip-path="url(#pcbbe0800d0)">
     <!-- 18261114 -->
     <g style="fill: #3c4f8a" transform="translate(59.308277 37.476273) rotate(-335.621647) scale(0.1 -0.1)">
      <use xlink:href="#DejaVuSans-31"/>
      <use xlink:href="#DejaVuSans-38" x="63.623047"/>
      <use xlink:href="#DejaVuSans-32" x="127.246094"/>
      <use xlink:href="#DejaVuSans-36" x="190.869141"/>
      <use xlink:href="#DejaVuSans-31" x="254.492188"/>
      <use xlink:href="#DejaVuSans-31" x="318.115234"/>
      <use xlink:href="#DejaVuSans-31" x="381.738281"/>
      <use xlink:href="#DejaVuSans-34" x="445.361328"/>
     </g>
    </g>
   </g>
   <g id="text_37">
    <g clip-path="url(#pcbbe0800d0)">
     <!-- 20869844 -->
     <g style="fill: #38598c" transform="translate(403.448021 165.114305) rotate(-65.360616) scale(0.1 -0.1)">
      <use xlink:href="#DejaVuSans-32"/>
      <use xlink:href="#DejaVuSans-30" x="63.623047"/>
      <use xlink:href="#DejaVuSans-38" x="127.246094"/>
      <use xlink:href="#DejaVuSans-36" x="190.869141"/>
      <use xlink:href="#DejaVuSans-39" x="254.492188"/>
      <use xlink:href="#DejaVuSans-38" x="318.115234"/>
      <use xlink:href="#DejaVuSans-34" x="381.738281"/>
      <use xlink:href="#DejaVuSans-34" x="445.361328"/>
     </g>
    </g>
   </g>
   <g id="text_38">
    <g clip-path="url(#pcbbe0800d0)">
     <!-- 20869844 -->
     <g style="fill: #38598c" transform="translate(86.133534 41.505535) rotate(-347.532528) scale(0.1 -0.1)">
      <use xlink:href="#DejaVuSans-32"/>
      <use xlink:href="#DejaVuSans-30" x="63.623047"/>
      <use xlink:href="#DejaVuSans-38" x="127.246094"/>
      <use xlink:href="#DejaVuSans-36" x="190.869141"/>
      <use xlink:href="#DejaVuSans-39" x="254.492188"/>
      <use xlink:href="#DejaVuSans-38" x="318.115234"/>
      <use xlink:href="#DejaVuSans-34" x="381.738281"/>
      <use xlink:href="#DejaVuSans-34" x="445.361328"/>
     </g>
    </g>
   </g>
   <g id="text_39">
    <g clip-path="url(#pcbbe0800d0)">
     <!-- 23478574 -->
     <g style="fill: #33628d" transform="translate(403.423255 176.834942) rotate(-65.360529) scale(0.1 -0.1)">
      <use xlink:href="#DejaVuSans-32"/>
      <use xlink:href="#DejaVuSans-33" x="63.623047"/>
      <use xlink:href="#DejaVuSans-34" x="127.246094"/>
      <use xlink:href="#DejaVuSans-37" x="190.869141"/>
      <use xlink:href="#DejaVuSans-38" x="254.492188"/>
      <use xlink:href="#DejaVuSans-35" x="318.115234"/>
      <use xlink:href="#DejaVuSans-37" x="381.738281"/>
      <use xlink:href="#DejaVuSans-34" x="445.361328"/>
     </g>
    </g>
   </g>
   <g id="text_40">
    <g clip-path="url(#pcbbe0800d0)">
     <!-- 26087304 -->
     <g style="fill: #2f6b8e" transform="translate(403.473778 187.756489) rotate(-65.360765) scale(0.1 -0.1)">
      <use xlink:href="#DejaVuSans-32"/>
      <use xlink:href="#DejaVuSans-36" x="63.623047"/>
      <use xlink:href="#DejaVuSans-30" x="127.246094"/>
      <use xlink:href="#DejaVuSans-38" x="190.869141"/>
      <use xlink:href="#DejaVuSans-37" x="254.492188"/>
      <use xlink:href="#DejaVuSans-33" x="318.115234"/>
      <use xlink:href="#DejaVuSans-30" x="381.738281"/>
      <use xlink:href="#DejaVuSans-34" x="445.361328"/>
     </g>
    </g>
   </g>
   <g id="text_41">
    <g clip-path="url(#pcbbe0800d0)">
     <!-- 28696034 -->
     <g style="fill: #2c738e" transform="translate(403.398445 198.410824) rotate(-65.355107) scale(0.1 -0.1)">
      <use xlink:href="#DejaVuSans-32"/>
      <use xlink:href="#DejaVuSans-38" x="63.623047"/>
      <use xlink:href="#DejaVuSans-36" x="127.246094"/>
      <use xlink:href="#DejaVuSans-39" x="190.869141"/>
      <use xlink:href="#DejaVuSans-36" x="254.492188"/>
      <use xlink:href="#DejaVuSans-30" x="318.115234"/>
      <use xlink:href="#DejaVuSans-33" x="381.738281"/>
      <use xlink:href="#DejaVuSans-34" x="445.361328"/>
     </g>
    </g>
   </g>
   <g id="text_42">
    <g clip-path="url(#pcbbe0800d0)">
     <!-- 31304765 -->
     <g style="fill: #297b8e" transform="translate(403.476908 208.267384) rotate(-65.359067) scale(0.1 -0.1)">
      <use xlink:href="#DejaVuSans-33"/>
      <use xlink:href="#DejaVuSans-31" x="63.623047"/>
      <use xlink:href="#DejaVuSans-33" x="127.246094"/>
      <use xlink:href="#DejaVuSans-30" x="190.869141"/>
      <use xlink:href="#DejaVuSans-34" x="254.492188"/>
      <use xlink:href="#DejaVuSans-37" x="318.115234"/>
      <use xlink:href="#DejaVuSans-36" x="381.738281"/>
      <use xlink:href="#DejaVuSans-35" x="445.361328"/>
     </g>
    </g>
   </g>
   <g id="text_43">
    <g clip-path="url(#pcbbe0800d0)">
     <!-- 33913495 -->
     <g style="fill: #25838e" transform="translate(361.915332 299.320454) rotate(-61.907816) scale(0.1 -0.1)">
      <use xlink:href="#DejaVuSans-33"/>
      <use xlink:href="#DejaVuSans-33" x="63.623047"/>
      <use xlink:href="#DejaVuSans-39" x="127.246094"/>
      <use xlink:href="#DejaVuSans-31" x="190.869141"/>
      <use xlink:href="#DejaVuSans-33" x="254.492188"/>
      <use xlink:href="#DejaVuSans-34" x="318.115234"/>
      <use xlink:href="#DejaVuSans-39" x="381.738281"/>
      <use xlink:href="#DejaVuSans-35" x="445.361328"/>
     </g>
    </g>
   </g>
   <g id="text_44">
    <g clip-path="url(#pcbbe0800d0)">
     <!-- 36522225 -->
     <g style="fill: #228c8d" transform="translate(403.456266 227.180034) rotate(-65.357549) scale(0.1 -0.1)">
      <use xlink:href="#DejaVuSans-33"/>
      <use xlink:href="#DejaVuSans-36" x="63.623047"/>
      <use xlink:href="#DejaVuSans-35" x="127.246094"/>
      <use xlink:href="#DejaVuSans-32" x="190.869141"/>
      <use xlink:href="#DejaVuSans-32" x="254.492188"/>
      <use xlink:href="#DejaVuSans-32" x="318.115234"/>
      <use xlink:href="#DejaVuSans-32" x="381.738281"/>
      <use xlink:href="#DejaVuSans-35" x="445.361328"/>
     </g>
    </g>
   </g>
   <g id="text_45">
    <g clip-path="url(#pcbbe0800d0)">
     <!-- 39130955 -->
     <g style="fill: #1f948c" transform="translate(403.397329 236.232946) rotate(-65.35293) scale(0.1 -0.1)">
      <use xlink:href="#DejaVuSans-33"/>
      <use xlink:href="#DejaVuSans-39" x="63.623047"/>
      <use xlink:href="#DejaVuSans-31" x="127.246094"/>
      <use xlink:href="#DejaVuSans-33" x="190.869141"/>
      <use xlink:href="#DejaVuSans-30" x="254.492188"/>
      <use xlink:href="#DejaVuSans-39" x="318.115234"/>
      <use xlink:href="#DejaVuSans-35" x="381.738281"/>
      <use xlink:href="#DejaVuSans-35" x="445.361328"/>
     </g>
    </g>
   </g>
   <g id="text_46">
    <g clip-path="url(#pcbbe0800d0)">
     <!-- 41739685 -->
     <g style="fill: #1e9d89" transform="translate(403.445874 244.760454) rotate(-65.35364) scale(0.1 -0.1)">
      <use xlink:href="#DejaVuSans-34"/>
      <use xlink:href="#DejaVuSans-31" x="63.623047"/>
      <use xlink:href="#DejaVuSans-37" x="127.246094"/>
      <use xlink:href="#DejaVuSans-33" x="190.869141"/>
      <use xlink:href="#DejaVuSans-39" x="254.492188"/>
      <use xlink:href="#DejaVuSans-36" x="318.115234"/>
      <use xlink:href="#DejaVuSans-38" x="381.738281"/>
      <use xlink:href="#DejaVuSans-35" x="445.361328"/>
     </g>
    </g>
   </g>
   <g id="text_47">
    <g clip-path="url(#pcbbe0800d0)">
     <!-- 44348415 -->
     <g style="fill: #21a585" transform="translate(403.497166 253.018639) rotate(-65.356862) scale(0.1 -0.1)">
      <use xlink:href="#DejaVuSans-34"/>
      <use xlink:href="#DejaVuSans-34" x="63.623047"/>
      <use xlink:href="#DejaVuSans-33" x="127.246094"/>
      <use xlink:href="#DejaVuSans-34" x="190.869141"/>
      <use xlink:href="#DejaVuSans-38" x="254.492188"/>
      <use xlink:href="#DejaVuSans-34" x="318.115234"/>
      <use xlink:href="#DejaVuSans-31" x="381.738281"/>
      <use xlink:href="#DejaVuSans-35" x="445.361328"/>
     </g>
    </g>
   </g>
   <g id="text_48">
    <g clip-path="url(#pcbbe0800d0)">
     <!-- 46957145 -->
     <g style="fill: #26ad81" transform="translate(403.435774 261.275828) rotate(-65.353039) scale(0.1 -0.1)">
      <use xlink:href="#DejaVuSans-34"/>
      <use xlink:href="#DejaVuSans-36" x="63.623047"/>
      <use xlink:href="#DejaVuSans-39" x="127.246094"/>
      <use xlink:href="#DejaVuSans-35" x="190.869141"/>
      <use xlink:href="#DejaVuSans-37" x="254.492188"/>
      <use xlink:href="#DejaVuSans-31" x="318.115234"/>
      <use xlink:href="#DejaVuSans-34" x="381.738281"/>
      <use xlink:href="#DejaVuSans-35" x="445.361328"/>
     </g>
    </g>
   </g>
   <g id="text_49">
    <g clip-path="url(#pcbbe0800d0)">
     <!-- 49565876 -->
     <g style="fill: #31b57b" transform="translate(403.396177 269.263017) rotate(-65.350212) scale(0.1 -0.1)">
      <use xlink:href="#DejaVuSans-34"/>
      <use xlink:href="#DejaVuSans-39" x="63.623047"/>
      <use xlink:href="#DejaVuSans-35" x="127.246094"/>
      <use xlink:href="#DejaVuSans-36" x="190.869141"/>
      <use xlink:href="#DejaVuSans-35" x="254.492188"/>
      <use xlink:href="#DejaVuSans-38" x="318.115234"/>
      <use xlink:href="#DejaVuSans-37" x="381.738281"/>
      <use xlink:href="#DejaVuSans-36" x="445.361328"/>
     </g>
    </g>
   </g>
   <g id="text_50">
    <g clip-path="url(#pcbbe0800d0)">
     <!-- 52174606 -->
     <g style="fill: #3fbc73" transform="translate(403.396332 276.960152) rotate(-65.350577) scale(0.1 -0.1)">
      <use xlink:href="#DejaVuSans-35"/>
      <use xlink:href="#DejaVuSans-32" x="63.623047"/>
      <use xlink:href="#DejaVuSans-31" x="127.246094"/>
      <use xlink:href="#DejaVuSans-37" x="190.869141"/>
      <use xlink:href="#DejaVuSans-34" x="254.492188"/>
      <use xlink:href="#DejaVuSans-36" x="318.115234"/>
      <use xlink:href="#DejaVuSans-30" x="381.738281"/>
      <use xlink:href="#DejaVuSans-36" x="445.361328"/>
     </g>
    </g>
   </g>
  </g>
 </g>
 <defs>
  <clipPath id="pcbbe0800d0">
   <rect x="57.6" y="41.472" width="357.12" height="266.112"/>
  </clipPath>
 </defs>
</svg>
